<svg viewBox="0 0 640 420" xmlns="http://www.w3.org/2000/svg" role="img" aria-label="fir8 tradeoff plot"><text x="320.0" y="22" text-anchor="middle" font-size="16" font-weight="700" fill="#102a43">fir8 area vs latency</text><line x1="60" y1="368" x2="612" y2="368" stroke="#9fb3c8" stroke-width="1.2"/><line x1="60" y1="58" x2="60" y2="368" stroke="#9fb3c8" stroke-width="1.2"/><text x="320.0" y="410" text-anchor="middle" font-size="12" fill="#486581">Area</text><text x="18" y="213.0" transform="rotate(-90 18 213.0)" text-anchor="middle" font-size="12" fill="#486581">Latency</text><line x1="60.0" y1="368" x2="60.0" y2="373" stroke="#9fb3c8" stroke-width="1"/><text x="60.0" y="386" text-anchor="middle" font-size="10" fill="#486581">0.0</text><line x1="55" y1="368.0" x2="60" y2="368.0" stroke="#9fb3c8" stroke-width="1"/><text x="50" y="372.0" text-anchor="end" font-size="10" fill="#486581">0.0</text><line x1="198.0" y1="368" x2="198.0" y2="373" stroke="#9fb3c8" stroke-width="1"/><text x="198.0" y="386" text-anchor="middle" font-size="10" fill="#486581">13.8</text><line x1="55" y1="290.5" x2="60" y2="290.5" stroke="#9fb3c8" stroke-width="1"/><text x="50" y="294.5" text-anchor="end" font-size="10" fill="#486581">4.5</text><line x1="336.0" y1="368" x2="336.0" y2="373" stroke="#9fb3c8" stroke-width="1"/><text x="336.0" y="386" text-anchor="middle" font-size="10" fill="#486581">27.5</text><line x1="55" y1="213.0" x2="60" y2="213.0" stroke="#9fb3c8" stroke-width="1"/><text x="50" y="217.0" text-anchor="end" font-size="10" fill="#486581">9.0</text><line x1="474.0" y1="368" x2="474.0" y2="373" stroke="#9fb3c8" stroke-width="1"/><text x="474.0" y="386" text-anchor="middle" font-size="10" fill="#486581">41.2</text><line x1="55" y1="135.5" x2="60" y2="135.5" stroke="#9fb3c8" stroke-width="1"/><text x="50" y="139.5" text-anchor="end" font-size="10" fill="#486581">13.5</text><line x1="612.0" y1="368" x2="612.0" y2="373" stroke="#9fb3c8" stroke-width="1"/><text x="612.0" y="386" text-anchor="middle" font-size="10" fill="#486581">55.0</text><line x1="55" y1="58.0" x2="60" y2="58.0" stroke="#9fb3c8" stroke-width="1"/><text x="50" y="62.0" text-anchor="end" font-size="10" fill="#486581">18.0</text><polyline points="310.9,58.0 320.9,58.0 320.9,75.2 331.0,75.2 331.0,92.4 341.0,92.4 341.0,109.7 351.1,109.7 351.1,126.9 361.1,126.9 361.1,144.1 371.1,144.1 371.1,161.3 381.2,161.3 381.2,178.6 411.3,178.6 411.3,195.8 441.4,195.8 441.4,213.0" fill="none" stroke="#264653" stroke-width="2.5" stroke-dasharray="4 4"/><polyline points="310.9,58.0 391.2,92.4 441.4,213.0" fill="none" stroke="#8d99ae" stroke-width="2.5" stroke-linecap="round"/><circle cx="310.9" cy="58.0" r="11" fill="#2a9d8f" /><text x="310.9" y="62.0" text-anchor="middle" font-size="10" font-weight="700" fill="#ffffff">1</text><circle cx="320.9" cy="75.2" r="11" fill="#f4a261" /><text x="320.9" y="79.2" text-anchor="middle" font-size="10" font-weight="700" fill="#ffffff">2</text><circle cx="331.0" cy="92.4" r="11" fill="#264653" /><text x="331.0" y="96.4" text-anchor="middle" font-size="10" font-weight="700" fill="#ffffff">3</text><circle cx="341.0" cy="109.7" r="11" fill="#264653" /><text x="341.0" y="113.7" text-anchor="middle" font-size="10" font-weight="700" fill="#ffffff">4</text><circle cx="351.1" cy="126.9" r="11" fill="#264653" /><text x="351.1" y="130.9" text-anchor="middle" font-size="10" font-weight="700" fill="#ffffff">5</text><circle cx="361.1" cy="144.1" r="11" fill="#264653" /><text x="361.1" y="148.1" text-anchor="middle" font-size="10" font-weight="700" fill="#ffffff">6</text><circle cx="371.1" cy="161.3" r="11" fill="#264653" /><text x="371.1" y="165.3" text-anchor="middle" font-size="10" font-weight="700" fill="#ffffff">7</text><circle cx="381.2" cy="178.6" r="11" fill="#264653" /><text x="381.2" y="182.6" text-anchor="middle" font-size="10" font-weight="700" fill="#ffffff">8</text><circle cx="391.2" cy="92.4" r="11" fill="#7b2cbf" /><text x="391.2" y="96.4" text-anchor="middle" font-size="10" font-weight="700" fill="#ffffff">9</text><circle cx="411.3" cy="195.8" r="11" fill="#264653" /><text x="411.3" y="199.8" text-anchor="middle" font-size="10" font-weight="700" fill="#ffffff">10</text><circle cx="441.4" cy="213.0" r="11" fill="#1d3557" /><text x="441.4" y="217.0" text-anchor="middle" font-size="10" font-weight="700" fill="#ffffff">11</text><circle cx="461.5" cy="213.0" r="11" fill="#577590" /><text x="461.5" y="217.0" text-anchor="middle" font-size="10" font-weight="700" fill="#ffffff">12</text><circle cx="612.0" cy="75.2" r="11" fill="#355070" /><text x="612.0" y="79.2" text-anchor="middle" font-size="10" font-weight="700" fill="#ffffff">13</text><line x1="612.0" y1="75.2" x2="524.0" y2="76.0" stroke="#355070" stroke-width="1.5"/><rect x="436.0" y="62.0" width="88" height="18" rx="4" fill="#ffffff" stroke="#355070" stroke-width="1"/><text x="518.0" y="75.0" text-anchor="end" font-size="10" font-weight="700" fill="#102a43">Original</text><line x1="310.9" y1="58.0" x2="328.9" y2="76.0" stroke="#2a9d8f" stroke-width="1.5"/><rect x="328.9" y="62.0" width="88" height="18" rx="4" fill="#ffffff" stroke="#2a9d8f" stroke-width="1"/><text x="334.9" y="75.0" text-anchor="start" font-size="10" font-weight="700" fill="#102a43">Weighted</text><line x1="441.4" y1="213.0" x2="459.4" y2="231.0" stroke="#1d3557" stroke-width="1.5"/><rect x="459.4" y="217.0" width="88" height="18" rx="4" fill="#ffffff" stroke="#1d3557" stroke-width="1"/><text x="465.4" y="230.0" text-anchor="start" font-size="10" font-weight="700" fill="#102a43">Latency-optimal</text><line x1="391.2" y1="92.4" x2="281.2" y2="118.4" stroke="#7b2cbf" stroke-width="1.5"/><rect x="193.2" y="104.4" width="88" height="18" rx="4" fill="#ffffff" stroke="#7b2cbf" stroke-width="1"/><text x="275.2" y="117.4" text-anchor="end" font-size="10" font-weight="700" fill="#102a43">Power-optimal</text><rect x="72" y="334" width="148" height="30" rx="6" fill="#ffffff" stroke="#d9e2ec" stroke-width="1"/><line x1="80" y1="348" x2="106" y2="348" stroke="#264653" stroke-width="2.5" stroke-dasharray="4 4"/><text x="110" y="351" font-size="10" fill="#243b53">Pareto</text><line x1="150" y1="348" x2="176" y2="348" stroke="#8d99ae" stroke-width="2.5"/><text x="180" y="351" font-size="10" fill="#243b53">Weights</text></svg>