<svg viewBox="0 0 920 360" xmlns="http://www.w3.org/2000/svg" role="img" aria-label="Synthetic size sweep scaling plot"><text x="460.0" y="24" text-anchor="middle" font-size="18" font-weight="700" fill="#102a43">Synthetic Size Sweeps: Runtime and Frontier Growth</text><text x="460.0" y="44" text-anchor="middle" font-size="12" fill="#486581">FIR-4/8/16/32 and dot-product-8/16/32/64 plotted against arithmetic op count.</text><line x1="386.0" y1="68" x2="410.0" y2="68" stroke="#355070" stroke-width="3"/><text x="418.0" y="72" font-size="12" fill="#243b53">FIR</text><line x1="474.0" y1="68" x2="498.0" y2="68" stroke="#bc4749" stroke-width="3"/><text x="506.0" y="72" font-size="12" fill="#243b53">DOT</text><text x="263.0" y="86" text-anchor="middle" font-size="13" font-weight="700" fill="#102a43">Saturation Runtime vs Arithmetic Op Count</text><line x1="66.0" y1="306.0" x2="460.0" y2="306.0" stroke="#9fb3c8" stroke-width="1.2"/><line x1="66.0" y1="96.0" x2="66.0" y2="306.0" stroke="#9fb3c8" stroke-width="1.2"/><text x="263.0" y="348.0" text-anchor="middle" font-size="12" fill="#486581">Arithmetic op count (mul + add)</text><text x="28.0" y="201.0" transform="rotate(-90 28.0 201.0)" text-anchor="middle" font-size="11" fill="#486581">Saturation runtime (ms)</text><line x1="87.7" y1="96" x2="87.7" y2="306" stroke="#e6edf3" stroke-width="1"/><text x="87.7" y="324.0" text-anchor="middle" font-size="10" fill="#486581">7</text><line x1="112.5" y1="96" x2="112.5" y2="306" stroke="#e6edf3" stroke-width="1"/><text x="112.5" y="324.0" text-anchor="middle" font-size="10" fill="#486581">15</text><line x1="162.2" y1="96" x2="162.2" y2="306" stroke="#e6edf3" stroke-width="1"/><text x="162.2" y="324.0" text-anchor="middle" font-size="10" fill="#486581">31</text><line x1="261.4" y1="96" x2="261.4" y2="306" stroke="#e6edf3" stroke-width="1"/><text x="261.4" y="324.0" text-anchor="middle" font-size="10" fill="#486581">63</text><line x1="460.0" y1="96" x2="460.0" y2="306" stroke="#e6edf3" stroke-width="1"/><text x="460.0" y="324.0" text-anchor="middle" font-size="10" fill="#486581">127</text><line x1="66.0" y1="306.0" x2="460.0" y2="306.0" stroke="#e6edf3" stroke-width="1"/><text x="58.0" y="310.0" text-anchor="end" font-size="10" fill="#486581">199.2</text><line x1="66.0" y1="253.5" x2="460.0" y2="253.5" stroke="#e6edf3" stroke-width="1"/><text x="58.0" y="257.5" text-anchor="end" font-size="10" fill="#486581">200.4</text><line x1="66.0" y1="201.0" x2="460.0" y2="201.0" stroke="#e6edf3" stroke-width="1"/><text x="58.0" y="205.0" text-anchor="end" font-size="10" fill="#486581">201.5</text><line x1="66.0" y1="148.5" x2="460.0" y2="148.5" stroke="#e6edf3" stroke-width="1"/><text x="58.0" y="152.5" text-anchor="end" font-size="10" fill="#486581">202.6</text><line x1="66.0" y1="96.0" x2="460.0" y2="96.0" stroke="#e6edf3" stroke-width="1"/><text x="58.0" y="100.0" text-anchor="end" font-size="10" fill="#486581">203.8</text><polyline points="87.7,271.0 112.5,271.0 162.2,224.3 261.4,224.3" fill="none" stroke="#355070" stroke-width="2.6" stroke-linecap="round"/><circle cx="87.7" cy="271.0" r="4" fill="#355070"/><text x="93.7" y="265.0" font-size="9" fill="#243b53">4</text><circle cx="112.5" cy="271.0" r="4" fill="#355070"/><text x="118.5" y="265.0" font-size="9" fill="#243b53">8</text><circle cx="162.2" cy="224.3" r="4" fill="#355070"/><text x="168.2" y="218.3" font-size="9" fill="#243b53">16</text><circle cx="261.4" cy="224.3" r="4" fill="#355070"/><text x="267.4" y="218.3" font-size="9" fill="#243b53">32</text><polyline points="112.5,271.0 162.2,224.3 261.4,224.3 460.0,131.0" fill="none" stroke="#bc4749" stroke-width="2.6" stroke-linecap="round"/><circle cx="112.5" cy="271.0" r="4" fill="#bc4749"/><text x="118.5" y="265.0" font-size="9" fill="#243b53">8</text><circle cx="162.2" cy="224.3" r="4" fill="#bc4749"/><text x="168.2" y="218.3" font-size="9" fill="#243b53">16</text><circle cx="261.4" cy="224.3" r="4" fill="#bc4749"/><text x="267.4" y="218.3" font-size="9" fill="#243b53">32</text><circle cx="460.0" cy="131.0" r="4" fill="#bc4749"/><text x="466.0" y="125.0" font-size="9" fill="#243b53">64</text><text x="691.0" y="86" text-anchor="middle" font-size="13" font-weight="700" fill="#102a43">Pareto Frontier Size vs Arithmetic Op Count</text><line x1="494.0" y1="306.0" x2="888.0" y2="306.0" stroke="#9fb3c8" stroke-width="1.2"/><line x1="494.0" y1="96.0" x2="494.0" y2="306.0" stroke="#9fb3c8" stroke-width="1.2"/><text x="691.0" y="348.0" text-anchor="middle" font-size="12" fill="#486581">Arithmetic op count (mul + add)</text><text x="456.0" y="201.0" transform="rotate(-90 456.0 201.0)" text-anchor="middle" font-size="11" fill="#486581">Pareto frontier size (points)</text><line x1="515.7" y1="96" x2="515.7" y2="306" stroke="#e6edf3" stroke-width="1"/><text x="515.7" y="324.0" text-anchor="middle" font-size="10" fill="#486581">7</text><line x1="540.5" y1="96" x2="540.5" y2="306" stroke="#e6edf3" stroke-width="1"/><text x="540.5" y="324.0" text-anchor="middle" font-size="10" fill="#486581">15</text><line x1="590.2" y1="96" x2="590.2" y2="306" stroke="#e6edf3" stroke-width="1"/><text x="590.2" y="324.0" text-anchor="middle" font-size="10" fill="#486581">31</text><line x1="689.4" y1="96" x2="689.4" y2="306" stroke="#e6edf3" stroke-width="1"/><text x="689.4" y="324.0" text-anchor="middle" font-size="10" fill="#486581">63</text><line x1="888.0" y1="96" x2="888.0" y2="306" stroke="#e6edf3" stroke-width="1"/><text x="888.0" y="324.0" text-anchor="middle" font-size="10" fill="#486581">127</text><line x1="494.0" y1="306.0" x2="888.0" y2="306.0" stroke="#e6edf3" stroke-width="1"/><text x="486.0" y="310.0" text-anchor="end" font-size="10" fill="#486581">0.0</text><line x1="494.0" y1="253.5" x2="888.0" y2="253.5" stroke="#e6edf3" stroke-width="1"/><text x="486.0" y="257.5" text-anchor="end" font-size="10" fill="#486581">4.0</text><line x1="494.0" y1="201.0" x2="888.0" y2="201.0" stroke="#e6edf3" stroke-width="1"/><text x="486.0" y="205.0" text-anchor="end" font-size="10" fill="#486581">8.0</text><line x1="494.0" y1="148.5" x2="888.0" y2="148.5" stroke="#e6edf3" stroke-width="1"/><text x="486.0" y="152.5" text-anchor="end" font-size="10" fill="#486581">12.0</text><line x1="494.0" y1="96.0" x2="888.0" y2="96.0" stroke="#e6edf3" stroke-width="1"/><text x="486.0" y="100.0" text-anchor="end" font-size="10" fill="#486581">16.0</text><polyline points="515.7,240.4 540.5,174.8 590.2,109.1 689.4,306.0" fill="none" stroke="#355070" stroke-width="2.6" stroke-linecap="round"/><circle cx="515.7" cy="240.4" r="4" fill="#355070"/><text x="521.7" y="234.4" font-size="9" fill="#243b53">4</text><circle cx="540.5" cy="174.8" r="4" fill="#355070"/><text x="546.5" y="168.8" font-size="9" fill="#243b53">8</text><circle cx="590.2" cy="109.1" r="4" fill="#355070"/><text x="596.2" y="103.1" font-size="9" fill="#243b53">16</text><line x1="685.4" y1="302.0" x2="693.4" y2="310.0" stroke="#355070" stroke-width="2"/><line x1="685.4" y1="310.0" x2="693.4" y2="302.0" stroke="#355070" stroke-width="2"/><text x="695.4" y="300.0" font-size="9" fill="#243b53">32</text><polyline points="540.5,161.6 590.2,96.0 689.4,306.0 888.0,306.0" fill="none" stroke="#bc4749" stroke-width="2.6" stroke-linecap="round"/><circle cx="540.5" cy="161.6" r="4" fill="#bc4749"/><text x="546.5" y="155.6" font-size="9" fill="#243b53">8</text><circle cx="590.2" cy="96.0" r="4" fill="#bc4749"/><text x="596.2" y="90.0" font-size="9" fill="#243b53">16</text><line x1="685.4" y1="302.0" x2="693.4" y2="310.0" stroke="#bc4749" stroke-width="2"/><line x1="685.4" y1="310.0" x2="693.4" y2="302.0" stroke="#bc4749" stroke-width="2"/><text x="695.4" y="300.0" font-size="9" fill="#243b53">32</text><line x1="884.0" y1="302.0" x2="892.0" y2="310.0" stroke="#bc4749" stroke-width="2"/><line x1="884.0" y1="310.0" x2="892.0" y2="302.0" stroke="#bc4749" stroke-width="2"/><text x="894.0" y="300.0" font-size="9" fill="#243b53">64</text></svg>