<svg viewBox="0 0 640 360" xmlns="http://www.w3.org/2000/svg" role="img" aria-label="Synthetic size sweep frontier growth plot"><text x="320.0" y="24" text-anchor="middle" font-size="18" font-weight="700" fill="#102a43">Pareto Frontier Size Under Synthetic Size Sweeps</text><text x="320.0" y="44" text-anchor="middle" font-size="12" fill="#486581">FIR-4/8/16/32 and dot-product-8/16/32/64 plotted against arithmetic op count.</text><line x1="72" y1="304" x2="610" y2="304" stroke="#9fb3c8" stroke-width="1.2"/><line x1="72" y1="76" x2="72" y2="304" stroke="#9fb3c8" stroke-width="1.2"/><text x="341.0" y="346" text-anchor="middle" font-size="12" fill="#486581">Arithmetic op count (mul + add)</text><text x="18" y="190.0" transform="rotate(-90 18 190.0)" text-anchor="middle" font-size="12" fill="#486581">Pareto frontier size (points)</text><line x1="248.0" y1="62" x2="272.0" y2="62" stroke="#355070" stroke-width="3"/><text x="280.0" y="66" font-size="12" fill="#243b53">FIR</text><line x1="336.0" y1="62" x2="360.0" y2="62" stroke="#bc4749" stroke-width="3"/><text x="368.0" y="66" font-size="12" fill="#243b53">DOT</text><line x1="101.7" y1="76" x2="101.7" y2="304" stroke="#e6edf3" stroke-width="1"/><text x="101.7" y="322.0" text-anchor="middle" font-size="10" fill="#486581">7</text><line x1="135.5" y1="76" x2="135.5" y2="304" stroke="#e6edf3" stroke-width="1"/><text x="135.5" y="322.0" text-anchor="middle" font-size="10" fill="#486581">15</text><line x1="203.3" y1="76" x2="203.3" y2="304" stroke="#e6edf3" stroke-width="1"/><text x="203.3" y="322.0" text-anchor="middle" font-size="10" fill="#486581">31</text><line x1="338.9" y1="76" x2="338.9" y2="304" stroke="#e6edf3" stroke-width="1"/><text x="338.9" y="322.0" text-anchor="middle" font-size="10" fill="#486581">63</text><line x1="610.0" y1="76" x2="610.0" y2="304" stroke="#e6edf3" stroke-width="1"/><text x="610.0" y="322.0" text-anchor="middle" font-size="10" fill="#486581">127</text><line x1="72" y1="304.0" x2="610" y2="304.0" stroke="#e6edf3" stroke-width="1"/><text x="64.0" y="308.0" text-anchor="end" font-size="10" fill="#486581">0.0</text><line x1="72" y1="247.0" x2="610" y2="247.0" stroke="#e6edf3" stroke-width="1"/><text x="64.0" y="251.0" text-anchor="end" font-size="10" fill="#486581">4.0</text><line x1="72" y1="190.0" x2="610" y2="190.0" stroke="#e6edf3" stroke-width="1"/><text x="64.0" y="194.0" text-anchor="end" font-size="10" fill="#486581">8.0</text><line x1="72" y1="133.0" x2="610" y2="133.0" stroke="#e6edf3" stroke-width="1"/><text x="64.0" y="137.0" text-anchor="end" font-size="10" fill="#486581">12.0</text><line x1="72" y1="76.0" x2="610" y2="76.0" stroke="#e6edf3" stroke-width="1"/><text x="64.0" y="80.0" text-anchor="end" font-size="10" fill="#486581">16.0</text><polyline points="101.7,232.8 135.5,161.5 203.3,90.2 338.9,304.0" fill="none" stroke="#355070" stroke-width="2.8" stroke-linecap="round"/><circle cx="101.7" cy="232.8" r="4.4" fill="#355070"/><text x="108.7" y="225.8" font-size="9" fill="#243b53">4</text><circle cx="135.5" cy="161.5" r="4.4" fill="#355070"/><text x="142.5" y="154.5" font-size="9" fill="#243b53">8</text><circle cx="203.3" cy="90.2" r="4.4" fill="#355070"/><text x="210.3" y="83.2" font-size="9" fill="#243b53">16</text><line x1="333.9" y1="299.0" x2="343.9" y2="309.0" stroke="#355070" stroke-width="2.2"/><line x1="333.9" y1="309.0" x2="343.9" y2="299.0" stroke="#355070" stroke-width="2.2"/><text x="345.9" y="297.0" font-size="9" fill="#243b53">32</text><polyline points="135.5,147.2 203.3,76.0 338.9,304.0 610.0,304.0" fill="none" stroke="#bc4749" stroke-width="2.8" stroke-linecap="round"/><circle cx="135.5" cy="147.2" r="4.4" fill="#bc4749"/><text x="142.5" y="140.2" font-size="9" fill="#243b53">8</text><circle cx="203.3" cy="76.0" r="4.4" fill="#bc4749"/><text x="210.3" y="69.0" font-size="9" fill="#243b53">16</text><line x1="333.9" y1="299.0" x2="343.9" y2="309.0" stroke="#bc4749" stroke-width="2.2"/><line x1="333.9" y1="309.0" x2="343.9" y2="299.0" stroke="#bc4749" stroke-width="2.2"/><text x="345.9" y="297.0" font-size="9" fill="#243b53">32</text><line x1="605.0" y1="299.0" x2="615.0" y2="309.0" stroke="#bc4749" stroke-width="2.2"/><line x1="605.0" y1="309.0" x2="615.0" y2="299.0" stroke="#bc4749" stroke-width="2.2"/><text x="617.0" y="297.0" font-size="9" fill="#243b53">64</text></svg>