<svg viewBox="0 0 860 390" xmlns="http://www.w3.org/2000/svg" role="img" aria-label="Normalized DSP scaling plot"><text x="430.0" y="24" text-anchor="middle" font-size="18" font-weight="700" fill="#102a43">Latency Scaling Under Increasing DSP Budgets</text><text x="430.0" y="42" text-anchor="middle" font-size="12" fill="#486581">X-axis = allowed DSP budget / baseline DSP count; Y-axis = best latency / baseline latency.</text><line x1="64" y1="336" x2="726" y2="336" stroke="#9fb3c8" stroke-width="1.2"/><line x1="64" y1="60" x2="64" y2="336" stroke="#9fb3c8" stroke-width="1.2"/><text x="395.0" y="378" text-anchor="middle" font-size="12" fill="#486581">Allowed DSP budget / baseline DSP count</text><text x="18" y="198.0" transform="rotate(-90 18 198.0)" text-anchor="middle" font-size="12" fill="#486581">Best latency / baseline latency</text><line x1="64.0" y1="60" x2="64.0" y2="336" stroke="#e6edf3" stroke-width="1"/><text x="64.0" y="354.0" text-anchor="middle" font-size="10" fill="#486581">0.0</text><line x1="229.5" y1="60" x2="229.5" y2="336" stroke="#e6edf3" stroke-width="1"/><text x="229.5" y="354.0" text-anchor="middle" font-size="10" fill="#486581">0.5</text><line x1="395.0" y1="60" x2="395.0" y2="336" stroke="#e6edf3" stroke-width="1"/><text x="395.0" y="354.0" text-anchor="middle" font-size="10" fill="#486581">1.0</text><line x1="560.5" y1="60" x2="560.5" y2="336" stroke="#e6edf3" stroke-width="1"/><text x="560.5" y="354.0" text-anchor="middle" font-size="10" fill="#486581">1.5</text><line x1="726.0" y1="60" x2="726.0" y2="336" stroke="#e6edf3" stroke-width="1"/><text x="726.0" y="354.0" text-anchor="middle" font-size="10" fill="#486581">2.0</text><line x1="64" y1="336.0" x2="726" y2="336.0" stroke="#e6edf3" stroke-width="1"/><text x="56.0" y="340.0" text-anchor="end" font-size="10" fill="#486581">0.4</text><line x1="64" y1="280.8" x2="726" y2="280.8" stroke="#e6edf3" stroke-width="1"/><text x="56.0" y="284.8" text-anchor="end" font-size="10" fill="#486581">0.6</text><line x1="64" y1="225.6" x2="726" y2="225.6" stroke="#e6edf3" stroke-width="1"/><text x="56.0" y="229.6" text-anchor="end" font-size="10" fill="#486581">0.8</text><line x1="64" y1="170.4" x2="726" y2="170.4" stroke="#e6edf3" stroke-width="1" stroke-dasharray="4 4"/><text x="56.0" y="174.4" text-anchor="end" font-size="10" fill="#486581">1.0</text><line x1="64" y1="115.2" x2="726" y2="115.2" stroke="#e6edf3" stroke-width="1"/><text x="56.0" y="119.2" text-anchor="end" font-size="10" fill="#486581">1.2</text><line x1="64" y1="60.0" x2="726" y2="60.0" stroke="#e6edf3" stroke-width="1"/><text x="56.0" y="64.0" text-anchor="end" font-size="10" fill="#486581">1.4</text><polyline points="64.0,154.2 105.4,154.2 105.4,186.6 146.8,186.6 146.8,202.9 188.1,202.9 188.1,219.1 229.5,219.1 229.5,235.3 270.9,235.3 270.9,251.6 312.2,251.6 312.2,267.8 353.6,267.8 353.6,267.8 395.0,267.8 395.0,284.0 436.4,284.0 436.4,284.0 477.8,284.0 477.8,300.3 519.1,300.3 519.1,300.3 560.5,300.3 560.5,300.3 601.9,300.3 601.9,300.3 643.2,300.3 643.2,300.3 684.6,300.3 684.6,300.3" fill="none" stroke="#355070" stroke-width="2.4" stroke-linecap="round"/><circle cx="64.0" cy="154.2" r="2.6" fill="#355070"/><circle cx="105.4" cy="186.6" r="2.6" fill="#355070"/><circle cx="146.8" cy="202.9" r="2.6" fill="#355070"/><circle cx="188.1" cy="219.1" r="2.6" fill="#355070"/><circle cx="229.5" cy="235.3" r="2.6" fill="#355070"/><circle cx="270.9" cy="251.6" r="2.6" fill="#355070"/><circle cx="312.2" cy="267.8" r="2.6" fill="#355070"/><circle cx="353.6" cy="267.8" r="2.6" fill="#355070"/><circle cx="395.0" cy="284.0" r="2.6" fill="#355070"/><circle cx="436.4" cy="284.0" r="2.6" fill="#355070"/><circle cx="477.8" cy="300.3" r="2.6" fill="#355070"/><circle cx="519.1" cy="300.3" r="2.6" fill="#355070"/><circle cx="560.5" cy="300.3" r="2.6" fill="#355070"/><circle cx="601.9" cy="300.3" r="2.6" fill="#355070"/><circle cx="643.2" cy="300.3" r="2.6" fill="#355070"/><circle cx="684.6" cy="300.3" r="2.6" fill="#355070"/><line x1="736" y1="68.0" x2="760" y2="68.0" stroke="#355070" stroke-width="2.6"/><text x="766" y="72.0" font-size="11" fill="#243b53">fir8</text><polyline points="64.0,145.3 84.7,145.3 84.7,153.7 105.4,153.7 105.4,162.0 126.1,162.0 126.1,170.4 146.8,170.4 146.8,178.8 167.4,178.8 167.4,187.1 188.1,187.1 188.1,195.5 208.8,195.5 208.8,203.9 229.5,203.9 229.5,212.2 250.2,212.2 250.2,220.6 270.9,220.6 270.9,228.9 291.6,228.9 291.6,237.3 312.2,237.3 312.2,245.7 332.9,245.7 332.9,254.0 353.6,254.0 353.6,262.4 374.3,262.4 374.3,270.8 395.0,270.8 395.0,270.8 415.7,270.8 415.7,270.8 436.4,270.8 436.4,270.8 457.1,270.8 457.1,270.8 477.8,270.8 477.8,270.8 498.4,270.8 498.4,270.8 519.1,270.8 519.1,270.8 539.8,270.8 539.8,270.8 560.5,270.8 560.5,270.8 581.2,270.8 581.2,270.8 601.9,270.8 601.9,270.8 622.6,270.8 622.6,270.8 643.2,270.8 643.2,270.8 663.9,270.8 663.9,270.8 684.6,270.8 684.6,270.8 705.3,270.8 705.3,270.8" fill="none" stroke="#bc4749" stroke-width="2.4" stroke-linecap="round"/><circle cx="64.0" cy="145.3" r="2.6" fill="#bc4749"/><circle cx="84.7" cy="153.7" r="2.6" fill="#bc4749"/><circle cx="105.4" cy="162.0" r="2.6" fill="#bc4749"/><circle cx="126.1" cy="170.4" r="2.6" fill="#bc4749"/><circle cx="146.8" cy="178.8" r="2.6" fill="#bc4749"/><circle cx="167.4" cy="187.1" r="2.6" fill="#bc4749"/><circle cx="188.1" cy="195.5" r="2.6" fill="#bc4749"/><circle cx="208.8" cy="203.9" r="2.6" fill="#bc4749"/><circle cx="229.5" cy="212.2" r="2.6" fill="#bc4749"/><circle cx="250.2" cy="220.6" r="2.6" fill="#bc4749"/><circle cx="270.9" cy="228.9" r="2.6" fill="#bc4749"/><circle cx="291.6" cy="237.3" r="2.6" fill="#bc4749"/><circle cx="312.2" cy="245.7" r="2.6" fill="#bc4749"/><circle cx="332.9" cy="254.0" r="2.6" fill="#bc4749"/><circle cx="353.6" cy="262.4" r="2.6" fill="#bc4749"/><circle cx="374.3" cy="270.8" r="2.6" fill="#bc4749"/><circle cx="395.0" cy="270.8" r="2.6" fill="#bc4749"/><circle cx="415.7" cy="270.8" r="2.6" fill="#bc4749"/><circle cx="436.4" cy="270.8" r="2.6" fill="#bc4749"/><circle cx="457.1" cy="270.8" r="2.6" fill="#bc4749"/><circle cx="477.8" cy="270.8" r="2.6" fill="#bc4749"/><circle cx="498.4" cy="270.8" r="2.6" fill="#bc4749"/><circle cx="519.1" cy="270.8" r="2.6" fill="#bc4749"/><circle cx="539.8" cy="270.8" r="2.6" fill="#bc4749"/><circle cx="560.5" cy="270.8" r="2.6" fill="#bc4749"/><circle cx="581.2" cy="270.8" r="2.6" fill="#bc4749"/><circle cx="601.9" cy="270.8" r="2.6" fill="#bc4749"/><circle cx="622.6" cy="270.8" r="2.6" fill="#bc4749"/><circle cx="643.2" cy="270.8" r="2.6" fill="#bc4749"/><circle cx="663.9" cy="270.8" r="2.6" fill="#bc4749"/><circle cx="684.6" cy="270.8" r="2.6" fill="#bc4749"/><circle cx="705.3" cy="270.8" r="2.6" fill="#bc4749"/><line x1="736" y1="86.0" x2="760" y2="86.0" stroke="#bc4749" stroke-width="2.6"/><text x="766" y="90.0" font-size="11" fill="#243b53">dot16</text><polyline points="64.0,121.7 105.4,121.7 105.4,137.9 146.8,137.9 146.8,154.2 188.1,154.2 188.1,170.4 229.5,170.4 229.5,186.6 270.9,186.6 270.9,202.9 312.2,202.9 312.2,219.1 353.6,219.1 353.6,235.3 395.0,235.3 395.0,251.6 436.4,251.6 436.4,267.8 477.8,267.8 477.8,267.8 519.1,267.8 519.1,284.0 560.5,284.0 560.5,284.0 601.9,284.0 601.9,284.0 643.2,284.0 643.2,284.0 684.6,284.0 684.6,284.0" fill="none" stroke="#577590" stroke-width="2.4" stroke-linecap="round"/><circle cx="64.0" cy="121.7" r="2.6" fill="#577590"/><circle cx="105.4" cy="137.9" r="2.6" fill="#577590"/><circle cx="146.8" cy="154.2" r="2.6" fill="#577590"/><circle cx="188.1" cy="170.4" r="2.6" fill="#577590"/><circle cx="229.5" cy="186.6" r="2.6" fill="#577590"/><circle cx="270.9" cy="202.9" r="2.6" fill="#577590"/><circle cx="312.2" cy="219.1" r="2.6" fill="#577590"/><circle cx="353.6" cy="235.3" r="2.6" fill="#577590"/><circle cx="395.0" cy="251.6" r="2.6" fill="#577590"/><circle cx="436.4" cy="267.8" r="2.6" fill="#577590"/><circle cx="477.8" cy="267.8" r="2.6" fill="#577590"/><circle cx="519.1" cy="284.0" r="2.6" fill="#577590"/><circle cx="560.5" cy="284.0" r="2.6" fill="#577590"/><circle cx="601.9" cy="284.0" r="2.6" fill="#577590"/><circle cx="643.2" cy="284.0" r="2.6" fill="#577590"/><circle cx="684.6" cy="284.0" r="2.6" fill="#577590"/><line x1="736" y1="104.0" x2="760" y2="104.0" stroke="#577590" stroke-width="2.6"/><text x="766" y="108.0" font-size="11" fill="#243b53">gemm-k8</text><polyline points="64.0,95.1 105.4,95.1 105.4,120.2 146.8,120.2 146.8,120.2 188.1,120.2 188.1,145.3 229.5,145.3 229.5,145.3 270.9,145.3 270.9,170.4 312.2,170.4 312.2,170.4 353.6,170.4 353.6,195.5 395.0,195.5 395.0,195.5 436.4,195.5 436.4,220.6 477.8,220.6 477.8,220.6 519.1,220.6 519.1,245.7 560.5,245.7 560.5,245.7 601.9,245.7 601.9,245.7 643.2,245.7 643.2,245.7 684.6,245.7 684.6,270.8" fill="none" stroke="#7f5539" stroke-width="2.4" stroke-linecap="round"/><circle cx="64.0" cy="95.1" r="2.6" fill="#7f5539"/><circle cx="105.4" cy="120.2" r="2.6" fill="#7f5539"/><circle cx="146.8" cy="120.2" r="2.6" fill="#7f5539"/><circle cx="188.1" cy="145.3" r="2.6" fill="#7f5539"/><circle cx="229.5" cy="145.3" r="2.6" fill="#7f5539"/><circle cx="270.9" cy="170.4" r="2.6" fill="#7f5539"/><circle cx="312.2" cy="170.4" r="2.6" fill="#7f5539"/><circle cx="353.6" cy="195.5" r="2.6" fill="#7f5539"/><circle cx="395.0" cy="195.5" r="2.6" fill="#7f5539"/><circle cx="436.4" cy="220.6" r="2.6" fill="#7f5539"/><circle cx="477.8" cy="220.6" r="2.6" fill="#7f5539"/><circle cx="519.1" cy="245.7" r="2.6" fill="#7f5539"/><circle cx="560.5" cy="245.7" r="2.6" fill="#7f5539"/><circle cx="601.9" cy="245.7" r="2.6" fill="#7f5539"/><circle cx="643.2" cy="245.7" r="2.6" fill="#7f5539"/><circle cx="684.6" cy="270.8" r="2.6" fill="#7f5539"/><line x1="736" y1="122.0" x2="760" y2="122.0" stroke="#7f5539" stroke-width="2.6"/><text x="766" y="126.0" font-size="11" fill="#243b53">blocked-k8</text><polyline points="64.0,184.9 100.8,184.9 100.8,199.5 137.6,199.5 137.6,214.0 174.3,214.0 174.3,228.5 211.1,228.5 211.1,243.0 247.9,243.0 247.9,257.6 284.7,257.6 284.7,272.1 321.4,272.1 321.4,286.6 358.2,286.6 358.2,286.6 395.0,286.6 395.0,301.1 431.8,301.1 431.8,315.7 468.6,315.7 468.6,315.7 505.3,315.7 505.3,315.7 542.1,315.7 542.1,315.7 578.9,315.7 578.9,315.7 615.7,315.7 615.7,315.7 652.4,315.7 652.4,315.7 689.2,315.7 689.2,315.7" fill="none" stroke="#2a9d8f" stroke-width="2.4" stroke-linecap="round"/><circle cx="64.0" cy="184.9" r="2.6" fill="#2a9d8f"/><circle cx="100.8" cy="199.5" r="2.6" fill="#2a9d8f"/><circle cx="137.6" cy="214.0" r="2.6" fill="#2a9d8f"/><circle cx="174.3" cy="228.5" r="2.6" fill="#2a9d8f"/><circle cx="211.1" cy="243.0" r="2.6" fill="#2a9d8f"/><circle cx="247.9" cy="257.6" r="2.6" fill="#2a9d8f"/><circle cx="284.7" cy="272.1" r="2.6" fill="#2a9d8f"/><circle cx="321.4" cy="286.6" r="2.6" fill="#2a9d8f"/><circle cx="358.2" cy="286.6" r="2.6" fill="#2a9d8f"/><circle cx="395.0" cy="301.1" r="2.6" fill="#2a9d8f"/><circle cx="431.8" cy="315.7" r="2.6" fill="#2a9d8f"/><circle cx="468.6" cy="315.7" r="2.6" fill="#2a9d8f"/><circle cx="505.3" cy="315.7" r="2.6" fill="#2a9d8f"/><circle cx="542.1" cy="315.7" r="2.6" fill="#2a9d8f"/><circle cx="578.9" cy="315.7" r="2.6" fill="#2a9d8f"/><circle cx="615.7" cy="315.7" r="2.6" fill="#2a9d8f"/><circle cx="652.4" cy="315.7" r="2.6" fill="#2a9d8f"/><circle cx="689.2" cy="315.7" r="2.6" fill="#2a9d8f"/><line x1="736" y1="140.0" x2="760" y2="140.0" stroke="#2a9d8f" stroke-width="2.6"/><text x="766" y="144.0" font-size="11" fill="#243b53">conv3x3</text><polyline points="64.0,95.1 130.2,95.1 130.2,120.2 196.4,120.2 196.4,145.3 262.6,145.3 262.6,170.4 328.8,170.4 328.8,195.5 395.0,195.5 395.0,220.6 461.2,220.6 461.2,245.7 527.4,245.7 527.4,245.7 593.6,245.7 593.6,270.8 659.8,270.8 659.8,270.8" fill="none" stroke="#6d597a" stroke-width="2.4" stroke-linecap="round"/><circle cx="64.0" cy="95.1" r="2.6" fill="#6d597a"/><circle cx="130.2" cy="120.2" r="2.6" fill="#6d597a"/><circle cx="196.4" cy="145.3" r="2.6" fill="#6d597a"/><circle cx="262.6" cy="170.4" r="2.6" fill="#6d597a"/><circle cx="328.8" cy="195.5" r="2.6" fill="#6d597a"/><circle cx="395.0" cy="220.6" r="2.6" fill="#6d597a"/><circle cx="461.2" cy="245.7" r="2.6" fill="#6d597a"/><circle cx="527.4" cy="245.7" r="2.6" fill="#6d597a"/><circle cx="593.6" cy="270.8" r="2.6" fill="#6d597a"/><circle cx="659.8" cy="270.8" r="2.6" fill="#6d597a"/><line x1="736" y1="158.0" x2="760" y2="158.0" stroke="#6d597a" stroke-width="2.6"/><text x="766" y="162.0" font-size="11" fill="#243b53">stencil5</text></svg>