<svg viewBox="0 0 1020 360" xmlns="http://www.w3.org/2000/svg" role="img" aria-label="Cross-benchmark normalized objective comparison"><text x="510.0" y="24" text-anchor="middle" font-size="18" font-weight="700" fill="#102a43">Cross-Benchmark Objective Tradeoffs</text><text x="510.0" y="42" text-anchor="middle" font-size="12" fill="#486581">Y-axis reports optimized / baseline ratio (unitless); values below 1.0 are better.</text><text x="18" y="197.0" transform="rotate(-90 18 197.0)" text-anchor="middle" font-size="12" fill="#486581">Metric / baseline</text><rect x="340.0" y="58" width="12" height="12" rx="2" fill="#2a9d8f"/><text x="358.0" y="68" font-size="12" fill="#243b53">Weighted</text><rect x="458.0" y="58" width="12" height="12" rx="2" fill="#1d3557"/><text x="476.0" y="68" font-size="12" fill="#243b53">Latency-opt.</text><rect x="576.0" y="58" width="12" height="12" rx="2" fill="#7b2cbf"/><text x="594.0" y="68" font-size="12" fill="#243b53">Power-opt.</text><text x="203.3" y="86" text-anchor="middle" font-size="13" font-weight="700" fill="#102a43">Area / baseline</text><line x1="56.0" y1="298.0" x2="350.7" y2="298.0" stroke="#9fb3c8" stroke-width="1.2"/><line x1="56.0" y1="96.0" x2="56.0" y2="298.0" stroke="#9fb3c8" stroke-width="1.2"/><line x1="56.0" y1="298.0" x2="350.7" y2="298.0" stroke="#e6edf3" stroke-width="1"/><text x="48.0" y="302.0" text-anchor="end" font-size="10" fill="#486581">0.0</text><line x1="56.0" y1="247.5" x2="350.7" y2="247.5" stroke="#e6edf3" stroke-width="1"/><text x="48.0" y="251.5" text-anchor="end" font-size="10" fill="#486581">0.5</text><line x1="56.0" y1="197.0" x2="350.7" y2="197.0" stroke="#cbd5e1" stroke-width="1" stroke-dasharray="4 4"/><text x="48.0" y="201.0" text-anchor="end" font-size="10" fill="#486581">1.0</text><line x1="56.0" y1="146.5" x2="350.7" y2="146.5" stroke="#e6edf3" stroke-width="1"/><text x="48.0" y="150.5" text-anchor="end" font-size="10" fill="#486581">1.5</text><line x1="56.0" y1="96.0" x2="350.7" y2="96.0" stroke="#e6edf3" stroke-width="1"/><text x="48.0" y="100.0" text-anchor="end" font-size="10" fill="#486581">2.0</text><rect x="74.2" y="252.1" width="10.6" height="45.9" rx="2" fill="#2a9d8f"/><rect x="86.9" y="228.2" width="10.6" height="69.8" rx="2" fill="#1d3557"/><rect x="99.6" y="237.4" width="10.6" height="60.6" rx="2" fill="#7b2cbf"/><text x="92.2" y="314.0" text-anchor="middle" font-size="9" fill="#243b53">fir8</text><rect x="118.7" y="226.1" width="10.6" height="71.9" rx="2" fill="#2a9d8f"/><rect x="131.4" y="212.5" width="10.6" height="85.5" rx="2" fill="#1d3557"/><rect x="144.1" y="213.4" width="10.6" height="84.6" rx="2" fill="#7b2cbf"/><text x="136.7" y="314.0" text-anchor="middle" font-size="9" fill="#243b53">dot16</text><rect x="163.1" y="226.4" width="10.6" height="71.6" rx="2" fill="#2a9d8f"/><rect x="175.8" y="198.8" width="10.6" height="99.2" rx="2" fill="#1d3557"/><rect x="188.5" y="197.0" width="10.6" height="101.0" rx="2" fill="#7b2cbf"/><text x="181.1" y="314.0" text-anchor="middle" font-size="9" fill="#243b53">gemm-k8</text><rect x="207.6" y="226.4" width="10.6" height="71.6" rx="2" fill="#2a9d8f"/><rect x="220.3" y="184.1" width="10.6" height="113.9" rx="2" fill="#1d3557"/><rect x="233.0" y="197.0" width="10.6" height="101.0" rx="2" fill="#7b2cbf"/><text x="225.6" y="314.0" text-anchor="middle" font-size="9" fill="#243b53">blocked-k8</text><rect x="252.0" y="271.9" width="10.6" height="26.1" rx="2" fill="#2a9d8f"/><rect x="264.7" y="254.0" width="10.6" height="44.0" rx="2" fill="#1d3557"/><rect x="277.4" y="268.7" width="10.6" height="29.3" rx="2" fill="#7b2cbf"/><text x="270.0" y="314.0" text-anchor="middle" font-size="9" fill="#243b53">conv3x3</text><rect x="296.5" y="226.7" width="10.6" height="71.3" rx="2" fill="#2a9d8f"/><rect x="309.2" y="191.1" width="10.6" height="106.9" rx="2" fill="#1d3557"/><rect x="321.9" y="197.0" width="10.6" height="101.0" rx="2" fill="#7b2cbf"/><text x="314.4" y="314.0" text-anchor="middle" font-size="9" fill="#243b53">stencil5</text><text x="526.0" y="86" text-anchor="middle" font-size="13" font-weight="700" fill="#102a43">Latency / baseline</text><line x1="378.7" y1="298.0" x2="673.3" y2="298.0" stroke="#9fb3c8" stroke-width="1.2"/><line x1="378.7" y1="96.0" x2="378.7" y2="298.0" stroke="#9fb3c8" stroke-width="1.2"/><line x1="378.7" y1="298.0" x2="673.3" y2="298.0" stroke="#e6edf3" stroke-width="1"/><text x="370.7" y="302.0" text-anchor="end" font-size="10" fill="#486581">0.0</text><line x1="378.7" y1="247.5" x2="673.3" y2="247.5" stroke="#e6edf3" stroke-width="1"/><text x="370.7" y="251.5" text-anchor="end" font-size="10" fill="#486581">0.5</text><line x1="378.7" y1="197.0" x2="673.3" y2="197.0" stroke="#cbd5e1" stroke-width="1" stroke-dasharray="4 4"/><text x="370.7" y="201.0" text-anchor="end" font-size="10" fill="#486581">1.0</text><line x1="378.7" y1="146.5" x2="673.3" y2="146.5" stroke="#e6edf3" stroke-width="1"/><text x="370.7" y="150.5" text-anchor="end" font-size="10" fill="#486581">1.5</text><line x1="378.7" y1="96.0" x2="673.3" y2="96.0" stroke="#e6edf3" stroke-width="1"/><text x="370.7" y="100.0" text-anchor="end" font-size="10" fill="#486581">2.0</text><rect x="396.9" y="191.1" width="10.6" height="106.9" rx="2" fill="#2a9d8f"/><rect x="409.6" y="244.5" width="10.6" height="53.5" rx="2" fill="#1d3557"/><rect x="422.3" y="202.9" width="10.6" height="95.1" rx="2" fill="#7b2cbf"/><text x="414.9" y="314.0" text-anchor="middle" font-size="9" fill="#243b53">fir8</text><rect x="441.3" y="187.8" width="10.6" height="110.2" rx="2" fill="#2a9d8f"/><rect x="454.0" y="233.7" width="10.6" height="64.3" rx="2" fill="#1d3557"/><rect x="466.7" y="197.0" width="10.6" height="101.0" rx="2" fill="#7b2cbf"/><text x="459.3" y="314.0" text-anchor="middle" font-size="9" fill="#243b53">dot16</text><rect x="485.8" y="179.2" width="10.6" height="118.8" rx="2" fill="#2a9d8f"/><rect x="498.5" y="238.6" width="10.6" height="59.4" rx="2" fill="#1d3557"/><rect x="511.2" y="197.0" width="10.6" height="101.0" rx="2" fill="#7b2cbf"/><text x="503.8" y="314.0" text-anchor="middle" font-size="9" fill="#243b53">gemm-k8</text><rect x="530.2" y="169.5" width="10.6" height="128.5" rx="2" fill="#2a9d8f"/><rect x="542.9" y="233.7" width="10.6" height="64.3" rx="2" fill="#1d3557"/><rect x="555.6" y="197.0" width="10.6" height="101.0" rx="2" fill="#7b2cbf"/><text x="548.2" y="314.0" text-anchor="middle" font-size="9" fill="#243b53">blocked-k8</text><rect x="574.7" y="202.3" width="10.6" height="95.7" rx="2" fill="#2a9d8f"/><rect x="587.4" y="250.2" width="10.6" height="47.8" rx="2" fill="#1d3557"/><rect x="600.1" y="202.3" width="10.6" height="95.7" rx="2" fill="#7b2cbf"/><text x="592.7" y="314.0" text-anchor="middle" font-size="9" fill="#243b53">conv3x3</text><rect x="619.1" y="169.5" width="10.6" height="128.5" rx="2" fill="#2a9d8f"/><rect x="631.8" y="233.7" width="10.6" height="64.3" rx="2" fill="#1d3557"/><rect x="644.5" y="197.0" width="10.6" height="101.0" rx="2" fill="#7b2cbf"/><text x="637.1" y="314.0" text-anchor="middle" font-size="9" fill="#243b53">stencil5</text><text x="848.7" y="86" text-anchor="middle" font-size="13" font-weight="700" fill="#102a43">Power / baseline</text><line x1="701.3" y1="298.0" x2="996.0" y2="298.0" stroke="#9fb3c8" stroke-width="1.2"/><line x1="701.3" y1="96.0" x2="701.3" y2="298.0" stroke="#9fb3c8" stroke-width="1.2"/><line x1="701.3" y1="298.0" x2="996.0" y2="298.0" stroke="#e6edf3" stroke-width="1"/><text x="693.3" y="302.0" text-anchor="end" font-size="10" fill="#486581">0.0</text><line x1="701.3" y1="247.5" x2="996.0" y2="247.5" stroke="#e6edf3" stroke-width="1"/><text x="693.3" y="251.5" text-anchor="end" font-size="10" fill="#486581">0.5</text><line x1="701.3" y1="197.0" x2="996.0" y2="197.0" stroke="#cbd5e1" stroke-width="1" stroke-dasharray="4 4"/><text x="693.3" y="201.0" text-anchor="end" font-size="10" fill="#486581">1.0</text><line x1="701.3" y1="146.5" x2="996.0" y2="146.5" stroke="#e6edf3" stroke-width="1"/><text x="693.3" y="150.5" text-anchor="end" font-size="10" fill="#486581">1.5</text><line x1="701.3" y1="96.0" x2="996.0" y2="96.0" stroke="#e6edf3" stroke-width="1"/><text x="693.3" y="100.0" text-anchor="end" font-size="10" fill="#486581">2.0</text><rect x="719.6" y="190.5" width="10.6" height="107.5" rx="2" fill="#2a9d8f"/><rect x="732.3" y="197.0" width="10.6" height="101.0" rx="2" fill="#1d3557"/><rect x="745.0" y="229.6" width="10.6" height="68.4" rx="2" fill="#7b2cbf"/><text x="737.6" y="314.0" text-anchor="middle" font-size="9" fill="#243b53">fir8</text><rect x="764.0" y="120.0" width="10.6" height="178.0" rx="2" fill="#2a9d8f"/><rect x="776.7" y="96.0" width="10.6" height="202.0" rx="2" fill="#1d3557"/><rect x="789.4" y="153.7" width="10.6" height="144.3" rx="2" fill="#7b2cbf"/><text x="782.0" y="314.0" text-anchor="middle" font-size="9" fill="#243b53">dot16</text><rect x="808.5" y="118.8" width="10.6" height="179.2" rx="2" fill="#2a9d8f"/><rect x="821.2" y="135.1" width="10.6" height="162.9" rx="2" fill="#1d3557"/><rect x="833.9" y="197.0" width="10.6" height="101.0" rx="2" fill="#7b2cbf"/><text x="826.4" y="314.0" text-anchor="middle" font-size="9" fill="#243b53">gemm-k8</text><rect x="852.9" y="118.8" width="10.6" height="179.2" rx="2" fill="#2a9d8f"/><rect x="865.6" y="174.2" width="10.6" height="123.8" rx="2" fill="#1d3557"/><rect x="878.3" y="197.0" width="10.6" height="101.0" rx="2" fill="#7b2cbf"/><text x="870.9" y="314.0" text-anchor="middle" font-size="9" fill="#243b53">blocked-k8</text><rect x="897.3" y="246.1" width="10.6" height="51.9" rx="2" fill="#2a9d8f"/><rect x="910.0" y="228.7" width="10.6" height="69.3" rx="2" fill="#1d3557"/><rect x="922.7" y="254.7" width="10.6" height="43.3" rx="2" fill="#7b2cbf"/><text x="915.3" y="314.0" text-anchor="middle" font-size="9" fill="#243b53">conv3x3</text><rect x="941.8" y="117.3" width="10.6" height="180.7" rx="2" fill="#2a9d8f"/><rect x="954.5" y="159.8" width="10.6" height="138.2" rx="2" fill="#1d3557"/><rect x="967.2" y="197.0" width="10.6" height="101.0" rx="2" fill="#7b2cbf"/><text x="959.8" y="314.0" text-anchor="middle" font-size="9" fill="#243b53">stencil5</text></svg>