<svg viewBox="0 0 980 390" xmlns="http://www.w3.org/2000/svg" role="img" aria-label="Constraint sensitivity ablation plot"><text x="490.0" y="24" text-anchor="middle" font-size="18" font-weight="700" fill="#102a43">Constraint Sensitivity Across Benchmarks</text><text x="490.0" y="44" text-anchor="middle" font-size="12" fill="#486581">Columns are objective | hard constraint; cell text is target-metric improvement vs weighted extraction.</text><rect x="134" y="58" width="14" height="14" rx="3" fill="#e6fffa" stroke="#cbd5e1" stroke-width="1"/><text x="154" y="69" font-size="11" fill="#243b53">better</text><rect x="232" y="58" width="14" height="14" rx="3" fill="#f8fafc" stroke="#cbd5e1" stroke-width="1"/><text x="252" y="69" font-size="11" fill="#243b53">same</text><rect x="330" y="58" width="14" height="14" rx="3" fill="#fff4e6" stroke="#cbd5e1" stroke-width="1"/><text x="350" y="69" font-size="11" fill="#243b53">worse</text><rect x="428" y="58" width="14" height="14" rx="3" fill="#fde2e4" stroke="#cbd5e1" stroke-width="1"/><text x="448" y="69" font-size="11" fill="#243b53">infeasible</text><text x="202.5" y="96.0" text-anchor="middle" font-size="11" font-weight="700" fill="#243b53">min Lat</text><text x="202.5" y="111.0" text-anchor="middle" font-size="11" font-weight="700" fill="#243b53">| Area cap</text><text x="339.5" y="96.0" text-anchor="middle" font-size="11" font-weight="700" fill="#243b53">min Area</text><text x="339.5" y="111.0" text-anchor="middle" font-size="11" font-weight="700" fill="#243b53">| Lat cap</text><text x="476.5" y="96.0" text-anchor="middle" font-size="11" font-weight="700" fill="#243b53">min Lat</text><text x="476.5" y="111.0" text-anchor="middle" font-size="11" font-weight="700" fill="#243b53">| Power cap</text><text x="613.5" y="96.0" text-anchor="middle" font-size="11" font-weight="700" fill="#243b53">min Power</text><text x="613.5" y="111.0" text-anchor="middle" font-size="11" font-weight="700" fill="#243b53">| Lat cap</text><text x="750.5" y="96.0" text-anchor="middle" font-size="11" font-weight="700" fill="#243b53">min Lat</text><text x="750.5" y="111.0" text-anchor="middle" font-size="11" font-weight="700" fill="#243b53">| DSP=0</text><text x="887.5" y="96.0" text-anchor="middle" font-size="11" font-weight="700" fill="#243b53">min Lat</text><text x="887.5" y="111.0" text-anchor="middle" font-size="11" font-weight="700" fill="#243b53">| LUT cap</text><text x="124.0" y="153.7" text-anchor="end" font-size="11" fill="#243b53">fir8</text><rect x="136.0" y="132.0" width="133.0" height="35.3" rx="6" fill="#c3f2cf" stroke="#cbd5e1" stroke-width="1"/><text x="202.5" y="153.7" text-anchor="middle" font-size="11" font-weight="700" fill="#102a43">+50%</text><rect x="273.0" y="132.0" width="133.0" height="35.3" rx="6" fill="#fff9f2" stroke="#cbd5e1" stroke-width="1"/><text x="339.5" y="153.7" text-anchor="middle" font-size="11" font-weight="700" fill="#102a43">-4%</text><rect x="410.0" y="132.0" width="133.0" height="35.3" rx="6" fill="#c3f2cf" stroke="#cbd5e1" stroke-width="1"/><text x="476.5" y="153.7" text-anchor="middle" font-size="11" font-weight="700" fill="#102a43">+50%</text><rect x="547.0" y="132.0" width="133.0" height="35.3" rx="6" fill="#d3f5dc" stroke="#cbd5e1" stroke-width="1"/><text x="613.5" y="153.7" text-anchor="middle" font-size="11" font-weight="700" fill="#102a43">+36%</text><rect x="684.0" y="132.0" width="133.0" height="35.3" rx="6" fill="#f8fafc" stroke="#cbd5e1" stroke-width="1"/><text x="750.5" y="153.7" text-anchor="middle" font-size="11" font-weight="700" fill="#102a43">+0%</text><rect x="821.0" y="132.0" width="133.0" height="35.3" rx="6" fill="#c3f2cf" stroke="#cbd5e1" stroke-width="1"/><text x="887.5" y="153.7" text-anchor="middle" font-size="11" font-weight="700" fill="#102a43">+50%</text><text x="124.0" y="193.0" text-anchor="end" font-size="11" fill="#243b53">dot16</text><rect x="136.0" y="171.3" width="133.0" height="35.3" rx="6" fill="#cdf4d7" stroke="#cbd5e1" stroke-width="1"/><text x="202.5" y="193.0" text-anchor="middle" font-size="11" font-weight="700" fill="#102a43">+42%</text><rect x="273.0" y="171.3" width="133.0" height="35.3" rx="6" fill="#fff9f2" stroke="#cbd5e1" stroke-width="1"/><text x="339.5" y="193.0" text-anchor="middle" font-size="11" font-weight="700" fill="#102a43">-4%</text><rect x="410.0" y="171.3" width="133.0" height="35.3" rx="6" fill="#fde2e4" stroke="#d64550" stroke-width="1"/><text x="476.5" y="193.0" text-anchor="middle" font-size="11" font-weight="700" fill="#102a43">inf</text><rect x="547.0" y="171.3" width="133.0" height="35.3" rx="6" fill="#e8faed" stroke="#cbd5e1" stroke-width="1"/><text x="613.5" y="193.0" text-anchor="middle" font-size="11" font-weight="700" fill="#102a43">+19%</text><rect x="684.0" y="171.3" width="133.0" height="35.3" rx="6" fill="#f8fafc" stroke="#cbd5e1" stroke-width="1"/><text x="750.5" y="193.0" text-anchor="middle" font-size="11" font-weight="700" fill="#102a43">+0%</text><rect x="821.0" y="171.3" width="133.0" height="35.3" rx="6" fill="#fde2e4" stroke="#d64550" stroke-width="1"/><text x="887.5" y="193.0" text-anchor="middle" font-size="11" font-weight="700" fill="#102a43">inf</text><text x="124.0" y="232.3" text-anchor="end" font-size="11" fill="#243b53">gemm-k8</text><rect x="136.0" y="210.7" width="133.0" height="35.3" rx="6" fill="#c3f2cf" stroke="#cbd5e1" stroke-width="1"/><text x="202.5" y="232.3" text-anchor="middle" font-size="11" font-weight="700" fill="#102a43">+50%</text><rect x="273.0" y="210.7" width="133.0" height="35.3" rx="6" fill="#fff9f2" stroke="#cbd5e1" stroke-width="1"/><text x="339.5" y="232.3" text-anchor="middle" font-size="11" font-weight="700" fill="#102a43">-8%</text><rect x="410.0" y="210.7" width="133.0" height="35.3" rx="6" fill="#edfbf0" stroke="#cbd5e1" stroke-width="1"/><text x="476.5" y="232.3" text-anchor="middle" font-size="11" font-weight="700" fill="#102a43">+15%</text><rect x="547.0" y="210.7" width="133.0" height="35.3" rx="6" fill="#cbf3d5" stroke="#cbd5e1" stroke-width="1"/><text x="613.5" y="232.3" text-anchor="middle" font-size="11" font-weight="700" fill="#102a43">+44%</text><rect x="684.0" y="210.7" width="133.0" height="35.3" rx="6" fill="#f8fafc" stroke="#cbd5e1" stroke-width="1"/><text x="750.5" y="232.3" text-anchor="middle" font-size="11" font-weight="700" fill="#102a43">+0%</text><rect x="821.0" y="210.7" width="133.0" height="35.3" rx="6" fill="#edfbf0" stroke="#cbd5e1" stroke-width="1"/><text x="887.5" y="232.3" text-anchor="middle" font-size="11" font-weight="700" fill="#102a43">+15%</text><text x="124.0" y="271.7" text-anchor="end" font-size="11" fill="#243b53">blocked-k8</text><rect x="136.0" y="250.0" width="133.0" height="35.3" rx="6" fill="#d4f5dc" stroke="#cbd5e1" stroke-width="1"/><text x="202.5" y="271.7" text-anchor="middle" font-size="11" font-weight="700" fill="#102a43">+36%</text><rect x="273.0" y="250.0" width="133.0" height="35.3" rx="6" fill="#fff6ec" stroke="#cbd5e1" stroke-width="1"/><text x="339.5" y="271.7" text-anchor="middle" font-size="11" font-weight="700" fill="#102a43">-13%</text><rect x="410.0" y="250.0" width="133.0" height="35.3" rx="6" fill="#e5f9ea" stroke="#cbd5e1" stroke-width="1"/><text x="476.5" y="271.7" text-anchor="middle" font-size="11" font-weight="700" fill="#102a43">+21%</text><rect x="547.0" y="250.0" width="133.0" height="35.3" rx="6" fill="#cbf3d5" stroke="#cbd5e1" stroke-width="1"/><text x="613.5" y="271.7" text-anchor="middle" font-size="11" font-weight="700" fill="#102a43">+44%</text><rect x="684.0" y="250.0" width="133.0" height="35.3" rx="6" fill="#f8fafc" stroke="#cbd5e1" stroke-width="1"/><text x="750.5" y="271.7" text-anchor="middle" font-size="11" font-weight="700" fill="#102a43">+0%</text><rect x="821.0" y="250.0" width="133.0" height="35.3" rx="6" fill="#c3f2cf" stroke="#cbd5e1" stroke-width="1"/><text x="887.5" y="271.7" text-anchor="middle" font-size="11" font-weight="700" fill="#102a43">+50%</text><text x="124.0" y="311.0" text-anchor="end" font-size="11" fill="#243b53">conv3x3</text><rect x="136.0" y="289.3" width="133.0" height="35.3" rx="6" fill="#c3f2cf" stroke="#cbd5e1" stroke-width="1"/><text x="202.5" y="311.0" text-anchor="middle" font-size="11" font-weight="700" fill="#102a43">+50%</text><rect x="273.0" y="289.3" width="133.0" height="35.3" rx="6" fill="#f8fafc" stroke="#cbd5e1" stroke-width="1"/><text x="339.5" y="311.0" text-anchor="middle" font-size="11" font-weight="700" fill="#102a43">+0%</text><rect x="410.0" y="289.3" width="133.0" height="35.3" rx="6" fill="#c3f2cf" stroke="#cbd5e1" stroke-width="1"/><text x="476.5" y="311.0" text-anchor="middle" font-size="11" font-weight="700" fill="#102a43">+50%</text><rect x="547.0" y="289.3" width="133.0" height="35.3" rx="6" fill="#ebfbef" stroke="#cbd5e1" stroke-width="1"/><text x="613.5" y="311.0" text-anchor="middle" font-size="11" font-weight="700" fill="#102a43">+17%</text><rect x="684.0" y="289.3" width="133.0" height="35.3" rx="6" fill="#f8fafc" stroke="#cbd5e1" stroke-width="1"/><text x="750.5" y="311.0" text-anchor="middle" font-size="11" font-weight="700" fill="#102a43">+0%</text><rect x="821.0" y="289.3" width="133.0" height="35.3" rx="6" fill="#c3f2cf" stroke="#cbd5e1" stroke-width="1"/><text x="887.5" y="311.0" text-anchor="middle" font-size="11" font-weight="700" fill="#102a43">+50%</text><text x="124.0" y="350.3" text-anchor="end" font-size="11" fill="#243b53">stencil5</text><rect x="136.0" y="328.7" width="133.0" height="35.3" rx="6" fill="#ccf4d6" stroke="#cbd5e1" stroke-width="1"/><text x="202.5" y="350.3" text-anchor="middle" font-size="11" font-weight="700" fill="#102a43">+43%</text><rect x="273.0" y="328.7" width="133.0" height="35.3" rx="6" fill="#fff6ec" stroke="#cbd5e1" stroke-width="1"/><text x="339.5" y="350.3" text-anchor="middle" font-size="11" font-weight="700" fill="#102a43">-12%</text><rect x="410.0" y="328.7" width="133.0" height="35.3" rx="6" fill="#e5f9ea" stroke="#cbd5e1" stroke-width="1"/><text x="476.5" y="350.3" text-anchor="middle" font-size="11" font-weight="700" fill="#102a43">+21%</text><rect x="547.0" y="328.7" width="133.0" height="35.3" rx="6" fill="#caf3d4" stroke="#cbd5e1" stroke-width="1"/><text x="613.5" y="350.3" text-anchor="middle" font-size="11" font-weight="700" fill="#102a43">+44%</text><rect x="684.0" y="328.7" width="133.0" height="35.3" rx="6" fill="#f8fafc" stroke="#cbd5e1" stroke-width="1"/><text x="750.5" y="350.3" text-anchor="middle" font-size="11" font-weight="700" fill="#102a43">+0%</text><rect x="821.0" y="328.7" width="133.0" height="35.3" rx="6" fill="#c3f2cf" stroke="#cbd5e1" stroke-width="1"/><text x="887.5" y="350.3" text-anchor="middle" font-size="11" font-weight="700" fill="#102a43">+50%</text></svg>