<svg viewBox="0 0 640 360" xmlns="http://www.w3.org/2000/svg" role="img" aria-label="fir8 dsp scaling plot"><text x="320.0" y="22" text-anchor="middle" font-size="16" font-weight="700" fill="#102a43">Bigger FPGA, Faster Datapath?</text><line x1="52" y1="318" x2="618" y2="318" stroke="#9fb3c8" stroke-width="1.2"/><line x1="52" y1="36" x2="52" y2="318" stroke="#9fb3c8" stroke-width="1.2"/><text x="320.0" y="352" text-anchor="middle" font-size="12" fill="#486581">Allowed DSP Budget</text><text x="18" y="177.0" transform="rotate(-90 18 177.0)" text-anchor="middle" font-size="12" fill="#486581">Best Latency</text><line x1="52.0" y1="318" x2="52.0" y2="323" stroke="#9fb3c8" stroke-width="1"/><text x="52.0" y="336" text-anchor="middle" font-size="10" fill="#486581">0</text><line x1="89.7" y1="318" x2="89.7" y2="323" stroke="#9fb3c8" stroke-width="1"/><text x="89.7" y="336" text-anchor="middle" font-size="10" fill="#486581">1</text><line x1="127.5" y1="318" x2="127.5" y2="323" stroke="#9fb3c8" stroke-width="1"/><text x="127.5" y="336" text-anchor="middle" font-size="10" fill="#486581">2</text><line x1="165.2" y1="318" x2="165.2" y2="323" stroke="#9fb3c8" stroke-width="1"/><text x="165.2" y="336" text-anchor="middle" font-size="10" fill="#486581">3</text><line x1="202.9" y1="318" x2="202.9" y2="323" stroke="#9fb3c8" stroke-width="1"/><text x="202.9" y="336" text-anchor="middle" font-size="10" fill="#486581">4</text><line x1="240.7" y1="318" x2="240.7" y2="323" stroke="#9fb3c8" stroke-width="1"/><text x="240.7" y="336" text-anchor="middle" font-size="10" fill="#486581">5</text><line x1="278.4" y1="318" x2="278.4" y2="323" stroke="#9fb3c8" stroke-width="1"/><text x="278.4" y="336" text-anchor="middle" font-size="10" fill="#486581">6</text><line x1="316.1" y1="318" x2="316.1" y2="323" stroke="#9fb3c8" stroke-width="1"/><text x="316.1" y="336" text-anchor="middle" font-size="10" fill="#486581">7</text><line x1="353.9" y1="318" x2="353.9" y2="323" stroke="#9fb3c8" stroke-width="1"/><text x="353.9" y="336" text-anchor="middle" font-size="10" fill="#486581">8</text><line x1="391.6" y1="318" x2="391.6" y2="323" stroke="#9fb3c8" stroke-width="1"/><text x="391.6" y="336" text-anchor="middle" font-size="10" fill="#486581">9</text><line x1="429.3" y1="318" x2="429.3" y2="323" stroke="#9fb3c8" stroke-width="1"/><text x="429.3" y="336" text-anchor="middle" font-size="10" fill="#486581">10</text><line x1="467.1" y1="318" x2="467.1" y2="323" stroke="#9fb3c8" stroke-width="1"/><text x="467.1" y="336" text-anchor="middle" font-size="10" fill="#486581">11</text><line x1="504.8" y1="318" x2="504.8" y2="323" stroke="#9fb3c8" stroke-width="1"/><text x="504.8" y="336" text-anchor="middle" font-size="10" fill="#486581">12</text><line x1="542.5" y1="318" x2="542.5" y2="323" stroke="#9fb3c8" stroke-width="1"/><text x="542.5" y="336" text-anchor="middle" font-size="10" fill="#486581">13</text><line x1="580.3" y1="318" x2="580.3" y2="323" stroke="#9fb3c8" stroke-width="1"/><text x="580.3" y="336" text-anchor="middle" font-size="10" fill="#486581">14</text><line x1="618.0" y1="318" x2="618.0" y2="323" stroke="#9fb3c8" stroke-width="1"/><text x="618.0" y="336" text-anchor="middle" font-size="10" fill="#486581">15</text><line x1="47" y1="318.0" x2="52" y2="318.0" stroke="#9fb3c8" stroke-width="1"/><text x="42" y="322.0" text-anchor="end" font-size="10" fill="#486581">0.0</text><line x1="47" y1="247.5" x2="52" y2="247.5" stroke="#9fb3c8" stroke-width="1"/><text x="42" y="251.5" text-anchor="end" font-size="10" fill="#486581">4.5</text><line x1="47" y1="177.0" x2="52" y2="177.0" stroke="#9fb3c8" stroke-width="1"/><text x="42" y="181.0" text-anchor="end" font-size="10" fill="#486581">9.0</text><line x1="47" y1="106.5" x2="52" y2="106.5" stroke="#9fb3c8" stroke-width="1"/><text x="42" y="110.5" text-anchor="end" font-size="10" fill="#486581">13.5</text><line x1="47" y1="36.0" x2="52" y2="36.0" stroke="#9fb3c8" stroke-width="1"/><text x="42" y="40.0" text-anchor="end" font-size="10" fill="#486581">18.0</text><polyline points="52.0,36.0 89.7,36.0 89.7,67.3 127.5,67.3 127.5,83.0 165.2,83.0 165.2,98.7 202.9,98.7 202.9,114.3 240.7,114.3 240.7,130.0 278.4,130.0 278.4,145.7 316.1,145.7 316.1,145.7 353.9,145.7 353.9,161.3 391.6,161.3 391.6,161.3 429.3,161.3 429.3,177.0 467.1,177.0 467.1,177.0 504.8,177.0 504.8,177.0 542.5,177.0 542.5,177.0 580.3,177.0 580.3,177.0 618.0,177.0 618.0,177.0" fill="none" stroke="#3a86ff" stroke-width="2.5"/><circle cx="52.0" cy="36.0" r="4.5" fill="#3a86ff"/><circle cx="89.7" cy="67.3" r="4.5" fill="#3a86ff"/><circle cx="127.5" cy="83.0" r="4.5" fill="#3a86ff"/><circle cx="165.2" cy="98.7" r="4.5" fill="#3a86ff"/><circle cx="202.9" cy="114.3" r="4.5" fill="#3a86ff"/><circle cx="240.7" cy="130.0" r="4.5" fill="#3a86ff"/><circle cx="278.4" cy="145.7" r="4.5" fill="#3a86ff"/><circle cx="316.1" cy="145.7" r="4.5" fill="#3a86ff"/><circle cx="353.9" cy="161.3" r="4.5" fill="#3a86ff"/><circle cx="391.6" cy="161.3" r="4.5" fill="#3a86ff"/><circle cx="429.3" cy="177.0" r="4.5" fill="#3a86ff"/><circle cx="467.1" cy="177.0" r="4.5" fill="#3a86ff"/><circle cx="504.8" cy="177.0" r="4.5" fill="#3a86ff"/><circle cx="542.5" cy="177.0" r="4.5" fill="#3a86ff"/><circle cx="580.3" cy="177.0" r="4.5" fill="#3a86ff"/><circle cx="618.0" cy="177.0" r="4.5" fill="#3a86ff"/><line x1="52" y1="177.0" x2="618" y2="177.0" stroke="#1d3557" stroke-width="2" stroke-dasharray="5 4"/><text x="614" y="171.0" text-anchor="end" font-size="10" fill="#1d3557">Latency-optimal = 9</text><line x1="353.9" y1="36" x2="353.9" y2="318" stroke="#6c757d" stroke-width="1.5" stroke-dasharray="3 3"/><text x="357.9" y="48.0" font-size="10" fill="#495057">Original DSP count = 8</text></svg>