<svg viewBox="0 0 560 330" xmlns="http://www.w3.org/2000/svg" role="img" aria-label="Weighted Runtime (ms)"><text x="280.0" y="24" text-anchor="middle" font-size="18" font-weight="700" fill="#102a43">Weighted Runtime (ms)</text><line x1="110" y1="54" x2="110" y2="306" stroke="#9fb3c8" stroke-width="1.2"/><line x1="186.0" y1="54" x2="186.0" y2="306" stroke="#e6edf3" stroke-width="1"/><text x="186.0" y="324" text-anchor="middle" font-size="10" fill="#486581">40.4</text><line x1="262.0" y1="54" x2="262.0" y2="306" stroke="#e6edf3" stroke-width="1"/><text x="262.0" y="324" text-anchor="middle" font-size="10" fill="#486581">80.8</text><line x1="338.0" y1="54" x2="338.0" y2="306" stroke="#e6edf3" stroke-width="1"/><text x="338.0" y="324" text-anchor="middle" font-size="10" fill="#486581">121.2</text><line x1="414.0" y1="54" x2="414.0" y2="306" stroke="#e6edf3" stroke-width="1"/><text x="414.0" y="324" text-anchor="middle" font-size="10" fill="#486581">161.6</text><line x1="490.0" y1="54" x2="490.0" y2="306" stroke="#e6edf3" stroke-width="1"/><text x="490.0" y="324" text-anchor="middle" font-size="10" fill="#486581">202.0</text><text x="98" y="66.0" text-anchor="end" font-size="12" fill="#243b53">fir8</text><rect x="110.0" y="54.0" width="376.2" height="16.0" rx="4" fill="#264653"/><text x="494.2" y="66.0" font-size="10" fill="#243b53">Runtime (ms): 200.0</text><text x="98" y="108.0" text-anchor="end" font-size="12" fill="#243b53">dot16</text><rect x="110.0" y="96.0" width="378.1" height="16.0" rx="4" fill="#264653"/><text x="496.1" y="108.0" font-size="10" fill="#243b53">Runtime (ms): 201.0</text><text x="98" y="150.0" text-anchor="end" font-size="12" fill="#243b53">gemm_k8</text><rect x="110.0" y="138.0" width="376.2" height="16.0" rx="4" fill="#264653"/><text x="494.2" y="150.0" font-size="10" fill="#243b53">Runtime (ms): 200.0</text><text x="98" y="192.0" text-anchor="end" font-size="12" fill="#243b53">gemm_blocked_k8</text><rect x="110.0" y="180.0" width="376.2" height="16.0" rx="4" fill="#264653"/><text x="494.2" y="192.0" font-size="10" fill="#243b53">Runtime (ms): 200.0</text><text x="98" y="234.0" text-anchor="end" font-size="12" fill="#243b53">conv3x3</text><rect x="110.0" y="222.0" width="376.2" height="16.0" rx="4" fill="#264653"/><text x="494.2" y="234.0" font-size="10" fill="#243b53">Runtime (ms): 200.0</text><text x="98" y="276.0" text-anchor="end" font-size="12" fill="#243b53">stencil5</text><rect x="110.0" y="264.0" width="380.0" height="16.0" rx="4" fill="#264653"/><text x="498.0" y="276.0" font-size="10" fill="#243b53">Runtime (ms): 202.0</text><rect x="110" y="32" width="12" height="12" rx="2" fill="#264653"/><text x="128" y="42" font-size="12" fill="#243b53">Runtime (ms)</text></svg>