<svg viewBox="0 0 560 762" xmlns="http://www.w3.org/2000/svg" role="img" aria-label="Latency Under Component Budgets"><text x="280.0" y="24" text-anchor="middle" font-size="18" font-weight="700" fill="#102a43">Latency Under Component Budgets</text><line x1="110" y1="54" x2="110" y2="738" stroke="#9fb3c8" stroke-width="1.2"/><line x1="186.0" y1="54" x2="186.0" y2="738" stroke="#e6edf3" stroke-width="1"/><text x="186.0" y="756" text-anchor="middle" font-size="10" fill="#486581">7.2</text><line x1="262.0" y1="54" x2="262.0" y2="738" stroke="#e6edf3" stroke-width="1"/><text x="262.0" y="756" text-anchor="middle" font-size="10" fill="#486581">14.4</text><line x1="338.0" y1="54" x2="338.0" y2="738" stroke="#e6edf3" stroke-width="1"/><text x="338.0" y="756" text-anchor="middle" font-size="10" fill="#486581">21.6</text><line x1="414.0" y1="54" x2="414.0" y2="738" stroke="#e6edf3" stroke-width="1"/><text x="414.0" y="756" text-anchor="middle" font-size="10" fill="#486581">28.8</text><line x1="490.0" y1="54" x2="490.0" y2="738" stroke="#e6edf3" stroke-width="1"/><text x="490.0" y="756" text-anchor="middle" font-size="10" fill="#486581">36.0</text><text x="98" y="102.0" text-anchor="end" font-size="12" fill="#243b53">fir8</text><rect x="110.0" y="54.0" width="190.0" height="16.0" rx="4" fill="#2a9d8f"/><text x="308.0" y="66.0" font-size="10" fill="#243b53">Weighted: 18.0</text><rect x="110.0" y="78.0" width="95.0" height="16.0" rx="4" fill="#c77dff"/><text x="213.0" y="90.0" font-size="10" fill="#243b53">min latency | power cap: 9.0</text><rect x="110.0" y="102.0" width="190.0" height="16.0" rx="4" fill="#e76f51"/><text x="308.0" y="114.0" font-size="10" fill="#243b53">min latency | DSP=0: 18.0</text><rect x="110.0" y="126.0" width="95.0" height="16.0" rx="4" fill="#577590"/><text x="213.0" y="138.0" font-size="10" fill="#243b53">min latency | LUT cap: 9.0</text><text x="98" y="216.0" text-anchor="end" font-size="12" fill="#243b53">dot16</text><rect x="110.0" y="168.0" width="380.0" height="16.0" rx="4" fill="#2a9d8f"/><text x="498.0" y="180.0" font-size="10" fill="#243b53">Weighted: 36.0</text><rect x="110.0" y="192.0" width="380.0" height="16.0" rx="4" fill="#c77dff"/><text x="498.0" y="204.0" font-size="10" fill="#243b53">min latency | power cap: 36.0</text><rect x="110.0" y="216.0" width="380.0" height="16.0" rx="4" fill="#e76f51"/><text x="498.0" y="228.0" font-size="10" fill="#243b53">min latency | DSP=0: 36.0</text><rect x="110.0" y="240.0" width="380.0" height="16.0" rx="4" fill="#577590"/><text x="498.0" y="252.0" font-size="10" fill="#243b53">min latency | LUT cap: 36.0</text><text x="98" y="330.0" text-anchor="end" font-size="12" fill="#243b53">gemm_k8</text><rect x="110.0" y="282.0" width="211.1" height="16.0" rx="4" fill="#2a9d8f"/><text x="329.1" y="294.0" font-size="10" fill="#243b53">Weighted: 20.0</text><rect x="110.0" y="306.0" width="179.4" height="16.0" rx="4" fill="#c77dff"/><text x="297.4" y="318.0" font-size="10" fill="#243b53">min latency | power cap: 17.0</text><rect x="110.0" y="330.0" width="211.1" height="16.0" rx="4" fill="#e76f51"/><text x="329.1" y="342.0" font-size="10" fill="#243b53">min latency | DSP=0: 20.0</text><rect x="110.0" y="354.0" width="179.4" height="16.0" rx="4" fill="#577590"/><text x="297.4" y="366.0" font-size="10" fill="#243b53">min latency | LUT cap: 17.0</text><text x="98" y="444.0" text-anchor="end" font-size="12" fill="#243b53">gemm_blocked_k8</text><rect x="110.0" y="396.0" width="147.8" height="16.0" rx="4" fill="#2a9d8f"/><text x="265.8" y="408.0" font-size="10" fill="#243b53">Weighted: 14.0</text><rect x="110.0" y="420.0" width="116.1" height="16.0" rx="4" fill="#c77dff"/><text x="234.1" y="432.0" font-size="10" fill="#243b53">min latency | power cap: 11.0</text><rect x="110.0" y="444.0" width="147.8" height="16.0" rx="4" fill="#e76f51"/><text x="265.8" y="456.0" font-size="10" fill="#243b53">min latency | DSP=0: 14.0</text><rect x="110.0" y="468.0" width="73.9" height="16.0" rx="4" fill="#577590"/><text x="191.9" y="480.0" font-size="10" fill="#243b53">min latency | LUT cap: 7.0</text><text x="98" y="558.0" text-anchor="end" font-size="12" fill="#243b53">conv3x3</text><rect x="110.0" y="510.0" width="190.0" height="16.0" rx="4" fill="#2a9d8f"/><text x="308.0" y="522.0" font-size="10" fill="#243b53">Weighted: 18.0</text><rect x="110.0" y="534.0" width="95.0" height="16.0" rx="4" fill="#c77dff"/><text x="213.0" y="546.0" font-size="10" fill="#243b53">min latency | power cap: 9.0</text><rect x="110.0" y="558.0" width="190.0" height="16.0" rx="4" fill="#e76f51"/><text x="308.0" y="570.0" font-size="10" fill="#243b53">min latency | DSP=0: 18.0</text><rect x="110.0" y="582.0" width="95.0" height="16.0" rx="4" fill="#577590"/><text x="213.0" y="594.0" font-size="10" fill="#243b53">min latency | LUT cap: 9.0</text><text x="98" y="672.0" text-anchor="end" font-size="12" fill="#243b53">stencil5</text><rect x="110.0" y="624.0" width="147.8" height="16.0" rx="4" fill="#2a9d8f"/><text x="265.8" y="636.0" font-size="10" fill="#243b53">Weighted: 14.0</text><rect x="110.0" y="648.0" width="116.1" height="16.0" rx="4" fill="#c77dff"/><text x="234.1" y="660.0" font-size="10" fill="#243b53">min latency | power cap: 11.0</text><rect x="110.0" y="672.0" width="147.8" height="16.0" rx="4" fill="#e76f51"/><text x="265.8" y="684.0" font-size="10" fill="#243b53">min latency | DSP=0: 14.0</text><rect x="110.0" y="696.0" width="73.9" height="16.0" rx="4" fill="#577590"/><text x="191.9" y="708.0" font-size="10" fill="#243b53">min latency | LUT cap: 7.0</text><rect x="110" y="32" width="12" height="12" rx="2" fill="#2a9d8f"/><text x="128" y="42" font-size="12" fill="#243b53">Weighted</text><rect x="255" y="32" width="12" height="12" rx="2" fill="#c77dff"/><text x="273" y="42" font-size="12" fill="#243b53">min latency | power cap</text><rect x="400" y="32" width="12" height="12" rx="2" fill="#e76f51"/><text x="418" y="42" font-size="12" fill="#243b53">min latency | DSP=0</text><rect x="545" y="32" width="12" height="12" rx="2" fill="#577590"/><text x="563" y="42" font-size="12" fill="#243b53">min latency | LUT cap</text></svg>