<svg viewBox="0 0 560 618" xmlns="http://www.w3.org/2000/svg" role="img" aria-label="Latency Comparison"><text x="280.0" y="24" text-anchor="middle" font-size="18" font-weight="700" fill="#102a43">Latency Comparison</text><line x1="110" y1="54" x2="110" y2="594" stroke="#9fb3c8" stroke-width="1.2"/><line x1="186.0" y1="54" x2="186.0" y2="594" stroke="#e6edf3" stroke-width="1"/><text x="186.0" y="612" text-anchor="middle" font-size="10" fill="#486581">7.2</text><line x1="262.0" y1="54" x2="262.0" y2="594" stroke="#e6edf3" stroke-width="1"/><text x="262.0" y="612" text-anchor="middle" font-size="10" fill="#486581">14.4</text><line x1="338.0" y1="54" x2="338.0" y2="594" stroke="#e6edf3" stroke-width="1"/><text x="338.0" y="612" text-anchor="middle" font-size="10" fill="#486581">21.6</text><line x1="414.0" y1="54" x2="414.0" y2="594" stroke="#e6edf3" stroke-width="1"/><text x="414.0" y="612" text-anchor="middle" font-size="10" fill="#486581">28.8</text><line x1="490.0" y1="54" x2="490.0" y2="594" stroke="#e6edf3" stroke-width="1"/><text x="490.0" y="612" text-anchor="middle" font-size="10" fill="#486581">36.0</text><text x="98" y="90.0" text-anchor="end" font-size="12" fill="#243b53">fir8</text><rect x="110.0" y="54.0" width="179.4" height="16.0" rx="4" fill="#355070"/><text x="297.4" y="66.0" font-size="10" fill="#243b53">Original: 17.0</text><rect x="110.0" y="78.0" width="190.0" height="16.0" rx="4" fill="#2a9d8f"/><text x="308.0" y="90.0" font-size="10" fill="#243b53">Weighted: 18.0</text><rect x="110.0" y="102.0" width="95.0" height="16.0" rx="4" fill="#1d3557"/><text x="213.0" y="114.0" font-size="10" fill="#243b53">Latency-optimal (no budgets): 9.0</text><text x="98" y="180.0" text-anchor="end" font-size="12" fill="#243b53">dot16</text><rect x="110.0" y="144.0" width="348.3" height="16.0" rx="4" fill="#355070"/><text x="466.3" y="156.0" font-size="10" fill="#243b53">Original: 33.0</text><rect x="110.0" y="168.0" width="380.0" height="16.0" rx="4" fill="#2a9d8f"/><text x="498.0" y="180.0" font-size="10" fill="#243b53">Weighted: 36.0</text><rect x="110.0" y="192.0" width="221.7" height="16.0" rx="4" fill="#1d3557"/><text x="339.7" y="204.0" font-size="10" fill="#243b53">Latency-optimal (no budgets): 21.0</text><text x="98" y="270.0" text-anchor="end" font-size="12" fill="#243b53">gemm_k8</text><rect x="110.0" y="234.0" width="179.4" height="16.0" rx="4" fill="#355070"/><text x="297.4" y="246.0" font-size="10" fill="#243b53">Original: 17.0</text><rect x="110.0" y="258.0" width="211.1" height="16.0" rx="4" fill="#2a9d8f"/><text x="329.1" y="270.0" font-size="10" fill="#243b53">Weighted: 20.0</text><rect x="110.0" y="282.0" width="105.6" height="16.0" rx="4" fill="#1d3557"/><text x="223.6" y="294.0" font-size="10" fill="#243b53">Latency-optimal (no budgets): 10.0</text><text x="98" y="360.0" text-anchor="end" font-size="12" fill="#243b53">gemm_blocked_k8</text><rect x="110.0" y="324.0" width="116.1" height="16.0" rx="4" fill="#355070"/><text x="234.1" y="336.0" font-size="10" fill="#243b53">Original: 11.0</text><rect x="110.0" y="348.0" width="147.8" height="16.0" rx="4" fill="#2a9d8f"/><text x="265.8" y="360.0" font-size="10" fill="#243b53">Weighted: 14.0</text><rect x="110.0" y="372.0" width="73.9" height="16.0" rx="4" fill="#1d3557"/><text x="191.9" y="384.0" font-size="10" fill="#243b53">Latency-optimal (no budgets): 7.0</text><text x="98" y="450.0" text-anchor="end" font-size="12" fill="#243b53">conv3x3</text><rect x="110.0" y="414.0" width="200.6" height="16.0" rx="4" fill="#355070"/><text x="318.6" y="426.0" font-size="10" fill="#243b53">Original: 19.0</text><rect x="110.0" y="438.0" width="190.0" height="16.0" rx="4" fill="#2a9d8f"/><text x="308.0" y="450.0" font-size="10" fill="#243b53">Weighted: 18.0</text><rect x="110.0" y="462.0" width="95.0" height="16.0" rx="4" fill="#1d3557"/><text x="213.0" y="474.0" font-size="10" fill="#243b53">Latency-optimal (no budgets): 9.0</text><text x="98" y="540.0" text-anchor="end" font-size="12" fill="#243b53">stencil5</text><rect x="110.0" y="504.0" width="116.1" height="16.0" rx="4" fill="#355070"/><text x="234.1" y="516.0" font-size="10" fill="#243b53">Original: 11.0</text><rect x="110.0" y="528.0" width="147.8" height="16.0" rx="4" fill="#2a9d8f"/><text x="265.8" y="540.0" font-size="10" fill="#243b53">Weighted: 14.0</text><rect x="110.0" y="552.0" width="73.9" height="16.0" rx="4" fill="#1d3557"/><text x="191.9" y="564.0" font-size="10" fill="#243b53">Latency-optimal (no budgets): 7.0</text><rect x="110" y="32" width="12" height="12" rx="2" fill="#355070"/><text x="128" y="42" font-size="12" fill="#243b53">Original</text><rect x="255" y="32" width="12" height="12" rx="2" fill="#2a9d8f"/><text x="273" y="42" font-size="12" fill="#243b53">Weighted</text><rect x="400" y="32" width="12" height="12" rx="2" fill="#1d3557"/><text x="418" y="42" font-size="12" fill="#243b53">Latency-optimal (no budgets)</text></svg>