<svg viewBox="0 0 560 618" xmlns="http://www.w3.org/2000/svg" role="img" aria-label="Power Comparison"><text x="280.0" y="24" text-anchor="middle" font-size="18" font-weight="700" fill="#102a43">Power Comparison</text><line x1="110" y1="54" x2="110" y2="594" stroke="#9fb3c8" stroke-width="1.2"/><line x1="186.0" y1="54" x2="186.0" y2="594" stroke="#e6edf3" stroke-width="1"/><text x="186.0" y="612" text-anchor="middle" font-size="10" fill="#486581">22.2</text><line x1="262.0" y1="54" x2="262.0" y2="594" stroke="#e6edf3" stroke-width="1"/><text x="262.0" y="612" text-anchor="middle" font-size="10" fill="#486581">44.4</text><line x1="338.0" y1="54" x2="338.0" y2="594" stroke="#e6edf3" stroke-width="1"/><text x="338.0" y="612" text-anchor="middle" font-size="10" fill="#486581">66.6</text><line x1="414.0" y1="54" x2="414.0" y2="594" stroke="#e6edf3" stroke-width="1"/><text x="414.0" y="612" text-anchor="middle" font-size="10" fill="#486581">88.8</text><line x1="490.0" y1="54" x2="490.0" y2="594" stroke="#e6edf3" stroke-width="1"/><text x="490.0" y="612" text-anchor="middle" font-size="10" fill="#486581">111.0</text><text x="98" y="90.0" text-anchor="end" font-size="12" fill="#243b53">fir8</text><rect x="110.0" y="54.0" width="106.1" height="16.0" rx="4" fill="#355070"/><text x="224.1" y="66.0" font-size="10" fill="#243b53">Original: 31.0</text><rect x="110.0" y="78.0" width="113.0" height="16.0" rx="4" fill="#2a9d8f"/><text x="231.0" y="90.0" font-size="10" fill="#243b53">Weighted: 33.0</text><rect x="110.0" y="102.0" width="71.9" height="16.0" rx="4" fill="#7b2cbf"/><text x="189.9" y="114.0" font-size="10" fill="#243b53">Power-optimal (no budgets): 21.0</text><text x="98" y="180.0" text-anchor="end" font-size="12" fill="#243b53">dot16</text><rect x="110.0" y="144.0" width="215.7" height="16.0" rx="4" fill="#355070"/><text x="333.7" y="156.0" font-size="10" fill="#243b53">Original: 63.0</text><rect x="110.0" y="168.0" width="380.0" height="16.0" rx="4" fill="#2a9d8f"/><text x="498.0" y="180.0" font-size="10" fill="#243b53">Weighted: 111.0</text><rect x="110.0" y="192.0" width="308.1" height="16.0" rx="4" fill="#7b2cbf"/><text x="426.1" y="204.0" font-size="10" fill="#243b53">Power-optimal (no budgets): 90.0</text><text x="98" y="270.0" text-anchor="end" font-size="12" fill="#243b53">gemm_k8</text><rect x="110.0" y="234.0" width="106.1" height="16.0" rx="4" fill="#355070"/><text x="224.1" y="246.0" font-size="10" fill="#243b53">Original: 31.0</text><rect x="110.0" y="258.0" width="188.3" height="16.0" rx="4" fill="#2a9d8f"/><text x="306.3" y="270.0" font-size="10" fill="#243b53">Weighted: 55.0</text><rect x="110.0" y="282.0" width="106.1" height="16.0" rx="4" fill="#7b2cbf"/><text x="224.1" y="294.0" font-size="10" fill="#243b53">Power-optimal (no budgets): 31.0</text><text x="98" y="360.0" text-anchor="end" font-size="12" fill="#243b53">gemm_blocked_k8</text><rect x="110.0" y="324.0" width="106.1" height="16.0" rx="4" fill="#355070"/><text x="224.1" y="336.0" font-size="10" fill="#243b53">Original: 31.0</text><rect x="110.0" y="348.0" width="188.3" height="16.0" rx="4" fill="#2a9d8f"/><text x="306.3" y="360.0" font-size="10" fill="#243b53">Weighted: 55.0</text><rect x="110.0" y="372.0" width="106.1" height="16.0" rx="4" fill="#7b2cbf"/><text x="224.1" y="384.0" font-size="10" fill="#243b53">Power-optimal (no budgets): 31.0</text><text x="98" y="450.0" text-anchor="end" font-size="12" fill="#243b53">conv3x3</text><rect x="110.0" y="414.0" width="119.8" height="16.0" rx="4" fill="#355070"/><text x="237.8" y="426.0" font-size="10" fill="#243b53">Original: 35.0</text><rect x="110.0" y="438.0" width="61.6" height="16.0" rx="4" fill="#2a9d8f"/><text x="179.6" y="450.0" font-size="10" fill="#243b53">Weighted: 18.0</text><rect x="110.0" y="462.0" width="51.4" height="16.0" rx="4" fill="#7b2cbf"/><text x="169.4" y="474.0" font-size="10" fill="#243b53">Power-optimal (no budgets): 15.0</text><text x="98" y="540.0" text-anchor="end" font-size="12" fill="#243b53">stencil5</text><rect x="110.0" y="504.0" width="65.0" height="16.0" rx="4" fill="#355070"/><text x="183.0" y="516.0" font-size="10" fill="#243b53">Original: 19.0</text><rect x="110.0" y="528.0" width="116.4" height="16.0" rx="4" fill="#2a9d8f"/><text x="234.4" y="540.0" font-size="10" fill="#243b53">Weighted: 34.0</text><rect x="110.0" y="552.0" width="65.0" height="16.0" rx="4" fill="#7b2cbf"/><text x="183.0" y="564.0" font-size="10" fill="#243b53">Power-optimal (no budgets): 19.0</text><rect x="110" y="32" width="12" height="12" rx="2" fill="#355070"/><text x="128" y="42" font-size="12" fill="#243b53">Original</text><rect x="255" y="32" width="12" height="12" rx="2" fill="#2a9d8f"/><text x="273" y="42" font-size="12" fill="#243b53">Weighted</text><rect x="400" y="32" width="12" height="12" rx="2" fill="#7b2cbf"/><text x="418" y="42" font-size="12" fill="#243b53">Power-optimal (no budgets)</text></svg>