<svg viewBox="0 0 560 762" xmlns="http://www.w3.org/2000/svg" role="img" aria-label="Weighted Metric Change vs Original (%)"><text x="280.0" y="24" text-anchor="middle" font-size="18" font-weight="700" fill="#102a43">Weighted Metric Change vs Original (%)</text><line x1="300.0" y1="54" x2="300.0" y2="738" stroke="#9fb3c8" stroke-width="1.2"/><line x1="110.0" y1="54" x2="110.0" y2="738" stroke="#e6edf3" stroke-width="1"/><text x="110.0" y="756" text-anchor="middle" font-size="10" fill="#486581">-100.0</text><line x1="205.0" y1="54" x2="205.0" y2="738" stroke="#e6edf3" stroke-width="1"/><text x="205.0" y="756" text-anchor="middle" font-size="10" fill="#486581">-50.0</text><line x1="300.0" y1="54" x2="300.0" y2="738" stroke="#e6edf3" stroke-width="1"/><text x="300.0" y="756" text-anchor="middle" font-size="10" fill="#486581">0.0</text><line x1="395.0" y1="54" x2="395.0" y2="738" stroke="#e6edf3" stroke-width="1"/><text x="395.0" y="756" text-anchor="middle" font-size="10" fill="#486581">50.0</text><line x1="490.0" y1="54" x2="490.0" y2="738" stroke="#e6edf3" stroke-width="1"/><text x="490.0" y="756" text-anchor="middle" font-size="10" fill="#486581">100.0</text><text x="98" y="102.0" text-anchor="end" font-size="12" fill="#243b53">fir8</text><rect x="300.0" y="54.0" width="103.6" height="16.0" rx="4" fill="#2a9d8f"/><text x="411.6" y="66.0" text-anchor="start" font-size="10" fill="#243b53">Area reduction: 54.5</text><rect x="288.8" y="78.0" width="11.2" height="16.0" rx="4" fill="#457b9d"/><text x="280.8" y="90.0" text-anchor="end" font-size="10" fill="#243b53">Latency change: -5.9</text><rect x="300.0" y="102.0" width="190.0" height="16.0" rx="4" fill="#e76f51"/><text x="498.0" y="114.0" text-anchor="start" font-size="10" fill="#243b53">DSP reduction: 100.0</text><rect x="287.7" y="126.0" width="12.3" height="16.0" rx="4" fill="#7b2cbf"/><text x="279.7" y="138.0" text-anchor="end" font-size="10" fill="#243b53">Power reduction: -6.5</text><text x="98" y="216.0" text-anchor="end" font-size="12" fill="#243b53">dot16</text><rect x="300.0" y="168.0" width="54.8" height="16.0" rx="4" fill="#2a9d8f"/><text x="362.8" y="180.0" text-anchor="start" font-size="10" fill="#243b53">Area reduction: 28.8</text><rect x="282.7" y="192.0" width="17.3" height="16.0" rx="4" fill="#457b9d"/><text x="274.7" y="204.0" text-anchor="end" font-size="10" fill="#243b53">Latency change: -9.1</text><rect x="300.0" y="216.0" width="190.0" height="16.0" rx="4" fill="#e76f51"/><text x="498.0" y="228.0" text-anchor="start" font-size="10" fill="#243b53">DSP reduction: 100.0</text><rect x="155.2" y="240.0" width="144.8" height="16.0" rx="4" fill="#7b2cbf"/><text x="147.2" y="252.0" text-anchor="end" font-size="10" fill="#243b53">Power reduction: -76.2</text><text x="98" y="330.0" text-anchor="end" font-size="12" fill="#243b53">gemm_k8</text><rect x="300.0" y="282.0" width="55.3" height="16.0" rx="4" fill="#2a9d8f"/><text x="363.3" y="294.0" text-anchor="start" font-size="10" fill="#243b53">Area reduction: 29.1</text><rect x="266.5" y="306.0" width="33.5" height="16.0" rx="4" fill="#457b9d"/><text x="258.5" y="318.0" text-anchor="end" font-size="10" fill="#243b53">Latency change: -17.6</text><rect x="300.0" y="330.0" width="190.0" height="16.0" rx="4" fill="#e76f51"/><text x="498.0" y="342.0" text-anchor="start" font-size="10" fill="#243b53">DSP reduction: 100.0</text><rect x="152.9" y="354.0" width="147.1" height="16.0" rx="4" fill="#7b2cbf"/><text x="144.9" y="366.0" text-anchor="end" font-size="10" fill="#243b53">Power reduction: -77.4</text><text x="98" y="444.0" text-anchor="end" font-size="12" fill="#243b53">gemm_blocked_k8</text><rect x="300.0" y="396.0" width="55.3" height="16.0" rx="4" fill="#2a9d8f"/><text x="363.3" y="408.0" text-anchor="start" font-size="10" fill="#243b53">Area reduction: 29.1</text><rect x="248.2" y="420.0" width="51.8" height="16.0" rx="4" fill="#457b9d"/><text x="240.2" y="432.0" text-anchor="end" font-size="10" fill="#243b53">Latency change: -27.3</text><rect x="300.0" y="444.0" width="190.0" height="16.0" rx="4" fill="#e76f51"/><text x="498.0" y="456.0" text-anchor="start" font-size="10" fill="#243b53">DSP reduction: 100.0</text><rect x="152.9" y="468.0" width="147.1" height="16.0" rx="4" fill="#7b2cbf"/><text x="144.9" y="480.0" text-anchor="end" font-size="10" fill="#243b53">Power reduction: -77.4</text><text x="98" y="558.0" text-anchor="end" font-size="12" fill="#243b53">conv3x3</text><rect x="300.0" y="510.0" width="141.0" height="16.0" rx="4" fill="#2a9d8f"/><text x="449.0" y="522.0" text-anchor="start" font-size="10" fill="#243b53">Area reduction: 74.2</text><rect x="300.0" y="534.0" width="10.0" height="16.0" rx="4" fill="#457b9d"/><text x="318.0" y="546.0" text-anchor="start" font-size="10" fill="#243b53">Latency change: 5.3</text><rect x="300.0" y="558.0" width="190.0" height="16.0" rx="4" fill="#e76f51"/><text x="498.0" y="570.0" text-anchor="start" font-size="10" fill="#243b53">DSP reduction: 100.0</text><rect x="300.0" y="582.0" width="92.3" height="16.0" rx="4" fill="#7b2cbf"/><text x="400.3" y="594.0" text-anchor="start" font-size="10" fill="#243b53">Power reduction: 48.6</text><text x="98" y="672.0" text-anchor="end" font-size="12" fill="#243b53">stencil5</text><rect x="300.0" y="624.0" width="55.9" height="16.0" rx="4" fill="#2a9d8f"/><text x="363.9" y="636.0" text-anchor="start" font-size="10" fill="#243b53">Area reduction: 29.4</text><rect x="248.2" y="648.0" width="51.8" height="16.0" rx="4" fill="#457b9d"/><text x="240.2" y="660.0" text-anchor="end" font-size="10" fill="#243b53">Latency change: -27.3</text><rect x="300.0" y="672.0" width="190.0" height="16.0" rx="4" fill="#e76f51"/><text x="498.0" y="684.0" text-anchor="start" font-size="10" fill="#243b53">DSP reduction: 100.0</text><rect x="150.0" y="696.0" width="150.0" height="16.0" rx="4" fill="#7b2cbf"/><text x="142.0" y="708.0" text-anchor="end" font-size="10" fill="#243b53">Power reduction: -78.9</text><rect x="110" y="32" width="12" height="12" rx="2" fill="#2a9d8f"/><text x="128" y="42" font-size="12" fill="#243b53">Area reduction</text><rect x="255" y="32" width="12" height="12" rx="2" fill="#457b9d"/><text x="273" y="42" font-size="12" fill="#243b53">Latency change</text><rect x="400" y="32" width="12" height="12" rx="2" fill="#e76f51"/><text x="418" y="42" font-size="12" fill="#243b53">DSP reduction</text><rect x="545" y="32" width="12" height="12" rx="2" fill="#7b2cbf"/><text x="563" y="42" font-size="12" fill="#243b53">Power reduction</text></svg>