<svg viewBox="0 0 560 474" xmlns="http://www.w3.org/2000/svg" role="img" aria-label="Area Comparison"><text x="280.0" y="24" text-anchor="middle" font-size="18" font-weight="700" fill="#102a43">Area Comparison</text><line x1="110" y1="54" x2="110" y2="450" stroke="#9fb3c8" stroke-width="1.2"/><line x1="186.0" y1="54" x2="186.0" y2="450" stroke="#e6edf3" stroke-width="1"/><text x="186.0" y="468" text-anchor="middle" font-size="10" fill="#486581">22.2</text><line x1="262.0" y1="54" x2="262.0" y2="450" stroke="#e6edf3" stroke-width="1"/><text x="262.0" y="468" text-anchor="middle" font-size="10" fill="#486581">44.4</text><line x1="338.0" y1="54" x2="338.0" y2="450" stroke="#e6edf3" stroke-width="1"/><text x="338.0" y="468" text-anchor="middle" font-size="10" fill="#486581">66.6</text><line x1="414.0" y1="54" x2="414.0" y2="450" stroke="#e6edf3" stroke-width="1"/><text x="414.0" y="468" text-anchor="middle" font-size="10" fill="#486581">88.8</text><line x1="490.0" y1="54" x2="490.0" y2="450" stroke="#e6edf3" stroke-width="1"/><text x="490.0" y="468" text-anchor="middle" font-size="10" fill="#486581">111.0</text><text x="98" y="78.0" text-anchor="end" font-size="12" fill="#243b53">fir8</text><rect x="110.0" y="54.0" width="188.3" height="16.0" rx="4" fill="#355070"/><text x="306.3" y="66.0" font-size="10" fill="#243b53">Original: 55.0</text><rect x="110.0" y="78.0" width="85.6" height="16.0" rx="4" fill="#2a9d8f"/><text x="203.6" y="90.0" font-size="10" fill="#243b53">Weighted: 25.0</text><text x="98" y="144.0" text-anchor="end" font-size="12" fill="#243b53">dot16</text><rect x="110.0" y="120.0" width="380.0" height="16.0" rx="4" fill="#355070"/><text x="498.0" y="132.0" font-size="10" fill="#243b53">Original: 111.0</text><rect x="110.0" y="144.0" width="270.5" height="16.0" rx="4" fill="#2a9d8f"/><text x="388.5" y="156.0" font-size="10" fill="#243b53">Weighted: 79.0</text><text x="98" y="210.0" text-anchor="end" font-size="12" fill="#243b53">gemm_k8</text><rect x="110.0" y="186.0" width="188.3" height="16.0" rx="4" fill="#355070"/><text x="306.3" y="198.0" font-size="10" fill="#243b53">Original: 55.0</text><rect x="110.0" y="210.0" width="133.5" height="16.0" rx="4" fill="#2a9d8f"/><text x="251.5" y="222.0" font-size="10" fill="#243b53">Weighted: 39.0</text><text x="98" y="276.0" text-anchor="end" font-size="12" fill="#243b53">gemm_blocked_k8</text><rect x="110.0" y="252.0" width="188.3" height="16.0" rx="4" fill="#355070"/><text x="306.3" y="264.0" font-size="10" fill="#243b53">Original: 55.0</text><rect x="110.0" y="276.0" width="133.5" height="16.0" rx="4" fill="#2a9d8f"/><text x="251.5" y="288.0" font-size="10" fill="#243b53">Weighted: 39.0</text><text x="98" y="342.0" text-anchor="end" font-size="12" fill="#243b53">conv3x3</text><rect x="110.0" y="318.0" width="212.3" height="16.0" rx="4" fill="#355070"/><text x="330.3" y="330.0" font-size="10" fill="#243b53">Original: 62.0</text><rect x="110.0" y="342.0" width="54.8" height="16.0" rx="4" fill="#2a9d8f"/><text x="172.8" y="354.0" font-size="10" fill="#243b53">Weighted: 16.0</text><text x="98" y="408.0" text-anchor="end" font-size="12" fill="#243b53">stencil5</text><rect x="110.0" y="384.0" width="116.4" height="16.0" rx="4" fill="#355070"/><text x="234.4" y="396.0" font-size="10" fill="#243b53">Original: 34.0</text><rect x="110.0" y="408.0" width="82.2" height="16.0" rx="4" fill="#2a9d8f"/><text x="200.2" y="420.0" font-size="10" fill="#243b53">Weighted: 24.0</text><rect x="110" y="32" width="12" height="12" rx="2" fill="#355070"/><text x="128" y="42" font-size="12" fill="#243b53">Original</text><rect x="255" y="32" width="12" height="12" rx="2" fill="#2a9d8f"/><text x="273" y="42" font-size="12" fill="#243b53">Weighted</text></svg>