<svg viewBox="0 0 1080 620" xmlns="http://www.w3.org/2000/svg" role="img" aria-label="Synthetic size sweep scaling plot"><text x="540.0" y="24" text-anchor="middle" font-size="18" font-weight="700" fill="#102a43">Synthetic Size Sweeps: Phase Timing Breakdown</text><text x="540.0" y="44" text-anchor="middle" font-size="12" fill="#486581">FIR-4/8/16/32 and dot-product-8/16/32/64. Shared phases are benchmark preparation; selection uses the min latency | area cap query.</text><line x1="466.0" y1="68" x2="490.0" y2="68" stroke="#355070" stroke-width="3"/><text x="498.0" y="72" font-size="12" fill="#243b53">FIR</text><line x1="554.0" y1="68" x2="578.0" y2="68" stroke="#bc4749" stroke-width="3"/><text x="586.0" y="72" font-size="12" fill="#243b53">DOT</text><text x="308.5" y="86.0" text-anchor="middle" font-size="13" font-weight="700" fill="#102a43">Equality Saturation Time</text><line x1="74.0" y1="305.0" x2="543.0" y2="305.0" stroke="#9fb3c8" stroke-width="1.2"/><line x1="74.0" y1="104.0" x2="74.0" y2="305.0" stroke="#9fb3c8" stroke-width="1.2"/><text x="308.5" y="333.0" text-anchor="middle" font-size="12" fill="#486581">Arithmetic op count (mul + add)</text><text x="30.0" y="204.5" transform="rotate(-90 30.0 204.5)" text-anchor="middle" font-size="11" fill="#486581">Time (ms)</text><line x1="74.0" y1="104" x2="74.0" y2="305.0" stroke="#e6edf3" stroke-width="1"/><text x="74.0" y="323.0" text-anchor="middle" font-size="10" fill="#486581">7</text><line x1="105.3" y1="104" x2="105.3" y2="305.0" stroke="#e6edf3" stroke-width="1"/><text x="105.3" y="323.0" text-anchor="middle" font-size="10" fill="#486581">15</text><line x1="167.8" y1="104" x2="167.8" y2="305.0" stroke="#e6edf3" stroke-width="1"/><text x="167.8" y="323.0" text-anchor="middle" font-size="10" fill="#486581">31</text><line x1="292.9" y1="104" x2="292.9" y2="305.0" stroke="#e6edf3" stroke-width="1"/><text x="292.9" y="323.0" text-anchor="middle" font-size="10" fill="#486581">63</text><line x1="543.0" y1="104" x2="543.0" y2="305.0" stroke="#e6edf3" stroke-width="1"/><text x="543.0" y="323.0" text-anchor="middle" font-size="10" fill="#486581">127</text><line x1="74.0" y1="305.0" x2="543.0" y2="305.0" stroke="#e6edf3" stroke-width="1"/><text x="66.0" y="309.0" text-anchor="end" font-size="10" fill="#486581">200.3</text><line x1="74.0" y1="254.8" x2="543.0" y2="254.8" stroke="#e6edf3" stroke-width="1"/><text x="66.0" y="258.8" text-anchor="end" font-size="10" fill="#486581">201.3</text><line x1="74.0" y1="204.5" x2="543.0" y2="204.5" stroke="#e6edf3" stroke-width="1"/><text x="66.0" y="208.5" text-anchor="end" font-size="10" fill="#486581">202.2</text><line x1="74.0" y1="154.2" x2="543.0" y2="154.2" stroke="#e6edf3" stroke-width="1"/><text x="66.0" y="158.2" text-anchor="end" font-size="10" fill="#486581">203.1</text><line x1="74.0" y1="104.0" x2="543.0" y2="104.0" stroke="#e6edf3" stroke-width="1"/><text x="66.0" y="108.0" text-anchor="end" font-size="10" fill="#486581">204.1</text><polyline points="74.0,251.1 105.3,267.0 167.8,244.9 292.9,216.5" fill="none" stroke="#355070" stroke-width="2.6" stroke-linecap="round"/><circle cx="74.0" cy="251.1" r="4" fill="#355070"/><text x="80.0" y="245.1" font-size="9" fill="#243b53">4</text><circle cx="105.3" cy="267.0" r="4" fill="#355070"/><text x="111.3" y="261.0" font-size="9" fill="#243b53">8</text><circle cx="167.8" cy="244.9" r="4" fill="#355070"/><text x="173.8" y="238.9" font-size="9" fill="#243b53">16</text><circle cx="292.9" cy="216.5" r="4" fill="#355070"/><text x="298.9" y="210.5" font-size="9" fill="#243b53">32</text><polyline points="105.3,276.3 167.8,258.8 292.9,217.7 543.0,132.7" fill="none" stroke="#bc4749" stroke-width="2.6" stroke-linecap="round"/><circle cx="105.3" cy="276.3" r="4" fill="#bc4749"/><text x="111.3" y="270.3" font-size="9" fill="#243b53">8</text><circle cx="167.8" cy="258.8" r="4" fill="#bc4749"/><text x="173.8" y="252.8" font-size="9" fill="#243b53">16</text><circle cx="292.9" cy="217.7" r="4" fill="#bc4749"/><text x="298.9" y="211.7" font-size="9" fill="#243b53">32</text><circle cx="543.0" cy="132.7" r="4" fill="#bc4749"/><text x="549.0" y="126.7" font-size="9" fill="#243b53">64</text><text x="815.5" y="86.0" text-anchor="middle" font-size="13" font-weight="700" fill="#102a43">Frontier Extraction Time</text><line x1="581.0" y1="305.0" x2="1050.0" y2="305.0" stroke="#9fb3c8" stroke-width="1.2"/><line x1="581.0" y1="104.0" x2="581.0" y2="305.0" stroke="#9fb3c8" stroke-width="1.2"/><text x="815.5" y="333.0" text-anchor="middle" font-size="12" fill="#486581">Arithmetic op count (mul + add)</text><text x="537.0" y="204.5" transform="rotate(-90 537.0 204.5)" text-anchor="middle" font-size="11" fill="#486581">Time (ms)</text><line x1="581.0" y1="104" x2="581.0" y2="305.0" stroke="#e6edf3" stroke-width="1"/><text x="581.0" y="323.0" text-anchor="middle" font-size="10" fill="#486581">7</text><line x1="612.3" y1="104" x2="612.3" y2="305.0" stroke="#e6edf3" stroke-width="1"/><text x="612.3" y="323.0" text-anchor="middle" font-size="10" fill="#486581">15</text><line x1="674.8" y1="104" x2="674.8" y2="305.0" stroke="#e6edf3" stroke-width="1"/><text x="674.8" y="323.0" text-anchor="middle" font-size="10" fill="#486581">31</text><line x1="799.9" y1="104" x2="799.9" y2="305.0" stroke="#e6edf3" stroke-width="1"/><text x="799.9" y="323.0" text-anchor="middle" font-size="10" fill="#486581">63</text><line x1="1050.0" y1="104" x2="1050.0" y2="305.0" stroke="#e6edf3" stroke-width="1"/><text x="1050.0" y="323.0" text-anchor="middle" font-size="10" fill="#486581">127</text><line x1="581.0" y1="305.0" x2="1050.0" y2="305.0" stroke="#e6edf3" stroke-width="1"/><text x="573.0" y="309.0" text-anchor="end" font-size="10" fill="#486581">0.0</text><line x1="581.0" y1="254.8" x2="1050.0" y2="254.8" stroke="#e6edf3" stroke-width="1"/><text x="573.0" y="258.8" text-anchor="end" font-size="10" fill="#486581">1157.3</text><line x1="581.0" y1="204.5" x2="1050.0" y2="204.5" stroke="#e6edf3" stroke-width="1"/><text x="573.0" y="208.5" text-anchor="end" font-size="10" fill="#486581">2314.6</text><line x1="581.0" y1="154.2" x2="1050.0" y2="154.2" stroke="#e6edf3" stroke-width="1"/><text x="573.0" y="158.2" text-anchor="end" font-size="10" fill="#486581">3471.8</text><line x1="581.0" y1="104.0" x2="1050.0" y2="104.0" stroke="#e6edf3" stroke-width="1"/><text x="573.0" y="108.0" text-anchor="end" font-size="10" fill="#486581">4629.1</text><polyline points="581.0,305.0 612.3,302.4 674.8,237.4 799.9,158.7" fill="none" stroke="#355070" stroke-width="2.6" stroke-linecap="round"/><circle cx="581.0" cy="305.0" r="4" fill="#355070"/><text x="587.0" y="299.0" font-size="9" fill="#243b53">4</text><circle cx="612.3" cy="302.4" r="4" fill="#355070"/><text x="618.3" y="296.4" font-size="9" fill="#243b53">8</text><circle cx="674.8" cy="237.4" r="4" fill="#355070"/><text x="680.8" y="231.4" font-size="9" fill="#243b53">16</text><circle cx="799.9" cy="158.7" r="4" fill="#355070"/><text x="805.9" y="152.7" font-size="9" fill="#243b53">32</text><polyline points="612.3,297.6 674.8,234.1 799.9,137.5 1050.0,203.4" fill="none" stroke="#bc4749" stroke-width="2.6" stroke-linecap="round"/><circle cx="612.3" cy="297.6" r="4" fill="#bc4749"/><text x="618.3" y="291.6" font-size="9" fill="#243b53">8</text><circle cx="674.8" cy="234.1" r="4" fill="#bc4749"/><text x="680.8" y="228.1" font-size="9" fill="#243b53">16</text><circle cx="799.9" cy="137.5" r="4" fill="#bc4749"/><text x="805.9" y="131.5" font-size="9" fill="#243b53">32</text><circle cx="1050.0" cy="203.4" r="4" fill="#bc4749"/><text x="1056.0" y="197.4" font-size="9" fill="#243b53">64</text><text x="308.5" y="345.0" text-anchor="middle" font-size="13" font-weight="700" fill="#102a43">Constrained Selection Time</text><line x1="74.0" y1="564.0" x2="543.0" y2="564.0" stroke="#9fb3c8" stroke-width="1.2"/><line x1="74.0" y1="363.0" x2="74.0" y2="564.0" stroke="#9fb3c8" stroke-width="1.2"/><text x="308.5" y="592.0" text-anchor="middle" font-size="12" fill="#486581">Arithmetic op count (mul + add)</text><text x="30.0" y="463.5" transform="rotate(-90 30.0 463.5)" text-anchor="middle" font-size="11" fill="#486581">Time (ms)</text><line x1="74.0" y1="363.0" x2="74.0" y2="564.0" stroke="#e6edf3" stroke-width="1"/><text x="74.0" y="582.0" text-anchor="middle" font-size="10" fill="#486581">7</text><line x1="105.3" y1="363.0" x2="105.3" y2="564.0" stroke="#e6edf3" stroke-width="1"/><text x="105.3" y="582.0" text-anchor="middle" font-size="10" fill="#486581">15</text><line x1="167.8" y1="363.0" x2="167.8" y2="564.0" stroke="#e6edf3" stroke-width="1"/><text x="167.8" y="582.0" text-anchor="middle" font-size="10" fill="#486581">31</text><line x1="292.9" y1="363.0" x2="292.9" y2="564.0" stroke="#e6edf3" stroke-width="1"/><text x="292.9" y="582.0" text-anchor="middle" font-size="10" fill="#486581">63</text><line x1="543.0" y1="363.0" x2="543.0" y2="564.0" stroke="#e6edf3" stroke-width="1"/><text x="543.0" y="582.0" text-anchor="middle" font-size="10" fill="#486581">127</text><line x1="74.0" y1="564.0" x2="543.0" y2="564.0" stroke="#e6edf3" stroke-width="1"/><text x="66.0" y="568.0" text-anchor="end" font-size="10" fill="#486581">0.0</text><line x1="74.0" y1="513.8" x2="543.0" y2="513.8" stroke="#e6edf3" stroke-width="1"/><text x="66.0" y="517.8" text-anchor="end" font-size="10" fill="#486581">0.0</text><line x1="74.0" y1="463.5" x2="543.0" y2="463.5" stroke="#e6edf3" stroke-width="1"/><text x="66.0" y="467.5" text-anchor="end" font-size="10" fill="#486581">0.0</text><line x1="74.0" y1="413.2" x2="543.0" y2="413.2" stroke="#e6edf3" stroke-width="1"/><text x="66.0" y="417.2" text-anchor="end" font-size="10" fill="#486581">0.1</text><line x1="74.0" y1="363.0" x2="543.0" y2="363.0" stroke="#e6edf3" stroke-width="1"/><text x="66.0" y="367.0" text-anchor="end" font-size="10" fill="#486581">0.1</text><polyline points="74.0,550.4 105.3,475.9 167.8,536.9 292.9,564.0" fill="none" stroke="#355070" stroke-width="2.6" stroke-linecap="round"/><circle cx="74.0" cy="550.4" r="4" fill="#355070"/><text x="80.0" y="544.4" font-size="9" fill="#243b53">4</text><circle cx="105.3" cy="475.9" r="4" fill="#355070"/><text x="111.3" y="469.9" font-size="9" fill="#243b53">8</text><circle cx="167.8" cy="536.9" r="4" fill="#355070"/><text x="173.8" y="530.9" font-size="9" fill="#243b53">16</text><circle cx="292.9" cy="564.0" r="4" fill="#355070"/><text x="298.9" y="558.0" font-size="9" fill="#243b53">32</text><polyline points="105.3,505.3 167.8,536.9 292.9,564.0 543.0,561.7" fill="none" stroke="#bc4749" stroke-width="2.6" stroke-linecap="round"/><circle cx="105.3" cy="505.3" r="4" fill="#bc4749"/><text x="111.3" y="499.3" font-size="9" fill="#243b53">8</text><circle cx="167.8" cy="536.9" r="4" fill="#bc4749"/><text x="173.8" y="530.9" font-size="9" fill="#243b53">16</text><circle cx="292.9" cy="564.0" r="4" fill="#bc4749"/><text x="298.9" y="558.0" font-size="9" fill="#243b53">32</text><circle cx="543.0" cy="561.7" r="4" fill="#bc4749"/><text x="549.0" y="555.7" font-size="9" fill="#243b53">64</text><text x="815.5" y="345.0" text-anchor="middle" font-size="13" font-weight="700" fill="#102a43">End-to-End Time</text><line x1="581.0" y1="564.0" x2="1050.0" y2="564.0" stroke="#9fb3c8" stroke-width="1.2"/><line x1="581.0" y1="363.0" x2="581.0" y2="564.0" stroke="#9fb3c8" stroke-width="1.2"/><text x="815.5" y="592.0" text-anchor="middle" font-size="12" fill="#486581">Arithmetic op count (mul + add)</text><text x="537.0" y="463.5" transform="rotate(-90 537.0 463.5)" text-anchor="middle" font-size="11" fill="#486581">Time (ms)</text><line x1="581.0" y1="363.0" x2="581.0" y2="564.0" stroke="#e6edf3" stroke-width="1"/><text x="581.0" y="582.0" text-anchor="middle" font-size="10" fill="#486581">7</text><line x1="612.3" y1="363.0" x2="612.3" y2="564.0" stroke="#e6edf3" stroke-width="1"/><text x="612.3" y="582.0" text-anchor="middle" font-size="10" fill="#486581">15</text><line x1="674.8" y1="363.0" x2="674.8" y2="564.0" stroke="#e6edf3" stroke-width="1"/><text x="674.8" y="582.0" text-anchor="middle" font-size="10" fill="#486581">31</text><line x1="799.9" y1="363.0" x2="799.9" y2="564.0" stroke="#e6edf3" stroke-width="1"/><text x="799.9" y="582.0" text-anchor="middle" font-size="10" fill="#486581">63</text><line x1="1050.0" y1="363.0" x2="1050.0" y2="564.0" stroke="#e6edf3" stroke-width="1"/><text x="1050.0" y="582.0" text-anchor="middle" font-size="10" fill="#486581">127</text><line x1="581.0" y1="564.0" x2="1050.0" y2="564.0" stroke="#e6edf3" stroke-width="1"/><text x="573.0" y="568.0" text-anchor="end" font-size="10" fill="#486581">0.0</text><line x1="581.0" y1="513.8" x2="1050.0" y2="513.8" stroke="#e6edf3" stroke-width="1"/><text x="573.0" y="517.8" text-anchor="end" font-size="10" fill="#486581">1207.8</text><line x1="581.0" y1="463.5" x2="1050.0" y2="463.5" stroke="#e6edf3" stroke-width="1"/><text x="573.0" y="467.5" text-anchor="end" font-size="10" fill="#486581">2415.6</text><line x1="581.0" y1="413.2" x2="1050.0" y2="413.2" stroke="#e6edf3" stroke-width="1"/><text x="573.0" y="417.2" text-anchor="end" font-size="10" fill="#486581">3623.4</text><line x1="581.0" y1="363.0" x2="1050.0" y2="363.0" stroke="#e6edf3" stroke-width="1"/><text x="573.0" y="367.0" text-anchor="end" font-size="10" fill="#486581">4831.2</text><polyline points="581.0,555.6 612.3,553.2 674.8,490.8 799.9,415.4" fill="none" stroke="#355070" stroke-width="2.6" stroke-linecap="round"/><circle cx="581.0" cy="555.6" r="4" fill="#355070"/><text x="587.0" y="549.6" font-size="9" fill="#243b53">4</text><circle cx="612.3" cy="553.2" r="4" fill="#355070"/><text x="618.3" y="547.2" font-size="9" fill="#243b53">8</text><circle cx="674.8" cy="490.8" r="4" fill="#355070"/><text x="680.8" y="484.8" font-size="9" fill="#243b53">16</text><circle cx="799.9" cy="415.4" r="4" fill="#355070"/><text x="805.9" y="409.4" font-size="9" fill="#243b53">32</text><polyline points="612.3,548.6 674.8,487.7 799.9,395.1 1050.0,458.1" fill="none" stroke="#bc4749" stroke-width="2.6" stroke-linecap="round"/><circle cx="612.3" cy="548.6" r="4" fill="#bc4749"/><text x="618.3" y="542.6" font-size="9" fill="#243b53">8</text><circle cx="674.8" cy="487.7" r="4" fill="#bc4749"/><text x="680.8" y="481.7" font-size="9" fill="#243b53">16</text><circle cx="799.9" cy="395.1" r="4" fill="#bc4749"/><text x="805.9" y="389.1" font-size="9" fill="#243b53">32</text><circle cx="1050.0" cy="458.1" r="4" fill="#bc4749"/><text x="1056.0" y="452.1" font-size="9" fill="#243b53">64</text></svg>