<svg xmlns="http://www.w3.org/2000/svg" width="1100" height="620" viewBox="0 0 1100 620">
<rect width="100%" height="100%" fill="#fff"/>
<text x="550.0" y="28.0" font-size="18" text-anchor="middle" fill="#111">DSP vs LUT multiplier intent by variant</text>
<line x1="70" y1="510" x2="1080" y2="510" stroke="#333"/>
<line x1="70" y1="60" x2="70" y2="510" stroke="#333"/>
<rect x="73.4" y="285.0" width="9.1" height="225.0" fill="#e15759"><title>fir8/original dsp_intended_mul_count: 8</title></rect>
<rect x="84.6" y="510.0" width="9.1" height="0.0" fill="#76b7b2"><title>fir8/original lut_intended_mul_count: 0</title></rect>
<text x="82.6" y="526" font-size="8" text-anchor="end" transform="rotate(-55 82.6 526)" fill="#111">fir8/original</text>
<rect x="102.0" y="510.0" width="9.1" height="0.0" fill="#e15759"><title>fir8/weighted dsp_intended_mul_count: 0</title></rect>
<rect x="113.1" y="397.5" width="9.1" height="112.5" fill="#76b7b2"><title>fir8/weighted lut_intended_mul_count: 4</title></rect>
<rect x="130.6" y="425.6" width="9.1" height="84.4" fill="#e15759"><title>fir8/latency_unconstrained dsp_intended_mul_count: 3</title></rect>
<rect x="141.7" y="481.9" width="9.1" height="28.1" fill="#76b7b2"><title>fir8/latency_unconstrained lut_intended_mul_count: 1</title></rect>
<text x="139.7" y="526" font-size="8" text-anchor="end" transform="rotate(-55 139.7 526)" fill="#111">fir8/latency_unconstrained</text>
<rect x="159.1" y="510.0" width="9.1" height="0.0" fill="#e15759"><title>fir8/latency_under_dsp dsp_intended_mul_count: 0</title></rect>
<rect x="170.3" y="397.5" width="9.1" height="112.5" fill="#76b7b2"><title>fir8/latency_under_dsp lut_intended_mul_count: 4</title></rect>
<rect x="187.7" y="397.5" width="9.1" height="112.5" fill="#e15759"><title>fir8/latency_under_lut dsp_intended_mul_count: 4</title></rect>
<rect x="198.9" y="510.0" width="9.1" height="0.0" fill="#76b7b2"><title>fir8/latency_under_lut lut_intended_mul_count: 0</title></rect>
<text x="196.9" y="526" font-size="8" text-anchor="end" transform="rotate(-55 196.9 526)" fill="#111">fir8/latency_under_lut</text>
<rect x="216.3" y="397.5" width="9.1" height="112.5" fill="#e15759"><title>fir8/power_unconstrained dsp_intended_mul_count: 4</title></rect>
<rect x="227.4" y="510.0" width="9.1" height="0.0" fill="#76b7b2"><title>fir8/power_unconstrained lut_intended_mul_count: 0</title></rect>
<rect x="244.9" y="60.0" width="9.1" height="450.0" fill="#e15759"><title>dot16/original dsp_intended_mul_count: 16</title></rect>
<rect x="256.0" y="510.0" width="9.1" height="0.0" fill="#76b7b2"><title>dot16/original lut_intended_mul_count: 0</title></rect>
<text x="254.0" y="526" font-size="8" text-anchor="end" transform="rotate(-55 254.0 526)" fill="#111">dot16/original</text>
<rect x="273.4" y="510.0" width="9.1" height="0.0" fill="#e15759"><title>dot16/weighted dsp_intended_mul_count: 0</title></rect>
<rect x="284.6" y="60.0" width="9.1" height="450.0" fill="#76b7b2"><title>dot16/weighted lut_intended_mul_count: 16</title></rect>
<rect x="302.0" y="510.0" width="9.1" height="0.0" fill="#e15759"><title>dot16/latency_unconstrained dsp_intended_mul_count: 0</title></rect>
<rect x="313.1" y="60.0" width="9.1" height="450.0" fill="#76b7b2"><title>dot16/latency_unconstrained lut_intended_mul_count: 16</title></rect>
<text x="311.1" y="526" font-size="8" text-anchor="end" transform="rotate(-55 311.1 526)" fill="#111">dot16/latency_unconstrained</text>
<rect x="330.6" y="510.0" width="9.1" height="0.0" fill="#e15759"><title>dot16/latency_under_dsp dsp_intended_mul_count: 0</title></rect>
<rect x="341.7" y="60.0" width="9.1" height="450.0" fill="#76b7b2"><title>dot16/latency_under_dsp lut_intended_mul_count: 16</title></rect>
<rect x="359.1" y="313.1" width="9.1" height="196.9" fill="#e15759"><title>dot16/power_unconstrained dsp_intended_mul_count: 7</title></rect>
<rect x="370.3" y="256.9" width="9.1" height="253.1" fill="#76b7b2"><title>dot16/power_unconstrained lut_intended_mul_count: 9</title></rect>
<text x="368.3" y="526" font-size="8" text-anchor="end" transform="rotate(-55 368.3 526)" fill="#111">dot16/power_unconstrained</text>
<rect x="387.7" y="285.0" width="9.1" height="225.0" fill="#e15759"><title>gemm_k8/original dsp_intended_mul_count: 8</title></rect>
<rect x="398.9" y="510.0" width="9.1" height="0.0" fill="#76b7b2"><title>gemm_k8/original lut_intended_mul_count: 0</title></rect>
<rect x="416.3" y="510.0" width="9.1" height="0.0" fill="#e15759"><title>gemm_k8/weighted dsp_intended_mul_count: 0</title></rect>
<rect x="427.4" y="285.0" width="9.1" height="225.0" fill="#76b7b2"><title>gemm_k8/weighted lut_intended_mul_count: 8</title></rect>
<text x="425.4" y="526" font-size="8" text-anchor="end" transform="rotate(-55 425.4 526)" fill="#111">gemm_k8/weighted</text>
<rect x="444.9" y="397.5" width="9.1" height="112.5" fill="#e15759"><title>gemm_k8/latency_unconstrained dsp_intended_mul_count: 4</title></rect>
<rect x="456.0" y="397.5" width="9.1" height="112.5" fill="#76b7b2"><title>gemm_k8/latency_unconstrained lut_intended_mul_count: 4</title></rect>
<rect x="473.4" y="510.0" width="9.1" height="0.0" fill="#e15759"><title>gemm_k8/latency_under_dsp dsp_intended_mul_count: 0</title></rect>
<rect x="484.6" y="285.0" width="9.1" height="225.0" fill="#76b7b2"><title>gemm_k8/latency_under_dsp lut_intended_mul_count: 8</title></rect>
<text x="482.6" y="526" font-size="8" text-anchor="end" transform="rotate(-55 482.6 526)" fill="#111">gemm_k8/latency_under_dsp</text>
<rect x="502.0" y="285.0" width="9.1" height="225.0" fill="#e15759"><title>gemm_k8/latency_under_lut dsp_intended_mul_count: 8</title></rect>
<rect x="513.1" y="510.0" width="9.1" height="0.0" fill="#76b7b2"><title>gemm_k8/latency_under_lut lut_intended_mul_count: 0</title></rect>
<rect x="530.6" y="285.0" width="9.1" height="225.0" fill="#e15759"><title>gemm_k8/power_unconstrained dsp_intended_mul_count: 8</title></rect>
<rect x="541.7" y="510.0" width="9.1" height="0.0" fill="#76b7b2"><title>gemm_k8/power_unconstrained lut_intended_mul_count: 0</title></rect>
<text x="539.7" y="526" font-size="8" text-anchor="end" transform="rotate(-55 539.7 526)" fill="#111">gemm_k8/power_unconstrained</text>
<rect x="559.1" y="285.0" width="9.1" height="225.0" fill="#e15759"><title>gemm_blocked_k8/original dsp_intended_mul_count: 8</title></rect>
<rect x="570.3" y="510.0" width="9.1" height="0.0" fill="#76b7b2"><title>gemm_blocked_k8/original lut_intended_mul_count: 0</title></rect>
<rect x="587.7" y="510.0" width="9.1" height="0.0" fill="#e15759"><title>gemm_blocked_k8/weighted dsp_intended_mul_count: 0</title></rect>
<rect x="598.9" y="285.0" width="9.1" height="225.0" fill="#76b7b2"><title>gemm_blocked_k8/weighted lut_intended_mul_count: 8</title></rect>
<text x="596.9" y="526" font-size="8" text-anchor="end" transform="rotate(-55 596.9 526)" fill="#111">gemm_blocked_k8/weighted</text>
<rect x="616.3" y="285.0" width="9.1" height="225.0" fill="#e15759"><title>gemm_blocked_k8/latency_unconstrained dsp_intended_mul_count: 8</title></rect>
<rect x="627.4" y="510.0" width="9.1" height="0.0" fill="#76b7b2"><title>gemm_blocked_k8/latency_unconstrained lut_intended_mul_count: 0</title></rect>
<rect x="644.9" y="510.0" width="9.1" height="0.0" fill="#e15759"><title>gemm_blocked_k8/latency_under_dsp dsp_intended_mul_count: 0</title></rect>
<rect x="656.0" y="285.0" width="9.1" height="225.0" fill="#76b7b2"><title>gemm_blocked_k8/latency_under_dsp lut_intended_mul_count: 8</title></rect>
<text x="654.0" y="526" font-size="8" text-anchor="end" transform="rotate(-55 654.0 526)" fill="#111">gemm_blocked_k8/latency_under_dsp</text>
<rect x="673.4" y="285.0" width="9.1" height="225.0" fill="#e15759"><title>gemm_blocked_k8/latency_under_lut dsp_intended_mul_count: 8</title></rect>
<rect x="684.6" y="510.0" width="9.1" height="0.0" fill="#76b7b2"><title>gemm_blocked_k8/latency_under_lut lut_intended_mul_count: 0</title></rect>
<rect x="702.0" y="285.0" width="9.1" height="225.0" fill="#e15759"><title>gemm_blocked_k8/power_unconstrained dsp_intended_mul_count: 8</title></rect>
<rect x="713.1" y="510.0" width="9.1" height="0.0" fill="#76b7b2"><title>gemm_blocked_k8/power_unconstrained lut_intended_mul_count: 0</title></rect>
<text x="711.1" y="526" font-size="8" text-anchor="end" transform="rotate(-55 711.1 526)" fill="#111">gemm_blocked_k8/power_unconstrained</text>
<rect x="730.6" y="256.9" width="9.1" height="253.1" fill="#e15759"><title>conv3x3/original dsp_intended_mul_count: 9</title></rect>
<rect x="741.7" y="510.0" width="9.1" height="0.0" fill="#76b7b2"><title>conv3x3/original lut_intended_mul_count: 0</title></rect>
<rect x="759.1" y="510.0" width="9.1" height="0.0" fill="#e15759"><title>conv3x3/weighted dsp_intended_mul_count: 0</title></rect>
<rect x="770.3" y="481.9" width="9.1" height="28.1" fill="#76b7b2"><title>conv3x3/weighted lut_intended_mul_count: 1</title></rect>
<text x="768.3" y="526" font-size="8" text-anchor="end" transform="rotate(-55 768.3 526)" fill="#111">conv3x3/weighted</text>
<rect x="787.7" y="481.9" width="9.1" height="28.1" fill="#e15759"><title>conv3x3/latency_unconstrained dsp_intended_mul_count: 1</title></rect>
<rect x="798.9" y="510.0" width="9.1" height="0.0" fill="#76b7b2"><title>conv3x3/latency_unconstrained lut_intended_mul_count: 0</title></rect>
<rect x="816.3" y="510.0" width="9.1" height="0.0" fill="#e15759"><title>conv3x3/latency_under_dsp dsp_intended_mul_count: 0</title></rect>
<rect x="827.4" y="481.9" width="9.1" height="28.1" fill="#76b7b2"><title>conv3x3/latency_under_dsp lut_intended_mul_count: 1</title></rect>
<text x="825.4" y="526" font-size="8" text-anchor="end" transform="rotate(-55 825.4 526)" fill="#111">conv3x3/latency_under_dsp</text>
<rect x="844.9" y="481.9" width="9.1" height="28.1" fill="#e15759"><title>conv3x3/latency_under_lut dsp_intended_mul_count: 1</title></rect>
<rect x="856.0" y="510.0" width="9.1" height="0.0" fill="#76b7b2"><title>conv3x3/latency_under_lut lut_intended_mul_count: 0</title></rect>
<rect x="873.4" y="481.9" width="9.1" height="28.1" fill="#e15759"><title>conv3x3/power_unconstrained dsp_intended_mul_count: 1</title></rect>
<rect x="884.6" y="510.0" width="9.1" height="0.0" fill="#76b7b2"><title>conv3x3/power_unconstrained lut_intended_mul_count: 0</title></rect>
<text x="882.6" y="526" font-size="8" text-anchor="end" transform="rotate(-55 882.6 526)" fill="#111">conv3x3/power_unconstrained</text>
<rect x="902.0" y="369.4" width="9.1" height="140.6" fill="#e15759"><title>stencil5/original dsp_intended_mul_count: 5</title></rect>
<rect x="913.1" y="510.0" width="9.1" height="0.0" fill="#76b7b2"><title>stencil5/original lut_intended_mul_count: 0</title></rect>
<rect x="930.6" y="510.0" width="9.1" height="0.0" fill="#e15759"><title>stencil5/weighted dsp_intended_mul_count: 0</title></rect>
<rect x="941.7" y="369.4" width="9.1" height="140.6" fill="#76b7b2"><title>stencil5/weighted lut_intended_mul_count: 5</title></rect>
<text x="939.7" y="526" font-size="8" text-anchor="end" transform="rotate(-55 939.7 526)" fill="#111">stencil5/weighted</text>
<rect x="959.1" y="397.5" width="9.1" height="112.5" fill="#e15759"><title>stencil5/latency_unconstrained dsp_intended_mul_count: 4</title></rect>
<rect x="970.3" y="481.9" width="9.1" height="28.1" fill="#76b7b2"><title>stencil5/latency_unconstrained lut_intended_mul_count: 1</title></rect>
<rect x="987.7" y="510.0" width="9.1" height="0.0" fill="#e15759"><title>stencil5/latency_under_dsp dsp_intended_mul_count: 0</title></rect>
<rect x="998.9" y="369.4" width="9.1" height="140.6" fill="#76b7b2"><title>stencil5/latency_under_dsp lut_intended_mul_count: 5</title></rect>
<text x="996.9" y="526" font-size="8" text-anchor="end" transform="rotate(-55 996.9 526)" fill="#111">stencil5/latency_under_dsp</text>
<rect x="1016.3" y="369.4" width="9.1" height="140.6" fill="#e15759"><title>stencil5/latency_under_lut dsp_intended_mul_count: 5</title></rect>
<rect x="1027.4" y="510.0" width="9.1" height="0.0" fill="#76b7b2"><title>stencil5/latency_under_lut lut_intended_mul_count: 0</title></rect>
<rect x="1044.9" y="369.4" width="9.1" height="140.6" fill="#e15759"><title>stencil5/power_unconstrained dsp_intended_mul_count: 5</title></rect>
<rect x="1056.0" y="510.0" width="9.1" height="0.0" fill="#76b7b2"><title>stencil5/power_unconstrained lut_intended_mul_count: 0</title></rect>
<text x="1054.0" y="526" font-size="8" text-anchor="end" transform="rotate(-55 1054.0 526)" fill="#111">stencil5/power_unconstrained</text>
<rect x="70" y="578" width="14" height="14" fill="#e15759"/>
<text x="132.0" y="590.0" font-size="11" text-anchor="middle" fill="#111">DSP-intended mul/MAC</text>
<rect x="240" y="578" width="14" height="14" fill="#76b7b2"/>
<text x="310.0" y="590.0" font-size="11" text-anchor="middle" fill="#111">LUT-intended mul</text>
</svg>