<svg viewBox="0 0 500 340" xmlns="http://www.w3.org/2000/svg" role="img" aria-label="conv3x3 tradeoff plot"><text x="250.0" y="22" text-anchor="middle" font-size="16" font-weight="700" fill="#102a43">conv3x3 area vs latency</text><line x1="60" y1="288" x2="472" y2="288" stroke="#9fb3c8" stroke-width="1.2"/><line x1="60" y1="36" x2="60" y2="288" stroke="#9fb3c8" stroke-width="1.2"/><text x="250.0" y="330" text-anchor="middle" font-size="12" fill="#486581">Area</text><text x="18" y="162.0" transform="rotate(-90 18 162.0)" text-anchor="middle" font-size="12" fill="#486581">Latency</text><line x1="60.0" y1="288" x2="60.0" y2="293" stroke="#9fb3c8" stroke-width="1"/><text x="60.0" y="306" text-anchor="middle" font-size="10" fill="#486581">0.0</text><line x1="55" y1="288.0" x2="60" y2="288.0" stroke="#9fb3c8" stroke-width="1"/><text x="50" y="292.0" text-anchor="end" font-size="10" fill="#486581">0.0</text><line x1="163.0" y1="288" x2="163.0" y2="293" stroke="#9fb3c8" stroke-width="1"/><text x="163.0" y="306" text-anchor="middle" font-size="10" fill="#486581">15.5</text><line x1="55" y1="225.0" x2="60" y2="225.0" stroke="#9fb3c8" stroke-width="1"/><text x="50" y="229.0" text-anchor="end" font-size="10" fill="#486581">4.8</text><line x1="266.0" y1="288" x2="266.0" y2="293" stroke="#9fb3c8" stroke-width="1"/><text x="266.0" y="306" text-anchor="middle" font-size="10" fill="#486581">31.0</text><line x1="55" y1="162.0" x2="60" y2="162.0" stroke="#9fb3c8" stroke-width="1"/><text x="50" y="166.0" text-anchor="end" font-size="10" fill="#486581">9.5</text><line x1="369.0" y1="288" x2="369.0" y2="293" stroke="#9fb3c8" stroke-width="1"/><text x="369.0" y="306" text-anchor="middle" font-size="10" fill="#486581">46.5</text><line x1="55" y1="99.0" x2="60" y2="99.0" stroke="#9fb3c8" stroke-width="1"/><text x="50" y="103.0" text-anchor="end" font-size="10" fill="#486581">14.2</text><line x1="472.0" y1="288" x2="472.0" y2="293" stroke="#9fb3c8" stroke-width="1"/><text x="472.0" y="306" text-anchor="middle" font-size="10" fill="#486581">62.0</text><line x1="55" y1="36.0" x2="60" y2="36.0" stroke="#9fb3c8" stroke-width="1"/><text x="50" y="40.0" text-anchor="end" font-size="10" fill="#486581">19.0</text><polyline points="166.3,49.3 173.0,49.3 173.0,62.5 179.6,62.5 179.6,75.8 186.3,75.8 186.3,89.1 192.9,89.1 192.9,102.3 199.5,102.3 199.5,115.6 206.2,115.6 206.2,128.8 212.8,128.8 212.8,142.1 232.8,142.1 232.8,155.4 239.4,155.4 239.4,168.6" fill="none" stroke="#264653" stroke-width="2.5" stroke-dasharray="4 4"/><polyline points="166.3,49.3 179.6,49.3 239.4,168.6" fill="none" stroke="#8d99ae" stroke-width="2.5" stroke-linecap="round"/><circle cx="166.3" cy="49.3" r="11" fill="#2a9d8f" /><text x="166.3" y="53.3" text-anchor="middle" font-size="10" font-weight="700" fill="#ffffff">1</text><circle cx="173.0" cy="62.5" r="11" fill="#264653" /><text x="173.0" y="66.5" text-anchor="middle" font-size="10" font-weight="700" fill="#ffffff">2</text><circle cx="179.6" cy="75.8" r="11" fill="#264653" /><text x="179.6" y="79.8" text-anchor="middle" font-size="10" font-weight="700" fill="#ffffff">3</text><circle cx="179.6" cy="49.3" r="11" fill="#7b2cbf" /><text x="179.6" y="53.3" text-anchor="middle" font-size="10" font-weight="700" fill="#ffffff">4</text><circle cx="186.3" cy="89.1" r="11" fill="#264653" /><text x="186.3" y="93.1" text-anchor="middle" font-size="10" font-weight="700" fill="#ffffff">5</text><circle cx="192.9" cy="102.3" r="11" fill="#264653" /><text x="192.9" y="106.3" text-anchor="middle" font-size="10" font-weight="700" fill="#ffffff">6</text><circle cx="199.5" cy="115.6" r="11" fill="#264653" /><text x="199.5" y="119.6" text-anchor="middle" font-size="10" font-weight="700" fill="#ffffff">7</text><circle cx="206.2" cy="128.8" r="11" fill="#264653" /><text x="206.2" y="132.8" text-anchor="middle" font-size="10" font-weight="700" fill="#ffffff">8</text><circle cx="212.8" cy="142.1" r="11" fill="#264653" /><text x="212.8" y="146.1" text-anchor="middle" font-size="10" font-weight="700" fill="#ffffff">9</text><circle cx="232.8" cy="155.4" r="11" fill="#264653" /><text x="232.8" y="159.4" text-anchor="middle" font-size="10" font-weight="700" fill="#ffffff">10</text><circle cx="239.4" cy="168.6" r="11" fill="#1d3557" /><text x="239.4" y="172.6" text-anchor="middle" font-size="10" font-weight="700" fill="#ffffff">11</text><circle cx="472.0" cy="36.0" r="11" fill="#355070" /><text x="472.0" y="40.0" text-anchor="middle" font-size="10" font-weight="700" fill="#ffffff">12</text></svg>