<svg viewBox="0 0 500 340" xmlns="http://www.w3.org/2000/svg" role="img" aria-label="dot16 tradeoff plot"><text x="250.0" y="22" text-anchor="middle" font-size="16" font-weight="700" fill="#102a43">dot16 area vs latency</text><line x1="60" y1="288" x2="472" y2="288" stroke="#9fb3c8" stroke-width="1.2"/><line x1="60" y1="36" x2="60" y2="288" stroke="#9fb3c8" stroke-width="1.2"/><text x="250.0" y="330" text-anchor="middle" font-size="12" fill="#486581">Area</text><text x="18" y="162.0" transform="rotate(-90 18 162.0)" text-anchor="middle" font-size="12" fill="#486581">Latency</text><line x1="60.0" y1="288" x2="60.0" y2="293" stroke="#9fb3c8" stroke-width="1"/><text x="60.0" y="306" text-anchor="middle" font-size="10" fill="#486581">0.0</text><line x1="55" y1="288.0" x2="60" y2="288.0" stroke="#9fb3c8" stroke-width="1"/><text x="50" y="292.0" text-anchor="end" font-size="10" fill="#486581">0.0</text><line x1="163.0" y1="288" x2="163.0" y2="293" stroke="#9fb3c8" stroke-width="1"/><text x="163.0" y="306" text-anchor="middle" font-size="10" fill="#486581">27.8</text><line x1="55" y1="225.0" x2="60" y2="225.0" stroke="#9fb3c8" stroke-width="1"/><text x="50" y="229.0" text-anchor="end" font-size="10" fill="#486581">9.0</text><line x1="266.0" y1="288" x2="266.0" y2="293" stroke="#9fb3c8" stroke-width="1"/><text x="266.0" y="306" text-anchor="middle" font-size="10" fill="#486581">55.5</text><line x1="55" y1="162.0" x2="60" y2="162.0" stroke="#9fb3c8" stroke-width="1"/><text x="50" y="166.0" text-anchor="end" font-size="10" fill="#486581">18.0</text><line x1="369.0" y1="288" x2="369.0" y2="293" stroke="#9fb3c8" stroke-width="1"/><text x="369.0" y="306" text-anchor="middle" font-size="10" fill="#486581">83.2</text><line x1="55" y1="99.0" x2="60" y2="99.0" stroke="#9fb3c8" stroke-width="1"/><text x="50" y="103.0" text-anchor="end" font-size="10" fill="#486581">27.0</text><line x1="472.0" y1="288" x2="472.0" y2="293" stroke="#9fb3c8" stroke-width="1"/><text x="472.0" y="306" text-anchor="middle" font-size="10" fill="#486581">111.0</text><line x1="55" y1="36.0" x2="60" y2="36.0" stroke="#9fb3c8" stroke-width="1"/><text x="50" y="40.0" text-anchor="end" font-size="10" fill="#486581">36.0</text><polyline points="353.2,36.0 356.9,36.0 356.9,43.0 360.6,43.0 360.6,50.0 364.4,50.0 364.4,57.0 368.1,57.0 368.1,64.0 371.8,64.0 371.8,71.0 375.5,71.0 375.5,78.0 379.2,78.0 379.2,85.0 382.9,85.0 382.9,92.0 386.6,92.0 386.6,99.0 390.3,99.0 390.3,106.0 394.1,106.0 394.1,113.0 397.8,113.0 397.8,120.0 401.5,120.0 401.5,127.0 405.2,127.0 405.2,134.0 408.9,134.0 408.9,141.0" fill="none" stroke="#264653" stroke-width="2.5" stroke-dasharray="4 4"/><polyline points="353.2,36.0 405.2,57.0 408.9,141.0" fill="none" stroke="#8d99ae" stroke-width="2.5" stroke-linecap="round"/><circle cx="353.2" cy="36.0" r="11" fill="#2a9d8f" /><text x="353.2" y="40.0" text-anchor="middle" font-size="10" font-weight="700" fill="#ffffff">1</text><circle cx="356.9" cy="43.0" r="11" fill="#264653" /><text x="356.9" y="47.0" text-anchor="middle" font-size="10" font-weight="700" fill="#ffffff">2</text><circle cx="360.6" cy="50.0" r="11" fill="#264653" /><text x="360.6" y="54.0" text-anchor="middle" font-size="10" font-weight="700" fill="#ffffff">3</text><circle cx="364.4" cy="57.0" r="11" fill="#f4a261" /><text x="364.4" y="61.0" text-anchor="middle" font-size="10" font-weight="700" fill="#ffffff">4</text><circle cx="368.1" cy="64.0" r="11" fill="#264653" /><text x="368.1" y="68.0" text-anchor="middle" font-size="10" font-weight="700" fill="#ffffff">5</text><circle cx="371.8" cy="71.0" r="11" fill="#264653" /><text x="371.8" y="75.0" text-anchor="middle" font-size="10" font-weight="700" fill="#ffffff">6</text><circle cx="375.5" cy="78.0" r="11" fill="#264653" /><text x="375.5" y="82.0" text-anchor="middle" font-size="10" font-weight="700" fill="#ffffff">7</text><circle cx="379.2" cy="85.0" r="11" fill="#264653" /><text x="379.2" y="89.0" text-anchor="middle" font-size="10" font-weight="700" fill="#ffffff">8</text><circle cx="382.9" cy="92.0" r="11" fill="#264653" /><text x="382.9" y="96.0" text-anchor="middle" font-size="10" font-weight="700" fill="#ffffff">9</text><circle cx="386.6" cy="99.0" r="11" fill="#264653" /><text x="386.6" y="103.0" text-anchor="middle" font-size="10" font-weight="700" fill="#ffffff">10</text><circle cx="390.3" cy="106.0" r="11" fill="#264653" /><text x="390.3" y="110.0" text-anchor="middle" font-size="10" font-weight="700" fill="#ffffff">11</text><circle cx="394.1" cy="113.0" r="11" fill="#264653" /><text x="394.1" y="117.0" text-anchor="middle" font-size="10" font-weight="700" fill="#ffffff">12</text><circle cx="397.8" cy="120.0" r="11" fill="#264653" /><text x="397.8" y="124.0" text-anchor="middle" font-size="10" font-weight="700" fill="#ffffff">13</text><circle cx="401.5" cy="127.0" r="11" fill="#264653" /><text x="401.5" y="131.0" text-anchor="middle" font-size="10" font-weight="700" fill="#ffffff">14</text><circle cx="405.2" cy="134.0" r="11" fill="#264653" /><text x="405.2" y="138.0" text-anchor="middle" font-size="10" font-weight="700" fill="#ffffff">15</text><circle cx="405.2" cy="57.0" r="11" fill="#7b2cbf" /><text x="405.2" y="61.0" text-anchor="middle" font-size="10" font-weight="700" fill="#ffffff">16</text><circle cx="408.9" cy="141.0" r="11" fill="#1d3557" /><text x="408.9" y="145.0" text-anchor="middle" font-size="10" font-weight="700" fill="#ffffff">17</text><circle cx="472.0" cy="57.0" r="11" fill="#355070" /><text x="472.0" y="61.0" text-anchor="middle" font-size="10" font-weight="700" fill="#ffffff">18</text></svg>