<svg viewBox="0 0 500 300" xmlns="http://www.w3.org/2000/svg" role="img" aria-label="dot16 dsp scaling plot"><text x="250.0" y="22" text-anchor="middle" font-size="16" font-weight="700" fill="#102a43">Bigger FPGA, Faster Datapath?</text><line x1="52" y1="258" x2="478" y2="258" stroke="#9fb3c8" stroke-width="1.2"/><line x1="52" y1="36" x2="52" y2="258" stroke="#9fb3c8" stroke-width="1.2"/><text x="250.0" y="292" text-anchor="middle" font-size="12" fill="#486581">Allowed DSP Budget</text><text x="18" y="147.0" transform="rotate(-90 18 147.0)" text-anchor="middle" font-size="12" fill="#486581">Best Latency</text><line x1="52.0" y1="258" x2="52.0" y2="263" stroke="#9fb3c8" stroke-width="1"/><text x="52.0" y="276" text-anchor="middle" font-size="10" fill="#486581">0</text><line x1="65.7" y1="258" x2="65.7" y2="263" stroke="#9fb3c8" stroke-width="1"/><text x="65.7" y="276" text-anchor="middle" font-size="10" fill="#486581">1</text><line x1="79.5" y1="258" x2="79.5" y2="263" stroke="#9fb3c8" stroke-width="1"/><text x="79.5" y="276" text-anchor="middle" font-size="10" fill="#486581">2</text><line x1="93.2" y1="258" x2="93.2" y2="263" stroke="#9fb3c8" stroke-width="1"/><text x="93.2" y="276" text-anchor="middle" font-size="10" fill="#486581">3</text><line x1="107.0" y1="258" x2="107.0" y2="263" stroke="#9fb3c8" stroke-width="1"/><text x="107.0" y="276" text-anchor="middle" font-size="10" fill="#486581">4</text><line x1="120.7" y1="258" x2="120.7" y2="263" stroke="#9fb3c8" stroke-width="1"/><text x="120.7" y="276" text-anchor="middle" font-size="10" fill="#486581">5</text><line x1="134.5" y1="258" x2="134.5" y2="263" stroke="#9fb3c8" stroke-width="1"/><text x="134.5" y="276" text-anchor="middle" font-size="10" fill="#486581">6</text><line x1="148.2" y1="258" x2="148.2" y2="263" stroke="#9fb3c8" stroke-width="1"/><text x="148.2" y="276" text-anchor="middle" font-size="10" fill="#486581">7</text><line x1="161.9" y1="258" x2="161.9" y2="263" stroke="#9fb3c8" stroke-width="1"/><text x="161.9" y="276" text-anchor="middle" font-size="10" fill="#486581">8</text><line x1="175.7" y1="258" x2="175.7" y2="263" stroke="#9fb3c8" stroke-width="1"/><text x="175.7" y="276" text-anchor="middle" font-size="10" fill="#486581">9</text><line x1="189.4" y1="258" x2="189.4" y2="263" stroke="#9fb3c8" stroke-width="1"/><text x="189.4" y="276" text-anchor="middle" font-size="10" fill="#486581">10</text><line x1="203.2" y1="258" x2="203.2" y2="263" stroke="#9fb3c8" stroke-width="1"/><text x="203.2" y="276" text-anchor="middle" font-size="10" fill="#486581">11</text><line x1="216.9" y1="258" x2="216.9" y2="263" stroke="#9fb3c8" stroke-width="1"/><text x="216.9" y="276" text-anchor="middle" font-size="10" fill="#486581">12</text><line x1="230.6" y1="258" x2="230.6" y2="263" stroke="#9fb3c8" stroke-width="1"/><text x="230.6" y="276" text-anchor="middle" font-size="10" fill="#486581">13</text><line x1="244.4" y1="258" x2="244.4" y2="263" stroke="#9fb3c8" stroke-width="1"/><text x="244.4" y="276" text-anchor="middle" font-size="10" fill="#486581">14</text><line x1="258.1" y1="258" x2="258.1" y2="263" stroke="#9fb3c8" stroke-width="1"/><text x="258.1" y="276" text-anchor="middle" font-size="10" fill="#486581">15</text><line x1="271.9" y1="258" x2="271.9" y2="263" stroke="#9fb3c8" stroke-width="1"/><text x="271.9" y="276" text-anchor="middle" font-size="10" fill="#486581">16</text><line x1="285.6" y1="258" x2="285.6" y2="263" stroke="#9fb3c8" stroke-width="1"/><text x="285.6" y="276" text-anchor="middle" font-size="10" fill="#486581">17</text><line x1="299.4" y1="258" x2="299.4" y2="263" stroke="#9fb3c8" stroke-width="1"/><text x="299.4" y="276" text-anchor="middle" font-size="10" fill="#486581">18</text><line x1="313.1" y1="258" x2="313.1" y2="263" stroke="#9fb3c8" stroke-width="1"/><text x="313.1" y="276" text-anchor="middle" font-size="10" fill="#486581">19</text><line x1="326.8" y1="258" x2="326.8" y2="263" stroke="#9fb3c8" stroke-width="1"/><text x="326.8" y="276" text-anchor="middle" font-size="10" fill="#486581">20</text><line x1="340.6" y1="258" x2="340.6" y2="263" stroke="#9fb3c8" stroke-width="1"/><text x="340.6" y="276" text-anchor="middle" font-size="10" fill="#486581">21</text><line x1="354.3" y1="258" x2="354.3" y2="263" stroke="#9fb3c8" stroke-width="1"/><text x="354.3" y="276" text-anchor="middle" font-size="10" fill="#486581">22</text><line x1="368.1" y1="258" x2="368.1" y2="263" stroke="#9fb3c8" stroke-width="1"/><text x="368.1" y="276" text-anchor="middle" font-size="10" fill="#486581">23</text><line x1="381.8" y1="258" x2="381.8" y2="263" stroke="#9fb3c8" stroke-width="1"/><text x="381.8" y="276" text-anchor="middle" font-size="10" fill="#486581">24</text><line x1="395.5" y1="258" x2="395.5" y2="263" stroke="#9fb3c8" stroke-width="1"/><text x="395.5" y="276" text-anchor="middle" font-size="10" fill="#486581">25</text><line x1="409.3" y1="258" x2="409.3" y2="263" stroke="#9fb3c8" stroke-width="1"/><text x="409.3" y="276" text-anchor="middle" font-size="10" fill="#486581">26</text><line x1="423.0" y1="258" x2="423.0" y2="263" stroke="#9fb3c8" stroke-width="1"/><text x="423.0" y="276" text-anchor="middle" font-size="10" fill="#486581">27</text><line x1="436.8" y1="258" x2="436.8" y2="263" stroke="#9fb3c8" stroke-width="1"/><text x="436.8" y="276" text-anchor="middle" font-size="10" fill="#486581">28</text><line x1="450.5" y1="258" x2="450.5" y2="263" stroke="#9fb3c8" stroke-width="1"/><text x="450.5" y="276" text-anchor="middle" font-size="10" fill="#486581">29</text><line x1="464.3" y1="258" x2="464.3" y2="263" stroke="#9fb3c8" stroke-width="1"/><text x="464.3" y="276" text-anchor="middle" font-size="10" fill="#486581">30</text><line x1="478.0" y1="258" x2="478.0" y2="263" stroke="#9fb3c8" stroke-width="1"/><text x="478.0" y="276" text-anchor="middle" font-size="10" fill="#486581">31</text><line x1="47" y1="258.0" x2="52" y2="258.0" stroke="#9fb3c8" stroke-width="1"/><text x="42" y="262.0" text-anchor="end" font-size="10" fill="#486581">0.0</text><line x1="47" y1="202.5" x2="52" y2="202.5" stroke="#9fb3c8" stroke-width="1"/><text x="42" y="206.5" text-anchor="end" font-size="10" fill="#486581">9.0</text><line x1="47" y1="147.0" x2="52" y2="147.0" stroke="#9fb3c8" stroke-width="1"/><text x="42" y="151.0" text-anchor="end" font-size="10" fill="#486581">18.0</text><line x1="47" y1="91.5" x2="52" y2="91.5" stroke="#9fb3c8" stroke-width="1"/><text x="42" y="95.5" text-anchor="end" font-size="10" fill="#486581">27.0</text><line x1="47" y1="36.0" x2="52" y2="36.0" stroke="#9fb3c8" stroke-width="1"/><text x="42" y="40.0" text-anchor="end" font-size="10" fill="#486581">36.0</text><polyline points="52.0,36.0 65.7,36.0 65.7,42.2 79.5,42.2 79.5,48.3 93.2,48.3 93.2,54.5 107.0,54.5 107.0,60.7 120.7,60.7 120.7,66.8 134.5,66.8 134.5,73.0 148.2,73.0 148.2,79.2 161.9,79.2 161.9,85.3 175.7,85.3 175.7,91.5 189.4,91.5 189.4,97.7 203.2,97.7 203.2,103.8 216.9,103.8 216.9,110.0 230.6,110.0 230.6,116.2 244.4,116.2 244.4,122.3 258.1,122.3 258.1,128.5 271.9,128.5 271.9,128.5 285.6,128.5 285.6,128.5 299.4,128.5 299.4,128.5 313.1,128.5 313.1,128.5 326.8,128.5 326.8,128.5 340.6,128.5 340.6,128.5 354.3,128.5 354.3,128.5 368.1,128.5 368.1,128.5 381.8,128.5 381.8,128.5 395.5,128.5 395.5,128.5 409.3,128.5 409.3,128.5 423.0,128.5 423.0,128.5 436.8,128.5 436.8,128.5 450.5,128.5 450.5,128.5 464.3,128.5 464.3,128.5 478.0,128.5 478.0,128.5" fill="none" stroke="#3a86ff" stroke-width="2.5"/><circle cx="52.0" cy="36.0" r="4.5" fill="#3a86ff"/><circle cx="65.7" cy="42.2" r="4.5" fill="#3a86ff"/><circle cx="79.5" cy="48.3" r="4.5" fill="#3a86ff"/><circle cx="93.2" cy="54.5" r="4.5" fill="#3a86ff"/><circle cx="107.0" cy="60.7" r="4.5" fill="#3a86ff"/><circle cx="120.7" cy="66.8" r="4.5" fill="#3a86ff"/><circle cx="134.5" cy="73.0" r="4.5" fill="#3a86ff"/><circle cx="148.2" cy="79.2" r="4.5" fill="#3a86ff"/><circle cx="161.9" cy="85.3" r="4.5" fill="#3a86ff"/><circle cx="175.7" cy="91.5" r="4.5" fill="#3a86ff"/><circle cx="189.4" cy="97.7" r="4.5" fill="#3a86ff"/><circle cx="203.2" cy="103.8" r="4.5" fill="#3a86ff"/><circle cx="216.9" cy="110.0" r="4.5" fill="#3a86ff"/><circle cx="230.6" cy="116.2" r="4.5" fill="#3a86ff"/><circle cx="244.4" cy="122.3" r="4.5" fill="#3a86ff"/><circle cx="258.1" cy="128.5" r="4.5" fill="#3a86ff"/><circle cx="271.9" cy="128.5" r="4.5" fill="#3a86ff"/><circle cx="285.6" cy="128.5" r="4.5" fill="#3a86ff"/><circle cx="299.4" cy="128.5" r="4.5" fill="#3a86ff"/><circle cx="313.1" cy="128.5" r="4.5" fill="#3a86ff"/><circle cx="326.8" cy="128.5" r="4.5" fill="#3a86ff"/><circle cx="340.6" cy="128.5" r="4.5" fill="#3a86ff"/><circle cx="354.3" cy="128.5" r="4.5" fill="#3a86ff"/><circle cx="368.1" cy="128.5" r="4.5" fill="#3a86ff"/><circle cx="381.8" cy="128.5" r="4.5" fill="#3a86ff"/><circle cx="395.5" cy="128.5" r="4.5" fill="#3a86ff"/><circle cx="409.3" cy="128.5" r="4.5" fill="#3a86ff"/><circle cx="423.0" cy="128.5" r="4.5" fill="#3a86ff"/><circle cx="436.8" cy="128.5" r="4.5" fill="#3a86ff"/><circle cx="450.5" cy="128.5" r="4.5" fill="#3a86ff"/><circle cx="464.3" cy="128.5" r="4.5" fill="#3a86ff"/><circle cx="478.0" cy="128.5" r="4.5" fill="#3a86ff"/><line x1="52" y1="128.5" x2="478" y2="128.5" stroke="#1d3557" stroke-width="2" stroke-dasharray="5 4"/><text x="474" y="122.5" text-anchor="end" font-size="10" fill="#1d3557">Latency-optimal = 21</text></svg>