<svg viewBox="0 0 500 300" xmlns="http://www.w3.org/2000/svg" role="img" aria-label="stencil5 dsp scaling plot"><text x="250.0" y="22" text-anchor="middle" font-size="16" font-weight="700" fill="#102a43">Bigger FPGA, Faster Datapath?</text><line x1="52" y1="258" x2="478" y2="258" stroke="#9fb3c8" stroke-width="1.2"/><line x1="52" y1="36" x2="52" y2="258" stroke="#9fb3c8" stroke-width="1.2"/><text x="250.0" y="292" text-anchor="middle" font-size="12" fill="#486581">Allowed DSP Budget</text><text x="18" y="147.0" transform="rotate(-90 18 147.0)" text-anchor="middle" font-size="12" fill="#486581">Best Latency</text><line x1="52.0" y1="258" x2="52.0" y2="263" stroke="#9fb3c8" stroke-width="1"/><text x="52.0" y="276" text-anchor="middle" font-size="10" fill="#486581">0</text><line x1="99.3" y1="258" x2="99.3" y2="263" stroke="#9fb3c8" stroke-width="1"/><text x="99.3" y="276" text-anchor="middle" font-size="10" fill="#486581">1</text><line x1="146.7" y1="258" x2="146.7" y2="263" stroke="#9fb3c8" stroke-width="1"/><text x="146.7" y="276" text-anchor="middle" font-size="10" fill="#486581">2</text><line x1="194.0" y1="258" x2="194.0" y2="263" stroke="#9fb3c8" stroke-width="1"/><text x="194.0" y="276" text-anchor="middle" font-size="10" fill="#486581">3</text><line x1="241.3" y1="258" x2="241.3" y2="263" stroke="#9fb3c8" stroke-width="1"/><text x="241.3" y="276" text-anchor="middle" font-size="10" fill="#486581">4</text><line x1="288.7" y1="258" x2="288.7" y2="263" stroke="#9fb3c8" stroke-width="1"/><text x="288.7" y="276" text-anchor="middle" font-size="10" fill="#486581">5</text><line x1="336.0" y1="258" x2="336.0" y2="263" stroke="#9fb3c8" stroke-width="1"/><text x="336.0" y="276" text-anchor="middle" font-size="10" fill="#486581">6</text><line x1="383.3" y1="258" x2="383.3" y2="263" stroke="#9fb3c8" stroke-width="1"/><text x="383.3" y="276" text-anchor="middle" font-size="10" fill="#486581">7</text><line x1="430.7" y1="258" x2="430.7" y2="263" stroke="#9fb3c8" stroke-width="1"/><text x="430.7" y="276" text-anchor="middle" font-size="10" fill="#486581">8</text><line x1="478.0" y1="258" x2="478.0" y2="263" stroke="#9fb3c8" stroke-width="1"/><text x="478.0" y="276" text-anchor="middle" font-size="10" fill="#486581">9</text><line x1="47" y1="258.0" x2="52" y2="258.0" stroke="#9fb3c8" stroke-width="1"/><text x="42" y="262.0" text-anchor="end" font-size="10" fill="#486581">0.0</text><line x1="47" y1="202.5" x2="52" y2="202.5" stroke="#9fb3c8" stroke-width="1"/><text x="42" y="206.5" text-anchor="end" font-size="10" fill="#486581">3.5</text><line x1="47" y1="147.0" x2="52" y2="147.0" stroke="#9fb3c8" stroke-width="1"/><text x="42" y="151.0" text-anchor="end" font-size="10" fill="#486581">7.0</text><line x1="47" y1="91.5" x2="52" y2="91.5" stroke="#9fb3c8" stroke-width="1"/><text x="42" y="95.5" text-anchor="end" font-size="10" fill="#486581">10.5</text><line x1="47" y1="36.0" x2="52" y2="36.0" stroke="#9fb3c8" stroke-width="1"/><text x="42" y="40.0" text-anchor="end" font-size="10" fill="#486581">14.0</text><polyline points="52.0,36.0 99.3,36.0 99.3,51.9 146.7,51.9 146.7,67.7 194.0,67.7 194.0,83.6 241.3,83.6 241.3,99.4 288.7,99.4 288.7,115.3 336.0,115.3 336.0,131.1 383.3,131.1 383.3,131.1 430.7,131.1 430.7,147.0 478.0,147.0 478.0,147.0" fill="none" stroke="#3a86ff" stroke-width="2.5"/><circle cx="52.0" cy="36.0" r="4.5" fill="#3a86ff"/><circle cx="99.3" cy="51.9" r="4.5" fill="#3a86ff"/><circle cx="146.7" cy="67.7" r="4.5" fill="#3a86ff"/><circle cx="194.0" cy="83.6" r="4.5" fill="#3a86ff"/><circle cx="241.3" cy="99.4" r="4.5" fill="#3a86ff"/><circle cx="288.7" cy="115.3" r="4.5" fill="#3a86ff"/><circle cx="336.0" cy="131.1" r="4.5" fill="#3a86ff"/><circle cx="383.3" cy="131.1" r="4.5" fill="#3a86ff"/><circle cx="430.7" cy="147.0" r="4.5" fill="#3a86ff"/><circle cx="478.0" cy="147.0" r="4.5" fill="#3a86ff"/><line x1="52" y1="147.0" x2="478" y2="147.0" stroke="#1d3557" stroke-width="2" stroke-dasharray="5 4"/><text x="474" y="141.0" text-anchor="end" font-size="10" fill="#1d3557">Latency-optimal = 7</text></svg>