<svg viewBox="0 0 500 340" xmlns="http://www.w3.org/2000/svg" role="img" aria-label="gemm_k8 tradeoff plot"><text x="250.0" y="22" text-anchor="middle" font-size="16" font-weight="700" fill="#102a43">gemm_k8 area vs latency</text><line x1="60" y1="288" x2="472" y2="288" stroke="#9fb3c8" stroke-width="1.2"/><line x1="60" y1="36" x2="60" y2="288" stroke="#9fb3c8" stroke-width="1.2"/><text x="250.0" y="330" text-anchor="middle" font-size="12" fill="#486581">Area</text><text x="18" y="162.0" transform="rotate(-90 18 162.0)" text-anchor="middle" font-size="12" fill="#486581">Latency</text><line x1="60.0" y1="288" x2="60.0" y2="293" stroke="#9fb3c8" stroke-width="1"/><text x="60.0" y="306" text-anchor="middle" font-size="10" fill="#486581">0.0</text><line x1="55" y1="288.0" x2="60" y2="288.0" stroke="#9fb3c8" stroke-width="1"/><text x="50" y="292.0" text-anchor="end" font-size="10" fill="#486581">0.0</text><line x1="163.0" y1="288" x2="163.0" y2="293" stroke="#9fb3c8" stroke-width="1"/><text x="163.0" y="306" text-anchor="middle" font-size="10" fill="#486581">13.8</text><line x1="55" y1="225.0" x2="60" y2="225.0" stroke="#9fb3c8" stroke-width="1"/><text x="50" y="229.0" text-anchor="end" font-size="10" fill="#486581">5.0</text><line x1="266.0" y1="288" x2="266.0" y2="293" stroke="#9fb3c8" stroke-width="1"/><text x="266.0" y="306" text-anchor="middle" font-size="10" fill="#486581">27.5</text><line x1="55" y1="162.0" x2="60" y2="162.0" stroke="#9fb3c8" stroke-width="1"/><text x="50" y="166.0" text-anchor="end" font-size="10" fill="#486581">10.0</text><line x1="369.0" y1="288" x2="369.0" y2="293" stroke="#9fb3c8" stroke-width="1"/><text x="369.0" y="306" text-anchor="middle" font-size="10" fill="#486581">41.2</text><line x1="55" y1="99.0" x2="60" y2="99.0" stroke="#9fb3c8" stroke-width="1"/><text x="50" y="103.0" text-anchor="end" font-size="10" fill="#486581">15.0</text><line x1="472.0" y1="288" x2="472.0" y2="293" stroke="#9fb3c8" stroke-width="1"/><text x="472.0" y="306" text-anchor="middle" font-size="10" fill="#486581">55.0</text><line x1="55" y1="36.0" x2="60" y2="36.0" stroke="#9fb3c8" stroke-width="1"/><text x="50" y="40.0" text-anchor="end" font-size="10" fill="#486581">20.0</text><polyline points="352.1,36.0 359.6,36.0 359.6,48.6 367.1,48.6 367.1,61.2 374.6,61.2 374.6,73.8 382.1,73.8 382.1,86.4 389.6,86.4 389.6,99.0 397.1,99.0 397.1,111.6 404.6,111.6 404.6,124.2 427.1,124.2 427.1,136.8 442.0,136.8 442.0,149.4 464.5,149.4 464.5,162.0" fill="none" stroke="#264653" stroke-width="2.5" stroke-dasharray="4 4"/><polyline points="352.1,36.0 464.5,162.0 472.0,73.8" fill="none" stroke="#8d99ae" stroke-width="2.5" stroke-linecap="round"/><circle cx="352.1" cy="36.0" r="11" fill="#2a9d8f" /><text x="352.1" y="40.0" text-anchor="middle" font-size="10" font-weight="700" fill="#ffffff">1</text><circle cx="359.6" cy="48.6" r="11" fill="#264653" /><text x="359.6" y="52.6" text-anchor="middle" font-size="10" font-weight="700" fill="#ffffff">2</text><circle cx="367.1" cy="61.2" r="11" fill="#264653" /><text x="367.1" y="65.2" text-anchor="middle" font-size="10" font-weight="700" fill="#ffffff">3</text><circle cx="374.6" cy="73.8" r="11" fill="#f4a261" /><text x="374.6" y="77.8" text-anchor="middle" font-size="10" font-weight="700" fill="#ffffff">4</text><circle cx="382.1" cy="86.4" r="11" fill="#264653" /><text x="382.1" y="90.4" text-anchor="middle" font-size="10" font-weight="700" fill="#ffffff">5</text><circle cx="389.6" cy="99.0" r="11" fill="#264653" /><text x="389.6" y="103.0" text-anchor="middle" font-size="10" font-weight="700" fill="#ffffff">6</text><circle cx="397.1" cy="111.6" r="11" fill="#264653" /><text x="397.1" y="115.6" text-anchor="middle" font-size="10" font-weight="700" fill="#ffffff">7</text><circle cx="404.6" cy="124.2" r="11" fill="#264653" /><text x="404.6" y="128.2" text-anchor="middle" font-size="10" font-weight="700" fill="#ffffff">8</text><circle cx="427.1" cy="136.8" r="11" fill="#264653" /><text x="427.1" y="140.8" text-anchor="middle" font-size="10" font-weight="700" fill="#ffffff">9</text><circle cx="442.0" cy="149.4" r="11" fill="#264653" /><text x="442.0" y="153.4" text-anchor="middle" font-size="10" font-weight="700" fill="#ffffff">10</text><circle cx="464.5" cy="162.0" r="11" fill="#1d3557" /><text x="464.5" y="166.0" text-anchor="middle" font-size="10" font-weight="700" fill="#ffffff">11</text><circle cx="472.0" cy="73.8" r="11" fill="#355070" /><text x="472.0" y="77.8" text-anchor="middle" font-size="10" font-weight="700" fill="#ffffff">12</text></svg>