<svg viewBox="0 0 500 340" xmlns="http://www.w3.org/2000/svg" role="img" aria-label="gemm_blocked_k8 tradeoff plot"><text x="250.0" y="22" text-anchor="middle" font-size="16" font-weight="700" fill="#102a43">gemm_blocked_k8 area vs latency</text><line x1="60" y1="288" x2="472" y2="288" stroke="#9fb3c8" stroke-width="1.2"/><line x1="60" y1="36" x2="60" y2="288" stroke="#9fb3c8" stroke-width="1.2"/><text x="250.0" y="330" text-anchor="middle" font-size="12" fill="#486581">Area</text><text x="18" y="162.0" transform="rotate(-90 18 162.0)" text-anchor="middle" font-size="12" fill="#486581">Latency</text><line x1="60.0" y1="288" x2="60.0" y2="293" stroke="#9fb3c8" stroke-width="1"/><text x="60.0" y="306" text-anchor="middle" font-size="10" fill="#486581">0.0</text><line x1="55" y1="288.0" x2="60" y2="288.0" stroke="#9fb3c8" stroke-width="1"/><text x="50" y="292.0" text-anchor="end" font-size="10" fill="#486581">0.0</text><line x1="163.0" y1="288" x2="163.0" y2="293" stroke="#9fb3c8" stroke-width="1"/><text x="163.0" y="306" text-anchor="middle" font-size="10" fill="#486581">15.5</text><line x1="55" y1="225.0" x2="60" y2="225.0" stroke="#9fb3c8" stroke-width="1"/><text x="50" y="229.0" text-anchor="end" font-size="10" fill="#486581">3.5</text><line x1="266.0" y1="288" x2="266.0" y2="293" stroke="#9fb3c8" stroke-width="1"/><text x="266.0" y="306" text-anchor="middle" font-size="10" fill="#486581">31.0</text><line x1="55" y1="162.0" x2="60" y2="162.0" stroke="#9fb3c8" stroke-width="1"/><text x="50" y="166.0" text-anchor="end" font-size="10" fill="#486581">7.0</text><line x1="369.0" y1="288" x2="369.0" y2="293" stroke="#9fb3c8" stroke-width="1"/><text x="369.0" y="306" text-anchor="middle" font-size="10" fill="#486581">46.5</text><line x1="55" y1="99.0" x2="60" y2="99.0" stroke="#9fb3c8" stroke-width="1"/><text x="50" y="103.0" text-anchor="end" font-size="10" fill="#486581">10.5</text><line x1="472.0" y1="288" x2="472.0" y2="293" stroke="#9fb3c8" stroke-width="1"/><text x="472.0" y="306" text-anchor="middle" font-size="10" fill="#486581">62.0</text><line x1="55" y1="36.0" x2="60" y2="36.0" stroke="#9fb3c8" stroke-width="1"/><text x="50" y="40.0" text-anchor="end" font-size="10" fill="#486581">14.0</text><polyline points="319.2,36.0 325.8,36.0 325.8,54.0 339.1,54.0 339.1,72.0 352.4,72.0 352.4,90.0 365.7,90.0 365.7,108.0 405.5,108.0 405.5,126.0 432.1,126.0 432.1,144.0 472.0,144.0 472.0,162.0" fill="none" stroke="#264653" stroke-width="2.5" stroke-dasharray="4 4"/><polyline points="319.2,36.0 365.7,108.0 425.5,90.0" fill="none" stroke="#8d99ae" stroke-width="2.5" stroke-linecap="round"/><circle cx="319.2" cy="36.0" r="11" fill="#2a9d8f" /><text x="319.2" y="40.0" text-anchor="middle" font-size="10" font-weight="700" fill="#ffffff">1</text><circle cx="325.8" cy="54.0" r="11" fill="#264653" /><text x="325.8" y="58.0" text-anchor="middle" font-size="10" font-weight="700" fill="#ffffff">2</text><circle cx="339.1" cy="72.0" r="11" fill="#264653" /><text x="339.1" y="76.0" text-anchor="middle" font-size="10" font-weight="700" fill="#ffffff">3</text><circle cx="352.4" cy="90.0" r="11" fill="#f4a261" /><text x="352.4" y="94.0" text-anchor="middle" font-size="10" font-weight="700" fill="#ffffff">4</text><circle cx="365.7" cy="108.0" r="11" fill="#8d99ae" /><text x="365.7" y="112.0" text-anchor="middle" font-size="10" font-weight="700" fill="#ffffff">5</text><circle cx="405.5" cy="126.0" r="11" fill="#e9c46a" /><text x="405.5" y="130.0" text-anchor="middle" font-size="10" font-weight="700" fill="#ffffff">6</text><circle cx="425.5" cy="90.0" r="11" fill="#355070" /><text x="425.5" y="94.0" text-anchor="middle" font-size="10" font-weight="700" fill="#ffffff">7</text><circle cx="432.1" cy="144.0" r="11" fill="#264653" /><text x="432.1" y="148.0" text-anchor="middle" font-size="10" font-weight="700" fill="#ffffff">8</text><circle cx="472.0" cy="162.0" r="11" fill="#1d3557" /><text x="472.0" y="166.0" text-anchor="middle" font-size="10" font-weight="700" fill="#ffffff">9</text></svg>