<svg viewBox="0 0 500 300" xmlns="http://www.w3.org/2000/svg" role="img" aria-label="conv3x3 dsp scaling plot"><text x="250.0" y="22" text-anchor="middle" font-size="16" font-weight="700" fill="#102a43">Bigger FPGA, Faster Datapath?</text><line x1="52" y1="258" x2="478" y2="258" stroke="#9fb3c8" stroke-width="1.2"/><line x1="52" y1="36" x2="52" y2="258" stroke="#9fb3c8" stroke-width="1.2"/><text x="250.0" y="292" text-anchor="middle" font-size="12" fill="#486581">Allowed DSP Budget</text><text x="18" y="147.0" transform="rotate(-90 18 147.0)" text-anchor="middle" font-size="12" fill="#486581">Best Latency</text><line x1="52.0" y1="258" x2="52.0" y2="263" stroke="#9fb3c8" stroke-width="1"/><text x="52.0" y="276" text-anchor="middle" font-size="10" fill="#486581">0</text><line x1="77.1" y1="258" x2="77.1" y2="263" stroke="#9fb3c8" stroke-width="1"/><text x="77.1" y="276" text-anchor="middle" font-size="10" fill="#486581">1</text><line x1="102.1" y1="258" x2="102.1" y2="263" stroke="#9fb3c8" stroke-width="1"/><text x="102.1" y="276" text-anchor="middle" font-size="10" fill="#486581">2</text><line x1="127.2" y1="258" x2="127.2" y2="263" stroke="#9fb3c8" stroke-width="1"/><text x="127.2" y="276" text-anchor="middle" font-size="10" fill="#486581">3</text><line x1="152.2" y1="258" x2="152.2" y2="263" stroke="#9fb3c8" stroke-width="1"/><text x="152.2" y="276" text-anchor="middle" font-size="10" fill="#486581">4</text><line x1="177.3" y1="258" x2="177.3" y2="263" stroke="#9fb3c8" stroke-width="1"/><text x="177.3" y="276" text-anchor="middle" font-size="10" fill="#486581">5</text><line x1="202.4" y1="258" x2="202.4" y2="263" stroke="#9fb3c8" stroke-width="1"/><text x="202.4" y="276" text-anchor="middle" font-size="10" fill="#486581">6</text><line x1="227.4" y1="258" x2="227.4" y2="263" stroke="#9fb3c8" stroke-width="1"/><text x="227.4" y="276" text-anchor="middle" font-size="10" fill="#486581">7</text><line x1="252.5" y1="258" x2="252.5" y2="263" stroke="#9fb3c8" stroke-width="1"/><text x="252.5" y="276" text-anchor="middle" font-size="10" fill="#486581">8</text><line x1="277.5" y1="258" x2="277.5" y2="263" stroke="#9fb3c8" stroke-width="1"/><text x="277.5" y="276" text-anchor="middle" font-size="10" fill="#486581">9</text><line x1="302.6" y1="258" x2="302.6" y2="263" stroke="#9fb3c8" stroke-width="1"/><text x="302.6" y="276" text-anchor="middle" font-size="10" fill="#486581">10</text><line x1="327.6" y1="258" x2="327.6" y2="263" stroke="#9fb3c8" stroke-width="1"/><text x="327.6" y="276" text-anchor="middle" font-size="10" fill="#486581">11</text><line x1="352.7" y1="258" x2="352.7" y2="263" stroke="#9fb3c8" stroke-width="1"/><text x="352.7" y="276" text-anchor="middle" font-size="10" fill="#486581">12</text><line x1="377.8" y1="258" x2="377.8" y2="263" stroke="#9fb3c8" stroke-width="1"/><text x="377.8" y="276" text-anchor="middle" font-size="10" fill="#486581">13</text><line x1="402.8" y1="258" x2="402.8" y2="263" stroke="#9fb3c8" stroke-width="1"/><text x="402.8" y="276" text-anchor="middle" font-size="10" fill="#486581">14</text><line x1="427.9" y1="258" x2="427.9" y2="263" stroke="#9fb3c8" stroke-width="1"/><text x="427.9" y="276" text-anchor="middle" font-size="10" fill="#486581">15</text><line x1="452.9" y1="258" x2="452.9" y2="263" stroke="#9fb3c8" stroke-width="1"/><text x="452.9" y="276" text-anchor="middle" font-size="10" fill="#486581">16</text><line x1="478.0" y1="258" x2="478.0" y2="263" stroke="#9fb3c8" stroke-width="1"/><text x="478.0" y="276" text-anchor="middle" font-size="10" fill="#486581">17</text><line x1="47" y1="258.0" x2="52" y2="258.0" stroke="#9fb3c8" stroke-width="1"/><text x="42" y="262.0" text-anchor="end" font-size="10" fill="#486581">0.0</text><line x1="47" y1="202.5" x2="52" y2="202.5" stroke="#9fb3c8" stroke-width="1"/><text x="42" y="206.5" text-anchor="end" font-size="10" fill="#486581">4.5</text><line x1="47" y1="147.0" x2="52" y2="147.0" stroke="#9fb3c8" stroke-width="1"/><text x="42" y="151.0" text-anchor="end" font-size="10" fill="#486581">9.0</text><line x1="47" y1="91.5" x2="52" y2="91.5" stroke="#9fb3c8" stroke-width="1"/><text x="42" y="95.5" text-anchor="end" font-size="10" fill="#486581">13.5</text><line x1="47" y1="36.0" x2="52" y2="36.0" stroke="#9fb3c8" stroke-width="1"/><text x="42" y="40.0" text-anchor="end" font-size="10" fill="#486581">18.0</text><polyline points="52.0,36.0 77.1,36.0 77.1,48.3 102.1,48.3 102.1,60.7 127.2,60.7 127.2,73.0 152.2,73.0 152.2,85.3 177.3,85.3 177.3,97.7 202.4,97.7 202.4,110.0 227.4,110.0 227.4,122.3 252.5,122.3 252.5,122.3 277.5,122.3 277.5,134.7 302.6,134.7 302.6,147.0 327.6,147.0 327.6,147.0 352.7,147.0 352.7,147.0 377.8,147.0 377.8,147.0 402.8,147.0 402.8,147.0 427.9,147.0 427.9,147.0 452.9,147.0 452.9,147.0 478.0,147.0 478.0,147.0" fill="none" stroke="#3a86ff" stroke-width="2.5"/><circle cx="52.0" cy="36.0" r="4.5" fill="#3a86ff"/><circle cx="77.1" cy="48.3" r="4.5" fill="#3a86ff"/><circle cx="102.1" cy="60.7" r="4.5" fill="#3a86ff"/><circle cx="127.2" cy="73.0" r="4.5" fill="#3a86ff"/><circle cx="152.2" cy="85.3" r="4.5" fill="#3a86ff"/><circle cx="177.3" cy="97.7" r="4.5" fill="#3a86ff"/><circle cx="202.4" cy="110.0" r="4.5" fill="#3a86ff"/><circle cx="227.4" cy="122.3" r="4.5" fill="#3a86ff"/><circle cx="252.5" cy="122.3" r="4.5" fill="#3a86ff"/><circle cx="277.5" cy="134.7" r="4.5" fill="#3a86ff"/><circle cx="302.6" cy="147.0" r="4.5" fill="#3a86ff"/><circle cx="327.6" cy="147.0" r="4.5" fill="#3a86ff"/><circle cx="352.7" cy="147.0" r="4.5" fill="#3a86ff"/><circle cx="377.8" cy="147.0" r="4.5" fill="#3a86ff"/><circle cx="402.8" cy="147.0" r="4.5" fill="#3a86ff"/><circle cx="427.9" cy="147.0" r="4.5" fill="#3a86ff"/><circle cx="452.9" cy="147.0" r="4.5" fill="#3a86ff"/><circle cx="478.0" cy="147.0" r="4.5" fill="#3a86ff"/><line x1="52" y1="147.0" x2="478" y2="147.0" stroke="#1d3557" stroke-width="2" stroke-dasharray="5 4"/><text x="474" y="141.0" text-anchor="end" font-size="10" fill="#1d3557">Latency-optimal = 9</text></svg>