<svg viewBox="0 0 500 340" xmlns="http://www.w3.org/2000/svg" role="img" aria-label="fir8 tradeoff plot"><text x="250.0" y="22" text-anchor="middle" font-size="16" font-weight="700" fill="#102a43">fir8 area vs latency</text><line x1="60" y1="288" x2="472" y2="288" stroke="#9fb3c8" stroke-width="1.2"/><line x1="60" y1="36" x2="60" y2="288" stroke="#9fb3c8" stroke-width="1.2"/><text x="250.0" y="330" text-anchor="middle" font-size="12" fill="#486581">Area</text><text x="18" y="162.0" transform="rotate(-90 18 162.0)" text-anchor="middle" font-size="12" fill="#486581">Latency</text><line x1="60.0" y1="288" x2="60.0" y2="293" stroke="#9fb3c8" stroke-width="1"/><text x="60.0" y="306" text-anchor="middle" font-size="10" fill="#486581">0.0</text><line x1="55" y1="288.0" x2="60" y2="288.0" stroke="#9fb3c8" stroke-width="1"/><text x="50" y="292.0" text-anchor="end" font-size="10" fill="#486581">0.0</text><line x1="163.0" y1="288" x2="163.0" y2="293" stroke="#9fb3c8" stroke-width="1"/><text x="163.0" y="306" text-anchor="middle" font-size="10" fill="#486581">13.8</text><line x1="55" y1="225.0" x2="60" y2="225.0" stroke="#9fb3c8" stroke-width="1"/><text x="50" y="229.0" text-anchor="end" font-size="10" fill="#486581">4.5</text><line x1="266.0" y1="288" x2="266.0" y2="293" stroke="#9fb3c8" stroke-width="1"/><text x="266.0" y="306" text-anchor="middle" font-size="10" fill="#486581">27.5</text><line x1="55" y1="162.0" x2="60" y2="162.0" stroke="#9fb3c8" stroke-width="1"/><text x="50" y="166.0" text-anchor="end" font-size="10" fill="#486581">9.0</text><line x1="369.0" y1="288" x2="369.0" y2="293" stroke="#9fb3c8" stroke-width="1"/><text x="369.0" y="306" text-anchor="middle" font-size="10" fill="#486581">41.2</text><line x1="55" y1="99.0" x2="60" y2="99.0" stroke="#9fb3c8" stroke-width="1"/><text x="50" y="103.0" text-anchor="end" font-size="10" fill="#486581">13.5</text><line x1="472.0" y1="288" x2="472.0" y2="293" stroke="#9fb3c8" stroke-width="1"/><text x="472.0" y="306" text-anchor="middle" font-size="10" fill="#486581">55.0</text><line x1="55" y1="36.0" x2="60" y2="36.0" stroke="#9fb3c8" stroke-width="1"/><text x="50" y="40.0" text-anchor="end" font-size="10" fill="#486581">18.0</text><polyline points="247.3,36.0 254.8,36.0 254.8,50.0 262.3,50.0 262.3,64.0 269.7,64.0 269.7,78.0 277.2,78.0 277.2,92.0 284.7,92.0 284.7,106.0 292.2,106.0 292.2,120.0 299.7,120.0 299.7,134.0 322.2,134.0 322.2,148.0 344.7,148.0 344.7,162.0" fill="none" stroke="#264653" stroke-width="2.5" stroke-dasharray="4 4"/><polyline points="247.3,36.0 307.2,64.0 344.7,162.0" fill="none" stroke="#8d99ae" stroke-width="2.5" stroke-linecap="round"/><circle cx="247.3" cy="36.0" r="11" fill="#2a9d8f" /><text x="247.3" y="40.0" text-anchor="middle" font-size="10" font-weight="700" fill="#ffffff">1</text><circle cx="254.8" cy="50.0" r="11" fill="#f4a261" /><text x="254.8" y="54.0" text-anchor="middle" font-size="10" font-weight="700" fill="#ffffff">2</text><circle cx="262.3" cy="64.0" r="11" fill="#264653" /><text x="262.3" y="68.0" text-anchor="middle" font-size="10" font-weight="700" fill="#ffffff">3</text><circle cx="269.7" cy="78.0" r="11" fill="#264653" /><text x="269.7" y="82.0" text-anchor="middle" font-size="10" font-weight="700" fill="#ffffff">4</text><circle cx="277.2" cy="92.0" r="11" fill="#264653" /><text x="277.2" y="96.0" text-anchor="middle" font-size="10" font-weight="700" fill="#ffffff">5</text><circle cx="284.7" cy="106.0" r="11" fill="#264653" /><text x="284.7" y="110.0" text-anchor="middle" font-size="10" font-weight="700" fill="#ffffff">6</text><circle cx="292.2" cy="120.0" r="11" fill="#264653" /><text x="292.2" y="124.0" text-anchor="middle" font-size="10" font-weight="700" fill="#ffffff">7</text><circle cx="299.7" cy="134.0" r="11" fill="#264653" /><text x="299.7" y="138.0" text-anchor="middle" font-size="10" font-weight="700" fill="#ffffff">8</text><circle cx="307.2" cy="64.0" r="11" fill="#7b2cbf" /><text x="307.2" y="68.0" text-anchor="middle" font-size="10" font-weight="700" fill="#ffffff">9</text><circle cx="322.2" cy="148.0" r="11" fill="#264653" /><text x="322.2" y="152.0" text-anchor="middle" font-size="10" font-weight="700" fill="#ffffff">10</text><circle cx="344.7" cy="162.0" r="11" fill="#1d3557" /><text x="344.7" y="166.0" text-anchor="middle" font-size="10" font-weight="700" fill="#ffffff">11</text><circle cx="359.6" cy="162.0" r="11" fill="#577590" /><text x="359.6" y="166.0" text-anchor="middle" font-size="10" font-weight="700" fill="#ffffff">12</text><circle cx="472.0" cy="50.0" r="11" fill="#355070" /><text x="472.0" y="54.0" text-anchor="middle" font-size="10" font-weight="700" fill="#ffffff">13</text></svg>