<svg viewBox="0 0 500 300" xmlns="http://www.w3.org/2000/svg" role="img" aria-label="gemm_k8 dsp scaling plot"><text x="250.0" y="22" text-anchor="middle" font-size="16" font-weight="700" fill="#102a43">Bigger FPGA, Faster Datapath?</text><line x1="52" y1="258" x2="478" y2="258" stroke="#9fb3c8" stroke-width="1.2"/><line x1="52" y1="36" x2="52" y2="258" stroke="#9fb3c8" stroke-width="1.2"/><text x="250.0" y="292" text-anchor="middle" font-size="12" fill="#486581">Allowed DSP Budget</text><text x="18" y="147.0" transform="rotate(-90 18 147.0)" text-anchor="middle" font-size="12" fill="#486581">Best Latency</text><line x1="52.0" y1="258" x2="52.0" y2="263" stroke="#9fb3c8" stroke-width="1"/><text x="52.0" y="276" text-anchor="middle" font-size="10" fill="#486581">0</text><line x1="80.4" y1="258" x2="80.4" y2="263" stroke="#9fb3c8" stroke-width="1"/><text x="80.4" y="276" text-anchor="middle" font-size="10" fill="#486581">1</text><line x1="108.8" y1="258" x2="108.8" y2="263" stroke="#9fb3c8" stroke-width="1"/><text x="108.8" y="276" text-anchor="middle" font-size="10" fill="#486581">2</text><line x1="137.2" y1="258" x2="137.2" y2="263" stroke="#9fb3c8" stroke-width="1"/><text x="137.2" y="276" text-anchor="middle" font-size="10" fill="#486581">3</text><line x1="165.6" y1="258" x2="165.6" y2="263" stroke="#9fb3c8" stroke-width="1"/><text x="165.6" y="276" text-anchor="middle" font-size="10" fill="#486581">4</text><line x1="194.0" y1="258" x2="194.0" y2="263" stroke="#9fb3c8" stroke-width="1"/><text x="194.0" y="276" text-anchor="middle" font-size="10" fill="#486581">5</text><line x1="222.4" y1="258" x2="222.4" y2="263" stroke="#9fb3c8" stroke-width="1"/><text x="222.4" y="276" text-anchor="middle" font-size="10" fill="#486581">6</text><line x1="250.8" y1="258" x2="250.8" y2="263" stroke="#9fb3c8" stroke-width="1"/><text x="250.8" y="276" text-anchor="middle" font-size="10" fill="#486581">7</text><line x1="279.2" y1="258" x2="279.2" y2="263" stroke="#9fb3c8" stroke-width="1"/><text x="279.2" y="276" text-anchor="middle" font-size="10" fill="#486581">8</text><line x1="307.6" y1="258" x2="307.6" y2="263" stroke="#9fb3c8" stroke-width="1"/><text x="307.6" y="276" text-anchor="middle" font-size="10" fill="#486581">9</text><line x1="336.0" y1="258" x2="336.0" y2="263" stroke="#9fb3c8" stroke-width="1"/><text x="336.0" y="276" text-anchor="middle" font-size="10" fill="#486581">10</text><line x1="364.4" y1="258" x2="364.4" y2="263" stroke="#9fb3c8" stroke-width="1"/><text x="364.4" y="276" text-anchor="middle" font-size="10" fill="#486581">11</text><line x1="392.8" y1="258" x2="392.8" y2="263" stroke="#9fb3c8" stroke-width="1"/><text x="392.8" y="276" text-anchor="middle" font-size="10" fill="#486581">12</text><line x1="421.2" y1="258" x2="421.2" y2="263" stroke="#9fb3c8" stroke-width="1"/><text x="421.2" y="276" text-anchor="middle" font-size="10" fill="#486581">13</text><line x1="449.6" y1="258" x2="449.6" y2="263" stroke="#9fb3c8" stroke-width="1"/><text x="449.6" y="276" text-anchor="middle" font-size="10" fill="#486581">14</text><line x1="478.0" y1="258" x2="478.0" y2="263" stroke="#9fb3c8" stroke-width="1"/><text x="478.0" y="276" text-anchor="middle" font-size="10" fill="#486581">15</text><line x1="47" y1="258.0" x2="52" y2="258.0" stroke="#9fb3c8" stroke-width="1"/><text x="42" y="262.0" text-anchor="end" font-size="10" fill="#486581">0.0</text><line x1="47" y1="202.5" x2="52" y2="202.5" stroke="#9fb3c8" stroke-width="1"/><text x="42" y="206.5" text-anchor="end" font-size="10" fill="#486581">5.0</text><line x1="47" y1="147.0" x2="52" y2="147.0" stroke="#9fb3c8" stroke-width="1"/><text x="42" y="151.0" text-anchor="end" font-size="10" fill="#486581">10.0</text><line x1="47" y1="91.5" x2="52" y2="91.5" stroke="#9fb3c8" stroke-width="1"/><text x="42" y="95.5" text-anchor="end" font-size="10" fill="#486581">15.0</text><line x1="47" y1="36.0" x2="52" y2="36.0" stroke="#9fb3c8" stroke-width="1"/><text x="42" y="40.0" text-anchor="end" font-size="10" fill="#486581">20.0</text><polyline points="52.0,36.0 80.4,36.0 80.4,47.1 108.8,47.1 108.8,58.2 137.2,58.2 137.2,69.3 165.6,69.3 165.6,80.4 194.0,80.4 194.0,91.5 222.4,91.5 222.4,102.6 250.8,102.6 250.8,113.7 279.2,113.7 279.2,124.8 307.6,124.8 307.6,135.9 336.0,135.9 336.0,135.9 364.4,135.9 364.4,147.0 392.8,147.0 392.8,147.0 421.2,147.0 421.2,147.0 449.6,147.0 449.6,147.0 478.0,147.0 478.0,147.0" fill="none" stroke="#3a86ff" stroke-width="2.5"/><circle cx="52.0" cy="36.0" r="4.5" fill="#3a86ff"/><circle cx="80.4" cy="47.1" r="4.5" fill="#3a86ff"/><circle cx="108.8" cy="58.2" r="4.5" fill="#3a86ff"/><circle cx="137.2" cy="69.3" r="4.5" fill="#3a86ff"/><circle cx="165.6" cy="80.4" r="4.5" fill="#3a86ff"/><circle cx="194.0" cy="91.5" r="4.5" fill="#3a86ff"/><circle cx="222.4" cy="102.6" r="4.5" fill="#3a86ff"/><circle cx="250.8" cy="113.7" r="4.5" fill="#3a86ff"/><circle cx="279.2" cy="124.8" r="4.5" fill="#3a86ff"/><circle cx="307.6" cy="135.9" r="4.5" fill="#3a86ff"/><circle cx="336.0" cy="135.9" r="4.5" fill="#3a86ff"/><circle cx="364.4" cy="147.0" r="4.5" fill="#3a86ff"/><circle cx="392.8" cy="147.0" r="4.5" fill="#3a86ff"/><circle cx="421.2" cy="147.0" r="4.5" fill="#3a86ff"/><circle cx="449.6" cy="147.0" r="4.5" fill="#3a86ff"/><circle cx="478.0" cy="147.0" r="4.5" fill="#3a86ff"/><line x1="52" y1="147.0" x2="478" y2="147.0" stroke="#1d3557" stroke-width="2" stroke-dasharray="5 4"/><text x="474" y="141.0" text-anchor="end" font-size="10" fill="#1d3557">Latency-optimal = 10</text></svg>